G04*
G04 #@! TF.GenerationSoftware,Altium Limited,Altium Designer,20.1.14 (287)*
G04*
G04 Layer_Color=65535*
%FSLAX25Y25*%
%MOIN*%
G70*
G04*
G04 #@! TF.SameCoordinates,9EA74FF0-E2A0-47AC-9F38-8029312ED962*
G04*
G04*
G04 #@! TF.FilePolarity,Positive*
G04*
G01*
G75*
%ADD10C,0.00394*%
%ADD11C,0.01000*%
%ADD12C,0.00800*%
%ADD13C,0.00787*%
%ADD14C,0.00500*%
%ADD15C,0.01500*%
D10*
X380090Y380153D02*
Y380421D01*
Y380153D01*
X440083D02*
Y380421D01*
Y380153D01*
X383799Y336264D02*
Y360279D01*
X358209D02*
X383799D01*
X358209Y336264D02*
Y360279D01*
X443791Y336264D02*
Y360279D01*
X418201D02*
X443791D01*
X418201Y336264D02*
Y360279D01*
D11*
X503252Y360993D02*
X503618Y360109D01*
X504502Y359743D01*
X505386Y360109D01*
X505752Y360993D01*
X489000Y372000D02*
X488887Y373001D01*
X488554Y373953D01*
X488018Y374806D01*
X487306Y375518D01*
X486452Y376054D01*
X485501Y376387D01*
X484500Y376500D01*
X483499Y376387D01*
X482548Y376054D01*
X481694Y375518D01*
X480982Y374806D01*
X480446Y373953D01*
X480113Y373001D01*
X480000Y372000D01*
X480113Y370999D01*
X480446Y370047D01*
X480982Y369194D01*
X481694Y368482D01*
X482548Y367946D01*
X483499Y367613D01*
X484500Y367500D01*
X485501Y367613D01*
X486452Y367946D01*
X487306Y368482D01*
X488018Y369194D01*
X488554Y370047D01*
X488887Y370999D01*
X489000Y372000D01*
X529000D02*
X528887Y373001D01*
X528554Y373953D01*
X528018Y374806D01*
X527306Y375518D01*
X526452Y376054D01*
X525501Y376387D01*
X524500Y376500D01*
X523499Y376387D01*
X522547Y376054D01*
X521694Y375518D01*
X520982Y374806D01*
X520446Y373953D01*
X520113Y373001D01*
X520000Y372000D01*
X520113Y370999D01*
X520446Y370047D01*
X520982Y369194D01*
X521694Y368482D01*
X522547Y367946D01*
X523499Y367613D01*
X524500Y367500D01*
X525501Y367613D01*
X526452Y367946D01*
X527306Y368482D01*
X528018Y369194D01*
X528554Y370047D01*
X528887Y370999D01*
X529000Y372000D01*
X549000D02*
X548887Y373001D01*
X548554Y373953D01*
X548018Y374806D01*
X547306Y375518D01*
X546453Y376054D01*
X545501Y376387D01*
X544500Y376500D01*
X543499Y376387D01*
X542548Y376054D01*
X541694Y375518D01*
X540982Y374806D01*
X540446Y373953D01*
X540113Y373001D01*
X540000Y372000D01*
X540113Y370999D01*
X540446Y370047D01*
X540982Y369194D01*
X541694Y368482D01*
X542548Y367946D01*
X543499Y367613D01*
X544500Y367500D01*
X545501Y367613D01*
X546453Y367946D01*
X547306Y368482D01*
X548018Y369194D01*
X548554Y370047D01*
X548887Y370999D01*
X549000Y372000D01*
X509000D02*
X508887Y373001D01*
X508554Y373953D01*
X508018Y374806D01*
X507306Y375518D01*
X506453Y376054D01*
X505501Y376387D01*
X504500Y376500D01*
X503499Y376387D01*
X502548Y376054D01*
X501694Y375518D01*
X500982Y374806D01*
X500446Y373953D01*
X500113Y373001D01*
X500000Y372000D01*
X500113Y370999D01*
X500446Y370047D01*
X500982Y369194D01*
X501694Y368482D01*
X502548Y367946D01*
X503499Y367613D01*
X504500Y367500D01*
X505501Y367613D01*
X506453Y367946D01*
X507306Y368482D01*
X508018Y369194D01*
X508554Y370047D01*
X508887Y370999D01*
X509000Y372000D01*
X476028Y179500D02*
X475914Y180508D01*
X475579Y181465D01*
X475040Y182323D01*
X474323Y183040D01*
X473464Y183579D01*
X472507Y183914D01*
X471500Y184028D01*
X470493Y183914D01*
X469535Y183579D01*
X468677Y183040D01*
X467960Y182323D01*
X467421Y181465D01*
X467086Y180508D01*
X466972Y179500D01*
X467086Y178492D01*
X467421Y177535D01*
X467960Y176677D01*
X468677Y175960D01*
X469535Y175421D01*
X470493Y175086D01*
X471500Y174972D01*
X472507Y175086D01*
X473464Y175421D01*
X474323Y175960D01*
X475040Y176677D01*
X475579Y177535D01*
X475914Y178492D01*
X476028Y179500D01*
X352500Y275000D02*
X391500D01*
X352500Y325000D02*
X391500D01*
X407500Y288189D02*
Y311811D01*
X352500Y275000D02*
Y325000D01*
X424500Y267000D02*
X445000D01*
X424500Y217000D02*
Y267000D01*
Y217000D02*
X445000D01*
Y267000D01*
X426500Y252000D02*
X429000Y249500D01*
X426500Y252000D02*
X429000Y254500D01*
Y249500D02*
Y254500D01*
X444500Y185000D02*
X459500D01*
Y200000D01*
X444500D02*
X459500D01*
X444500Y185000D02*
Y200000D01*
X420500Y275000D02*
Y325000D01*
X445000Y179500D02*
Y183500D01*
X391500Y325000D02*
X420500D01*
X391500Y275000D02*
X420500Y275000D01*
X391500Y267000D02*
X420500D01*
X391500Y217000D02*
X420500Y217000D01*
X391500Y208000D02*
X420500D01*
X391500Y170000D02*
X420500Y170000D01*
Y217000D02*
Y267000D01*
X352500Y217000D02*
Y267000D01*
X407500Y230189D02*
X407500Y253811D01*
X352500Y267000D02*
X391500D01*
X352500Y217000D02*
X391500Y217000D01*
X420500Y170000D02*
Y208000D01*
X352500D02*
X391500D01*
X352500Y170000D02*
X391500D01*
X407500Y177189D02*
Y200811D01*
X352500Y170000D02*
Y208000D01*
X481327Y228209D02*
X482035Y227502D01*
X568000Y325000D02*
X607000D01*
X568000Y363000D02*
X607000D01*
X552000Y332189D02*
X552000Y355811D01*
X607000Y325000D02*
Y363000D01*
Y374500D01*
X514681Y223000D02*
X517776D01*
X514681Y269000D02*
X517776D01*
X514681Y265905D02*
Y269000D01*
Y315000D02*
X517776D01*
X514681Y311906D02*
Y315000D01*
Y219905D02*
Y223000D01*
Y184906D02*
Y219905D01*
Y230906D02*
Y265905D01*
Y276905D02*
Y311906D01*
Y184906D02*
X568000Y185000D01*
X517776Y223000D02*
X568000D01*
X514681Y230906D02*
X568000Y231000D01*
X517776Y269000D02*
X568000D01*
X514681Y276905D02*
X568000Y277000D01*
X517776Y315000D02*
X568000D01*
Y277000D02*
X607000D01*
X568000Y315000D02*
X607000D01*
X552000Y307811D02*
X552000Y284189D01*
X607000Y277000D02*
Y315000D01*
X568000Y231000D02*
X607000D01*
X568000Y269000D02*
X607000D01*
X552000Y238189D02*
Y261811D01*
X607000Y231000D02*
Y269000D01*
X568000Y185000D02*
X607000D01*
X568000Y223000D02*
X607000D01*
X552000Y192189D02*
Y215811D01*
X607000Y185000D02*
Y223000D01*
X552000Y374500D02*
X607000D01*
X552000Y325000D02*
X568000D01*
X552000Y325000D02*
X552000Y325000D01*
X552000Y325000D02*
Y363000D01*
X552000Y363000D02*
Y374500D01*
Y363000D02*
X552000Y363000D01*
X568000D01*
X450500Y325000D02*
X481500D01*
X450500Y314000D02*
Y325000D01*
Y314000D02*
X481500D01*
Y325000D01*
X483500Y185000D02*
Y211000D01*
X515000D01*
Y185000D02*
Y211000D01*
X483500Y185000D02*
X515000D01*
X450000Y386000D02*
X552000D01*
X500423Y340993D02*
Y360993D01*
Y340993D02*
X508580D01*
Y360993D01*
X505752D02*
X508580D01*
X500423D02*
X503252D01*
X458500Y327500D02*
X479500D01*
Y338500D01*
X458500D02*
X479500D01*
X458500Y327500D02*
Y338500D01*
X479500D02*
X500500D01*
X479500Y327500D02*
Y338500D01*
Y327500D02*
X500500D01*
Y338500D01*
X450500Y325000D02*
Y398000D01*
X550000Y335000D02*
Y356000D01*
X539000D02*
X550000D01*
X539000Y335000D02*
Y356000D01*
Y335000D02*
X550000D01*
X552000Y325000D02*
Y398000D01*
X469500Y352000D02*
Y356000D01*
Y346500D02*
Y350500D01*
X450500Y325000D02*
X552000D01*
X450500Y398000D02*
X552000D01*
X459500Y174000D02*
X466500D01*
X459500D02*
Y185000D01*
X466500D01*
X476500Y174000D02*
X483500D01*
X476500Y185000D02*
X483500D01*
Y174000D02*
Y185000D01*
X471000Y204500D02*
Y208500D01*
X352500Y398000D02*
X400500D01*
X352500Y386000D02*
X400500D01*
X352500Y325000D02*
X400500D01*
Y398000D02*
X450500D01*
X401500Y386000D02*
X450500D01*
X402500Y325000D02*
X450500D01*
Y376000D01*
X400500Y325000D02*
Y386000D01*
Y374000D02*
Y386000D01*
Y325000D02*
Y344000D01*
X352500Y325000D02*
Y386000D01*
X450500Y376000D02*
Y398000D01*
X400500Y386000D02*
Y398000D01*
Y386000D02*
Y398000D01*
Y358000D02*
Y374000D01*
Y344000D02*
Y358000D01*
X352500Y386000D02*
Y398000D01*
X400500Y386000D02*
X401500D01*
X400500Y325000D02*
X402500D01*
X460999Y393498D02*
X459999Y394498D01*
X458000D01*
X457000Y393498D01*
Y389500D01*
X458000Y388500D01*
X459999D01*
X460999Y389500D01*
X462998Y388500D02*
Y392499D01*
X464997Y394498D01*
X466997Y392499D01*
Y388500D01*
Y391499D01*
X462998D01*
X468996Y388500D02*
Y394498D01*
X472995Y388500D01*
Y394498D01*
X480992D02*
X484991D01*
X482992D01*
Y388500D01*
X486990D02*
Y394498D01*
X489989D01*
X490989Y393498D01*
Y391499D01*
X489989Y390499D01*
X486990D01*
X488990D02*
X490989Y388500D01*
X492988D02*
Y392499D01*
X494988Y394498D01*
X496987Y392499D01*
Y388500D01*
Y391499D01*
X492988D01*
X498986Y388500D02*
Y394498D01*
X502985Y388500D01*
Y394498D01*
X508983Y393498D02*
X507983Y394498D01*
X505984D01*
X504985Y393498D01*
Y392499D01*
X505984Y391499D01*
X507983D01*
X508983Y390499D01*
Y389500D01*
X507983Y388500D01*
X505984D01*
X504985Y389500D01*
X514981Y393498D02*
X513982Y394498D01*
X511982D01*
X510983Y393498D01*
Y389500D01*
X511982Y388500D01*
X513982D01*
X514981Y389500D01*
X520979Y394498D02*
X516981D01*
Y388500D01*
X520979D01*
X516981Y391499D02*
X518980D01*
X522979Y394498D02*
X524978D01*
X523978D01*
Y388500D01*
X522979D01*
X524978D01*
X527977Y394498D02*
Y390499D01*
X529976Y388500D01*
X531976Y390499D01*
Y394498D01*
X537974D02*
X533975D01*
Y388500D01*
X537974D01*
X533975Y391499D02*
X535974D01*
X539973Y388500D02*
Y394498D01*
X542972D01*
X543972Y393498D01*
Y391499D01*
X542972Y390499D01*
X539973D01*
X541972D02*
X543972Y388500D01*
X395836Y322333D02*
X394503D01*
X395170D01*
Y319000D01*
X394503Y318334D01*
X393837D01*
X393171Y319000D01*
X397169Y322333D02*
X399835D01*
Y321666D01*
X397169Y319000D01*
Y318334D01*
X401168Y317667D02*
X403834D01*
X407833Y321666D02*
X407166Y322333D01*
X405833D01*
X405167Y321666D01*
Y321000D01*
X405833Y320333D01*
X407166D01*
X407833Y319667D01*
Y319000D01*
X407166Y318334D01*
X405833D01*
X405167Y319000D01*
X409165Y318334D02*
Y322333D01*
X411165D01*
X411831Y321666D01*
Y320333D01*
X411165Y319667D01*
X409165D01*
X413164Y322333D02*
X414497D01*
X413831D01*
Y318334D01*
X413164D01*
X414497D01*
X416497D02*
X417829D01*
X417163D01*
Y322333D01*
X416497Y321666D01*
X423668Y192001D02*
Y195999D01*
X425667D01*
X426334Y195333D01*
Y194000D01*
X425667Y193333D01*
X423668D01*
X425001D02*
X426334Y192001D01*
X429666D02*
Y195999D01*
X427667Y194000D01*
X430332D01*
X451500Y223499D02*
X449501D01*
X450501D01*
Y218501D01*
X449501Y217501D01*
X448501D01*
X447502Y218501D01*
X457498Y217501D02*
X453500D01*
X457498Y221500D01*
Y222499D01*
X456499Y223499D01*
X454499D01*
X453500Y222499D01*
X452668Y205499D02*
Y202167D01*
X453334Y201501D01*
X454667D01*
X455334Y202167D01*
Y205499D01*
X459332Y201501D02*
X456667D01*
X459332Y204167D01*
Y204833D01*
X458666Y205499D01*
X457333D01*
X456667Y204833D01*
X452834Y176833D02*
X452167Y177499D01*
X450834D01*
X450168Y176833D01*
Y174167D01*
X450834Y173501D01*
X452167D01*
X452834Y174167D01*
X454167Y176833D02*
X454833Y177499D01*
X456166D01*
X456832Y176833D01*
Y176166D01*
X456166Y175500D01*
X456832Y174834D01*
Y174167D01*
X456166Y173501D01*
X454833D01*
X454167Y174167D01*
Y174834D01*
X454833Y175500D01*
X454167Y176166D01*
Y176833D01*
X454833Y175500D02*
X456166D01*
X433835Y177499D02*
Y173501D01*
X435834D01*
X436501Y174167D01*
Y176833D01*
X435834Y177499D01*
X433835D01*
X440499Y176833D02*
X439833Y177499D01*
X438500D01*
X437834Y176833D01*
Y176166D01*
X438500Y175500D01*
X439833D01*
X440499Y174834D01*
Y174167D01*
X439833Y173501D01*
X438500D01*
X437834Y174167D01*
X441832Y173501D02*
X443165D01*
X442499D01*
Y177499D01*
X441832Y176833D01*
X423834Y186001D02*
Y189999D01*
X425834D01*
X426500Y189333D01*
Y188000D01*
X425834Y187334D01*
X423834D01*
X425167D02*
X426500Y186001D01*
X427833D02*
X429166D01*
X428499D01*
Y189999D01*
X427833Y189333D01*
X423668Y204001D02*
Y207999D01*
X425667D01*
X426334Y207333D01*
Y206000D01*
X425667Y205334D01*
X423668D01*
X425001D02*
X426334Y204001D01*
X430332D02*
X427667D01*
X430332Y206666D01*
Y207333D01*
X429666Y207999D01*
X428333D01*
X427667Y207333D01*
X423668Y198001D02*
Y201999D01*
X425667D01*
X426334Y201333D01*
Y200000D01*
X425667Y199334D01*
X423668D01*
X425001D02*
X426334Y198001D01*
X427667Y201333D02*
X428333Y201999D01*
X429666D01*
X430332Y201333D01*
Y200666D01*
X429666Y200000D01*
X428999D01*
X429666D01*
X430332Y199334D01*
Y198667D01*
X429666Y198001D01*
X428333D01*
X427667Y198667D01*
X412002Y231499D02*
X411002Y230499D01*
Y228500D01*
X412002Y227500D01*
X413001D01*
X414001Y228500D01*
Y230499D01*
X415001Y231499D01*
X416000D01*
X417000Y230499D01*
Y228500D01*
X416000Y227500D01*
X417000Y233498D02*
X411002D01*
Y236497D01*
X412002Y237497D01*
X414001D01*
X415001Y236497D01*
Y233498D01*
X411002Y239496D02*
Y241495D01*
Y240496D01*
X417000D01*
Y239496D01*
Y241495D01*
Y254491D02*
Y250493D01*
X413001Y254491D01*
X412002D01*
X411002Y253492D01*
Y251492D01*
X412002Y250493D01*
X411002Y181500D02*
Y183499D01*
Y182500D01*
X417000D01*
Y181500D01*
Y183499D01*
Y190497D02*
Y186498D01*
X413001Y190497D01*
X412002D01*
X411002Y189497D01*
Y187498D01*
X412002Y186498D01*
Y196495D02*
X411002Y195495D01*
Y193496D01*
X412002Y192496D01*
X416000D01*
X417000Y193496D01*
Y195495D01*
X416000Y196495D01*
X412002Y291499D02*
X411002Y290499D01*
Y288500D01*
X412002Y287500D01*
X413001D01*
X414001Y288500D01*
Y290499D01*
X415001Y291499D01*
X416000D01*
X417000Y290499D01*
Y288500D01*
X416000Y287500D01*
X417000Y293498D02*
X411002D01*
Y296497D01*
X412002Y297497D01*
X414001D01*
X415001Y296497D01*
Y293498D01*
X411002Y299496D02*
Y301496D01*
Y300496D01*
X417000D01*
Y299496D01*
Y301496D01*
Y310493D02*
Y312492D01*
Y311492D01*
X411002D01*
X412002Y310493D01*
X395170Y264333D02*
X393837D01*
X394503D01*
Y261000D01*
X393837Y260334D01*
X393171D01*
X392504Y261000D01*
X396503Y264333D02*
X399169D01*
Y263666D01*
X396503Y261000D01*
Y260334D01*
X400502Y259667D02*
X403167D01*
X407166Y263666D02*
X406500Y264333D01*
X405167D01*
X404500Y263666D01*
Y263000D01*
X405167Y262333D01*
X406500D01*
X407166Y261667D01*
Y261000D01*
X406500Y260334D01*
X405167D01*
X404500Y261000D01*
X408499Y260334D02*
Y264333D01*
X410498D01*
X411165Y263666D01*
Y262333D01*
X410498Y261667D01*
X408499D01*
X412498Y264333D02*
X413831D01*
X413164D01*
Y260334D01*
X412498D01*
X413831D01*
X418496D02*
X415830D01*
X418496Y263000D01*
Y263666D01*
X417829Y264333D01*
X416497D01*
X415830Y263666D01*
X398834Y205999D02*
X397501D01*
X398167D01*
Y202667D01*
X397501Y202001D01*
X396834D01*
X396168Y202667D01*
X400167Y205333D02*
X400833Y205999D01*
X402166D01*
X402832Y205333D01*
Y204666D01*
X402166Y204000D01*
X402832Y203334D01*
Y202667D01*
X402166Y202001D01*
X400833D01*
X400167Y202667D01*
Y203334D01*
X400833Y204000D01*
X400167Y204666D01*
Y205333D01*
X400833Y204000D02*
X402166D01*
X522669Y219666D02*
X522002Y220333D01*
X520669D01*
X520003Y219666D01*
Y217000D01*
X520669Y216334D01*
X522002D01*
X522669Y217000D01*
X524002Y216334D02*
X525335D01*
X524668D01*
Y220333D01*
X524002Y219666D01*
X530000Y220333D02*
X527334D01*
Y218333D01*
X528667Y219000D01*
X529333D01*
X530000Y218333D01*
Y217000D01*
X529333Y216334D01*
X528000D01*
X527334Y217000D01*
X531333Y215667D02*
X533998D01*
X535331Y216334D02*
Y219000D01*
X536664Y220333D01*
X537997Y219000D01*
Y216334D01*
Y218333D01*
X535331D01*
X522669Y264666D02*
X522002Y265333D01*
X520669D01*
X520003Y264666D01*
Y262000D01*
X520669Y261334D01*
X522002D01*
X522669Y262000D01*
X524002Y261334D02*
X525335D01*
X524668D01*
Y265333D01*
X524002Y264666D01*
X530000Y265333D02*
X527334D01*
Y263333D01*
X528667Y264000D01*
X529333D01*
X530000Y263333D01*
Y262000D01*
X529333Y261334D01*
X528000D01*
X527334Y262000D01*
X531333Y260667D02*
X533998D01*
X535331Y265333D02*
Y261334D01*
X537331D01*
X537997Y262000D01*
Y262667D01*
X537331Y263333D01*
X535331D01*
X537331D01*
X537997Y264000D01*
Y264666D01*
X537331Y265333D01*
X535331D01*
X522669Y310666D02*
X522002Y311333D01*
X520669D01*
X520003Y310666D01*
Y308000D01*
X520669Y307334D01*
X522002D01*
X522669Y308000D01*
X524002Y307334D02*
X525335D01*
X524668D01*
Y311333D01*
X524002Y310666D01*
X530000Y311333D02*
X527334D01*
Y309333D01*
X528667Y310000D01*
X529333D01*
X530000Y309333D01*
Y308000D01*
X529333Y307334D01*
X528000D01*
X527334Y308000D01*
X531333Y306667D02*
X533998D01*
X537997Y310666D02*
X537331Y311333D01*
X535998D01*
X535331Y310666D01*
Y308000D01*
X535998Y307334D01*
X537331D01*
X537997Y308000D01*
X466834Y276999D02*
Y273667D01*
X467501Y273001D01*
X468834D01*
X469500Y273667D01*
Y276999D01*
X470833Y273001D02*
X472166D01*
X471499D01*
Y276999D01*
X470833Y276333D01*
X559334Y360499D02*
X558001D01*
X558667D01*
Y357167D01*
X558001Y356501D01*
X557334D01*
X556668Y357167D01*
X563332Y360499D02*
X561999Y359833D01*
X560667Y358500D01*
Y357167D01*
X561333Y356501D01*
X562666D01*
X563332Y357167D01*
Y357834D01*
X562666Y358500D01*
X560667D01*
X560499Y370998D02*
X559499Y371998D01*
X557500D01*
X556500Y370998D01*
Y367000D01*
X557500Y366000D01*
X559499D01*
X560499Y367000D01*
Y368999D01*
X558499D01*
X562498Y371998D02*
Y366000D01*
X566497D01*
X568496Y371998D02*
Y367999D01*
X570496Y366000D01*
X572495Y367999D01*
Y371998D01*
X574494Y366000D02*
X578493Y369999D01*
X584491Y370998D02*
X583491Y371998D01*
X581492D01*
X580492Y370998D01*
Y367000D01*
X581492Y366000D01*
X583491D01*
X584491Y367000D01*
X586490Y366000D02*
Y369999D01*
X588490Y371998D01*
X590489Y369999D01*
Y366000D01*
Y368999D01*
X586490D01*
X592488Y366000D02*
Y371998D01*
X596487Y366000D01*
Y371998D01*
X598486Y370998D02*
X599486Y371998D01*
X601485D01*
X602485Y370998D01*
Y369999D01*
X601485Y368999D01*
X600486D01*
X601485D01*
X602485Y367999D01*
Y367000D01*
X601485Y366000D01*
X599486D01*
X598486Y367000D01*
X520666Y238003D02*
X516667D01*
Y240002D01*
X517334Y240669D01*
X518667D01*
X519333Y240002D01*
Y238003D01*
Y239336D02*
X520666Y240669D01*
Y242002D02*
Y243335D01*
Y242668D01*
X516667D01*
X517334Y242002D01*
Y245334D02*
X516667Y246000D01*
Y247333D01*
X517334Y248000D01*
X520000D01*
X520666Y247333D01*
Y246000D01*
X520000Y245334D01*
X517334D01*
X521333Y249333D02*
Y251998D01*
X516667Y253331D02*
X520666D01*
Y255331D01*
X520000Y255997D01*
X519333D01*
X518667Y255331D01*
Y253331D01*
Y255331D01*
X518000Y255997D01*
X517334D01*
X516667Y255331D01*
Y253331D01*
X520666Y284003D02*
X516667D01*
Y286002D01*
X517334Y286669D01*
X518667D01*
X519333Y286002D01*
Y284003D01*
Y285336D02*
X520666Y286669D01*
Y288002D02*
Y289335D01*
Y288668D01*
X516667D01*
X517334Y288002D01*
Y291334D02*
X516667Y292000D01*
Y293333D01*
X517334Y294000D01*
X520000D01*
X520666Y293333D01*
Y292000D01*
X520000Y291334D01*
X517334D01*
X521333Y295333D02*
Y297998D01*
X517334Y301997D02*
X516667Y301331D01*
Y299998D01*
X517334Y299331D01*
X520000D01*
X520666Y299998D01*
Y301331D01*
X520000Y301997D01*
X536667Y194669D02*
X540666D01*
Y196668D01*
X540000Y197335D01*
X537334D01*
X536667Y196668D01*
Y194669D01*
X540666Y201333D02*
Y198668D01*
X538000Y201333D01*
X537334D01*
X536667Y200667D01*
Y199334D01*
X537334Y198668D01*
X541333Y202666D02*
Y205332D01*
X540666Y206665D02*
X538000D01*
X536667Y207998D01*
X538000Y209331D01*
X540666D01*
X538667D01*
Y206665D01*
X536667Y239669D02*
X540666D01*
Y241668D01*
X540000Y242335D01*
X537334D01*
X536667Y241668D01*
Y239669D01*
X540666Y246334D02*
Y243668D01*
X538000Y246334D01*
X537334D01*
X536667Y245667D01*
Y244334D01*
X537334Y243668D01*
X541333Y247666D02*
Y250332D01*
X536667Y251665D02*
X540666D01*
Y253664D01*
X540000Y254331D01*
X539333D01*
X538667Y253664D01*
Y251665D01*
Y253664D01*
X538000Y254331D01*
X537334D01*
X536667Y253664D01*
Y251665D01*
X536667Y285669D02*
X540666D01*
Y287668D01*
X540000Y288335D01*
X537334D01*
X536667Y287668D01*
Y285669D01*
X540666Y292334D02*
Y289668D01*
X538000Y292334D01*
X537334D01*
X536667Y291667D01*
Y290334D01*
X537334Y289668D01*
X541333Y293667D02*
Y296332D01*
X537334Y300331D02*
X536667Y299664D01*
Y298332D01*
X537334Y297665D01*
X540000D01*
X540666Y298332D01*
Y299664D01*
X540000Y300331D01*
X520666Y193003D02*
X516667D01*
Y195002D01*
X517334Y195669D01*
X518667D01*
X519333Y195002D01*
Y193003D01*
Y194336D02*
X520666Y195669D01*
Y197002D02*
Y198335D01*
Y197668D01*
X516667D01*
X517334Y197002D01*
Y200334D02*
X516667Y201000D01*
Y202333D01*
X517334Y203000D01*
X520000D01*
X520666Y202333D01*
Y201000D01*
X520000Y200334D01*
X517334D01*
X521333Y204333D02*
Y206998D01*
X520666Y208331D02*
X518000D01*
X516667Y209664D01*
X518000Y210997D01*
X520666D01*
X518667D01*
Y208331D01*
X550000Y239000D02*
X546001D01*
X544002Y240999D01*
X546001Y242999D01*
X550000D01*
X547001D01*
Y239000D01*
X544002Y244998D02*
X550000D01*
Y247997D01*
X549000Y248997D01*
X545002D01*
X544002Y247997D01*
Y244998D01*
X545002Y254995D02*
X544002Y253995D01*
Y251996D01*
X545002Y250996D01*
X549000D01*
X550000Y251996D01*
Y253995D01*
X549000Y254995D01*
X550000Y260993D02*
Y256994D01*
X546001Y260993D01*
X545002D01*
X544002Y259993D01*
Y257994D01*
X545002Y256994D01*
X550000Y193500D02*
X546001D01*
X544002Y195499D01*
X546001Y197499D01*
X550000D01*
X547001D01*
Y193500D01*
X544002Y199498D02*
X550000D01*
Y202497D01*
X549000Y203497D01*
X545002D01*
X544002Y202497D01*
Y199498D01*
X545002Y209495D02*
X544002Y208495D01*
Y206496D01*
X545002Y205496D01*
X549000D01*
X550000Y206496D01*
Y208495D01*
X549000Y209495D01*
X550000Y211494D02*
Y213493D01*
Y212494D01*
X544002D01*
X545002Y211494D01*
X550000Y285000D02*
X546001D01*
X544002Y286999D01*
X546001Y288999D01*
X550000D01*
X547001D01*
Y285000D01*
X544002Y290998D02*
X550000D01*
Y293997D01*
X549000Y294997D01*
X545002D01*
X544002Y293997D01*
Y290998D01*
X545002Y300995D02*
X544002Y299995D01*
Y297996D01*
X545002Y296996D01*
X549000D01*
X550000Y297996D01*
Y299995D01*
X549000Y300995D01*
X545002Y302994D02*
X544002Y303994D01*
Y305993D01*
X545002Y306993D01*
X546001D01*
X547001Y305993D01*
Y304994D01*
Y305993D01*
X548001Y306993D01*
X549000D01*
X550000Y305993D01*
Y303994D01*
X549000Y302994D01*
X549335Y313333D02*
X548002D01*
X548668D01*
Y310000D01*
X548002Y309334D01*
X547335D01*
X546669Y310000D01*
X550668D02*
X551334Y309334D01*
X552667D01*
X553334Y310000D01*
Y312666D01*
X552667Y313333D01*
X551334D01*
X550668Y312666D01*
Y312000D01*
X551334Y311333D01*
X553334D01*
X554667Y308667D02*
X557332D01*
X561331Y312666D02*
X560665Y313333D01*
X559332D01*
X558665Y312666D01*
Y310000D01*
X559332Y309334D01*
X560665D01*
X561331Y310000D01*
X549335Y267333D02*
X548002D01*
X548668D01*
Y264000D01*
X548002Y263334D01*
X547335D01*
X546669Y264000D01*
X550668D02*
X551334Y263334D01*
X552667D01*
X553334Y264000D01*
Y266666D01*
X552667Y267333D01*
X551334D01*
X550668Y266666D01*
Y266000D01*
X551334Y265333D01*
X553334D01*
X554667Y262667D02*
X557332D01*
X558665Y267333D02*
Y263334D01*
X560665D01*
X561331Y264000D01*
Y264667D01*
X560665Y265333D01*
X558665D01*
X560665D01*
X561331Y266000D01*
Y266666D01*
X560665Y267333D01*
X558665D01*
X549335Y221333D02*
X548002D01*
X548668D01*
Y218000D01*
X548002Y217334D01*
X547335D01*
X546669Y218000D01*
X550668D02*
X551334Y217334D01*
X552667D01*
X553334Y218000D01*
Y220666D01*
X552667Y221333D01*
X551334D01*
X550668Y220666D01*
Y220000D01*
X551334Y219333D01*
X553334D01*
X554667Y216667D02*
X557332D01*
X558665Y217334D02*
Y220000D01*
X559998Y221333D01*
X561331Y220000D01*
Y217334D01*
Y219333D01*
X558665D01*
X368172Y382232D02*
Y378899D01*
X368838Y378233D01*
X370171D01*
X370837Y378899D01*
Y382232D01*
X374170Y378233D02*
Y382232D01*
X372170Y380232D01*
X374836D01*
X426164Y382232D02*
Y378899D01*
X426830Y378233D01*
X428163D01*
X428830Y378899D01*
Y382232D01*
X432828D02*
X430162D01*
Y380232D01*
X431495Y380899D01*
X432162D01*
X432828Y380232D01*
Y378899D01*
X432162Y378233D01*
X430829D01*
X430162Y378899D01*
X406167Y336225D02*
X405501Y336891D01*
X404168D01*
X403502Y336225D01*
Y333559D01*
X404168Y332892D01*
X405501D01*
X406167Y333559D01*
X407500Y332892D02*
X408833D01*
X408167D01*
Y336891D01*
X407500Y336225D01*
X412832Y332892D02*
Y336891D01*
X410833Y334892D01*
X413498D01*
X443501Y319500D02*
Y318167D01*
Y318834D01*
X446833D01*
X447499Y318167D01*
Y317501D01*
X446833Y316834D01*
X447499Y320833D02*
Y322166D01*
Y321499D01*
X443501D01*
X444167Y320833D01*
X485834Y216999D02*
Y213001D01*
X488500D01*
X489833D02*
X491166D01*
X490499D01*
Y216999D01*
X489833Y216333D01*
X519168Y382499D02*
X521834D01*
X520501D01*
Y378501D01*
X523167D02*
Y382499D01*
X525166D01*
X525833Y381833D01*
Y380500D01*
X525166Y379834D01*
X523167D01*
X527166Y381833D02*
X527832Y382499D01*
X529165D01*
X529832Y381833D01*
Y381166D01*
X529165Y380500D01*
X528499D01*
X529165D01*
X529832Y379834D01*
Y379167D01*
X529165Y378501D01*
X527832D01*
X527166Y379167D01*
X483167Y361833D02*
X482501Y362499D01*
X481168D01*
X480502Y361833D01*
Y359167D01*
X481168Y358501D01*
X482501D01*
X483167Y359167D01*
X484500Y358501D02*
X485833D01*
X485167D01*
Y362499D01*
X484500Y361833D01*
X487833D02*
X488499Y362499D01*
X489832D01*
X490498Y361833D01*
Y359167D01*
X489832Y358501D01*
X488499D01*
X487833Y359167D01*
Y361833D01*
X510168Y338876D02*
Y335543D01*
X510834Y334877D01*
X512167D01*
X512834Y335543D01*
Y338876D01*
X514166Y338209D02*
X514833Y338876D01*
X516166D01*
X516832Y338209D01*
Y337543D01*
X516166Y336876D01*
X515499D01*
X516166D01*
X516832Y336210D01*
Y335543D01*
X516166Y334877D01*
X514833D01*
X514166Y335543D01*
X533001Y351334D02*
X536999D01*
Y353334D01*
X536333Y354000D01*
X533667D01*
X533001Y353334D01*
Y351334D01*
X536999Y355333D02*
Y356666D01*
Y355999D01*
X533001D01*
X533667Y355333D01*
X472168Y340001D02*
Y343999D01*
X474167D01*
X474834Y343333D01*
Y342000D01*
X474167Y341334D01*
X472168D01*
X473501D02*
X474834Y340001D01*
X476166Y343333D02*
X476833Y343999D01*
X478166D01*
X478832Y343333D01*
Y342666D01*
X478166Y342000D01*
X478832Y341334D01*
Y340667D01*
X478166Y340001D01*
X476833D01*
X476166Y340667D01*
Y341334D01*
X476833Y342000D01*
X476166Y342666D01*
Y343333D01*
X476833Y342000D02*
X478166D01*
X452501Y332334D02*
Y331001D01*
Y331667D01*
X455833D01*
X456499Y331001D01*
Y330334D01*
X455833Y329668D01*
X453167Y333666D02*
X452501Y334333D01*
Y335666D01*
X453167Y336332D01*
X453834D01*
X454500Y335666D01*
Y334999D01*
Y335666D01*
X455166Y336332D01*
X455833D01*
X456499Y335666D01*
Y334333D01*
X455833Y333666D01*
X472168Y358501D02*
Y362499D01*
X474167D01*
X474834Y361833D01*
Y360500D01*
X474167Y359834D01*
X472168D01*
X473501D02*
X474834Y358501D01*
X476166Y362499D02*
X478832D01*
Y361833D01*
X476166Y359167D01*
Y358501D01*
X502501Y331834D02*
Y330501D01*
Y331167D01*
X505833D01*
X506499Y330501D01*
Y329834D01*
X505833Y329168D01*
X502501Y335832D02*
Y333167D01*
X504500D01*
X503834Y334499D01*
Y335166D01*
X504500Y335832D01*
X505833D01*
X506499Y335166D01*
Y333833D01*
X505833Y333167D01*
X525668Y329001D02*
Y332999D01*
X527667D01*
X528334Y332333D01*
Y331000D01*
X527667Y330334D01*
X525668D01*
X527001D02*
X528334Y329001D01*
X529667Y329667D02*
X530333Y329001D01*
X531666D01*
X532332Y329667D01*
Y332333D01*
X531666Y332999D01*
X530333D01*
X529667Y332333D01*
Y331666D01*
X530333Y331000D01*
X532332D01*
X543834Y332999D02*
X542501D01*
X543167D01*
Y329667D01*
X542501Y329001D01*
X541834D01*
X541168Y329667D01*
X547166Y329001D02*
Y332999D01*
X545166Y331000D01*
X547832D01*
X472168Y356499D02*
Y352501D01*
X474168D01*
X474834Y353167D01*
Y355833D01*
X474168Y356499D01*
X472168D01*
X478833Y355833D02*
X478166Y356499D01*
X476834D01*
X476167Y355833D01*
Y355166D01*
X476834Y354500D01*
X478166D01*
X478833Y353834D01*
Y353167D01*
X478166Y352501D01*
X476834D01*
X476167Y353167D01*
X480166Y355833D02*
X480832Y356499D01*
X482165D01*
X482832Y355833D01*
Y355166D01*
X482165Y354500D01*
X481499D01*
X482165D01*
X482832Y353834D01*
Y353167D01*
X482165Y352501D01*
X480832D01*
X480166Y353167D01*
X472168Y349999D02*
Y346001D01*
X474168D01*
X474834Y346667D01*
Y349333D01*
X474168Y349999D01*
X472168D01*
X478833Y349333D02*
X478166Y349999D01*
X476834D01*
X476167Y349333D01*
Y348666D01*
X476834Y348000D01*
X478166D01*
X478833Y347334D01*
Y346667D01*
X478166Y346001D01*
X476834D01*
X476167Y346667D01*
X482165Y346001D02*
Y349999D01*
X480166Y348000D01*
X482832D01*
X479168Y382499D02*
X481834D01*
X480501D01*
Y378501D01*
X483167D02*
Y382499D01*
X485166D01*
X485833Y381833D01*
Y380500D01*
X485166Y379834D01*
X483167D01*
X489832Y378501D02*
X487166D01*
X489832Y381166D01*
Y381833D01*
X489165Y382499D01*
X487832D01*
X487166Y381833D01*
X539835Y382499D02*
X542501D01*
X541168D01*
Y378501D01*
X543834D02*
Y382499D01*
X545833D01*
X546499Y381833D01*
Y380500D01*
X545833Y379834D01*
X543834D01*
X547832Y378501D02*
X549165D01*
X548499D01*
Y382499D01*
X547832Y381833D01*
X499168Y382499D02*
X501834D01*
X500501D01*
Y378501D01*
X503167D02*
Y382499D01*
X505166D01*
X505833Y381833D01*
Y380500D01*
X505166Y379834D01*
X503167D01*
X509165Y378501D02*
Y382499D01*
X507166Y380500D01*
X509832D01*
X357500Y393998D02*
X358500Y394998D01*
X360499D01*
X361499Y393998D01*
Y392999D01*
X360499Y391999D01*
X359499D01*
X360499D01*
X361499Y390999D01*
Y390000D01*
X360499Y389000D01*
X358500D01*
X357500Y390000D01*
X363498Y394998D02*
Y390999D01*
X365497Y389000D01*
X367497Y390999D01*
Y394998D01*
X369496Y393998D02*
X370496Y394998D01*
X372495D01*
X373495Y393998D01*
Y392999D01*
X372495Y391999D01*
X371496D01*
X372495D01*
X373495Y390999D01*
Y390000D01*
X372495Y389000D01*
X370496D01*
X369496Y390000D01*
X381492Y389000D02*
Y394998D01*
X384491D01*
X385491Y393998D01*
Y391999D01*
X384491Y390999D01*
X381492D01*
X391489Y393998D02*
X390489Y394998D01*
X388490D01*
X387490Y393998D01*
Y392999D01*
X388490Y391999D01*
X390489D01*
X391489Y390999D01*
Y390000D01*
X390489Y389000D01*
X388490D01*
X387490Y390000D01*
X393488Y394998D02*
Y390000D01*
X394488Y389000D01*
X396487D01*
X397487Y390000D01*
Y394998D01*
X409499D02*
X405500D01*
Y391999D01*
X407499Y392999D01*
X408499D01*
X409499Y391999D01*
Y390000D01*
X408499Y389000D01*
X406500D01*
X405500Y390000D01*
X411498Y394998D02*
Y390999D01*
X413497Y389000D01*
X415497Y390999D01*
Y394998D01*
X423494Y389000D02*
Y394998D01*
X426493D01*
X427493Y393998D01*
Y391999D01*
X426493Y390999D01*
X423494D01*
X433491Y393998D02*
X432491Y394998D01*
X430492D01*
X429492Y393998D01*
Y392999D01*
X430492Y391999D01*
X432491D01*
X433491Y390999D01*
Y390000D01*
X432491Y389000D01*
X430492D01*
X429492Y390000D01*
X435490Y394998D02*
Y390000D01*
X436490Y389000D01*
X438489D01*
X439489Y390000D01*
Y394998D01*
X486167Y176501D02*
X485501Y175834D01*
Y174501D01*
X486167Y173835D01*
X486833D01*
X487500Y174501D01*
Y175834D01*
X488166Y176501D01*
X488833D01*
X489499Y175834D01*
Y174501D01*
X488833Y173835D01*
X485501Y177834D02*
X489499D01*
X488166Y179166D01*
X489499Y180499D01*
X485501D01*
X489499Y181832D02*
Y183165D01*
Y182499D01*
X485501D01*
X486167Y181832D01*
X462668Y198501D02*
Y202499D01*
X464667D01*
X465334Y201833D01*
Y200500D01*
X464667Y199834D01*
X462668D01*
X464001D02*
X465334Y198501D01*
X469332Y202499D02*
X467999Y201833D01*
X466667Y200500D01*
Y199167D01*
X467333Y198501D01*
X468666D01*
X469332Y199167D01*
Y199834D01*
X468666Y200500D01*
X466667D01*
X462668Y192501D02*
Y196499D01*
X464667D01*
X465334Y195833D01*
Y194500D01*
X464667Y193833D01*
X462668D01*
X464001D02*
X465334Y192501D01*
X469332Y196499D02*
X466667D01*
Y194500D01*
X467999Y195167D01*
X468666D01*
X469332Y194500D01*
Y193167D01*
X468666Y192501D01*
X467333D01*
X466667Y193167D01*
X471168Y214499D02*
Y210501D01*
X473168D01*
X473834Y211167D01*
Y213833D01*
X473168Y214499D01*
X471168D01*
X477833Y213833D02*
X477166Y214499D01*
X475834D01*
X475167Y213833D01*
Y213166D01*
X475834Y212500D01*
X477166D01*
X477833Y211834D01*
Y211167D01*
X477166Y210501D01*
X475834D01*
X475167Y211167D01*
X481832Y210501D02*
X479166D01*
X481832Y213166D01*
Y213833D01*
X481165Y214499D01*
X479832D01*
X479166Y213833D01*
X405167Y368209D02*
X404501Y368876D01*
X403168D01*
X402502Y368209D01*
Y365544D01*
X403168Y364877D01*
X404501D01*
X405167Y365544D01*
X406500Y364877D02*
X407833D01*
X407167D01*
Y368876D01*
X406500Y368209D01*
X409833D02*
X410499Y368876D01*
X411832D01*
X412498Y368209D01*
Y367543D01*
X411832Y366876D01*
X411166D01*
X411832D01*
X412498Y366210D01*
Y365544D01*
X411832Y364877D01*
X410499D01*
X409833Y365544D01*
X390167Y336225D02*
X389501Y336891D01*
X388168D01*
X387502Y336225D01*
Y333559D01*
X388168Y332892D01*
X389501D01*
X390167Y333559D01*
X391500Y332892D02*
X392833D01*
X392167D01*
Y336891D01*
X391500Y336225D01*
X397498Y332892D02*
X394833D01*
X397498Y335558D01*
Y336225D01*
X396832Y336891D01*
X395499D01*
X394833Y336225D01*
X391834Y368209D02*
X391167Y368876D01*
X389834D01*
X389168Y368209D01*
Y365544D01*
X389834Y364877D01*
X391167D01*
X391834Y365544D01*
X393167Y364877D02*
X394500D01*
X393833D01*
Y368876D01*
X393167Y368209D01*
X396499Y364877D02*
X397832D01*
X397165D01*
Y368876D01*
X396499Y368209D01*
X465334Y189833D02*
X464667Y190499D01*
X463334D01*
X462668Y189833D01*
Y187167D01*
X463334Y186501D01*
X464667D01*
X465334Y187167D01*
X466667D02*
X467333Y186501D01*
X468666D01*
X469332Y187167D01*
Y189833D01*
X468666Y190499D01*
X467333D01*
X466667Y189833D01*
Y189166D01*
X467333Y188500D01*
X469332D01*
X509000Y222333D02*
X508334Y222999D01*
X507001D01*
X506334Y222333D01*
Y219667D01*
X507001Y219001D01*
X508334D01*
X509000Y219667D01*
X510333Y219001D02*
X511666D01*
X510999D01*
Y222999D01*
X510333Y222333D01*
D12*
X432500Y191000D02*
Y197000D01*
X444500Y191000D02*
Y197000D01*
X432500D02*
X437500D01*
X439500D02*
X444500D01*
X432500Y191000D02*
X437500D01*
X439500D02*
X444500D01*
X454500Y179000D02*
X459500D01*
X447500D02*
X452500D01*
X454500Y185000D02*
X459500D01*
X447500D02*
X452500D01*
X459500Y179000D02*
Y185000D01*
X447500Y179000D02*
Y185000D01*
X432500Y191000D02*
X437500D01*
X439500D02*
X444500D01*
X432500Y185000D02*
X437500D01*
X439500D02*
X444500D01*
X432500D02*
Y191000D01*
X444500Y185000D02*
Y191000D01*
X439500Y203000D02*
X444500D01*
X432500D02*
X437500D01*
X439500Y209000D02*
X444500D01*
X432500D02*
X437500D01*
X444500Y203000D02*
Y209000D01*
X432500Y203000D02*
Y209000D01*
X439500Y197000D02*
X444500D01*
X432500D02*
X437500D01*
X439500Y203000D02*
X444500D01*
X432500D02*
X437500D01*
X444500Y197000D02*
Y203000D01*
X432500Y197000D02*
Y203000D01*
X523000Y208000D02*
Y214000D01*
X535000Y208000D02*
Y214000D01*
X523000D02*
X528000D01*
X530000D02*
X535000D01*
X523000Y208000D02*
X528000D01*
X530000D02*
X535000D01*
X523000Y253000D02*
Y259000D01*
X535000Y253000D02*
Y259000D01*
X523000D02*
X528000D01*
X530000D02*
X535000D01*
X523000Y253000D02*
X528000D01*
X530000D02*
X535000D01*
X530000Y299000D02*
X535000D01*
X523000D02*
X528000D01*
X530000Y305000D02*
X535000D01*
X523000D02*
X528000D01*
X535000Y299000D02*
Y305000D01*
X523000Y299000D02*
Y305000D01*
X529000Y248000D02*
Y253000D01*
Y241000D02*
Y246000D01*
X523000Y248000D02*
Y253000D01*
Y241000D02*
Y246000D01*
Y253000D02*
X529000D01*
X523000Y241000D02*
X529000D01*
Y294000D02*
Y299000D01*
Y287000D02*
Y292000D01*
X523000Y294000D02*
Y299000D01*
Y287000D02*
Y292000D01*
Y299000D02*
X529000D01*
X523000Y287000D02*
X529000D01*
Y203000D02*
Y208000D01*
Y196000D02*
Y201000D01*
X523000Y203000D02*
Y208000D01*
Y196000D02*
Y201000D01*
Y208000D02*
X529000D01*
X523000Y196000D02*
X529000D01*
X404000Y339500D02*
X413000D01*
X404000Y359500D02*
X413000D01*
X404000Y339500D02*
Y346000D01*
Y353000D02*
Y359500D01*
X413000Y339500D02*
Y346000D01*
Y353000D02*
Y359500D01*
X484500Y345000D02*
X490500D01*
X484500Y357000D02*
X490500D01*
X484500Y345000D02*
Y350000D01*
Y352000D02*
Y357000D01*
X490500Y345000D02*
Y350000D01*
Y352000D02*
Y357000D01*
X520500Y357500D02*
X522500D01*
X520500Y354000D02*
X520500Y357500D01*
X528500D02*
X530500D01*
X530500Y354000D01*
X524500Y351500D02*
X526500D01*
X465500Y338500D02*
X470500D01*
X458500D02*
X463500D01*
X465500Y344500D02*
X470500D01*
X458500D02*
X463500D01*
X470500Y338500D02*
Y344500D01*
X458500Y338500D02*
Y344500D01*
Y357500D02*
Y363500D01*
X470500Y357500D02*
Y363500D01*
X458500D02*
X463500D01*
X465500D02*
X470500D01*
X458500Y357500D02*
X463500D01*
X465500D02*
X470500D01*
X539000Y335000D02*
Y348000D01*
X519000Y335000D02*
Y348000D01*
X532000Y335000D02*
X539000Y335000D01*
X519000D02*
X526000Y335000D01*
X532000Y348000D02*
X539000Y348000D01*
X519000D02*
X526000Y348000D01*
X515000Y211000D02*
Y217000D01*
X503000Y211000D02*
Y217000D01*
X510000Y211000D02*
X515000D01*
X503000D02*
X508000D01*
X510000Y217000D02*
X515000D01*
X503000D02*
X508000D01*
X483500Y197000D02*
Y203000D01*
X471500Y197000D02*
Y203000D01*
X478500Y197000D02*
X483500D01*
X471500D02*
X476500D01*
X478500Y203000D02*
X483500D01*
X471500D02*
X476500D01*
X483500Y191000D02*
Y197000D01*
X471500Y191000D02*
Y197000D01*
X478500Y191000D02*
X483500D01*
X471500D02*
X476500D01*
X478500Y197000D02*
X483500D01*
X471500D02*
X476500D01*
X471500Y185000D02*
Y191000D01*
X483500Y185000D02*
Y191000D01*
X471500D02*
X476500D01*
X478500D02*
X483500D01*
X471500Y185000D02*
X476500D01*
X478500D02*
X483500D01*
X404500Y383000D02*
X410500D01*
X404500Y371000D02*
X410500D01*
Y378000D02*
Y383000D01*
Y371000D02*
Y376000D01*
X404500Y378000D02*
Y383000D01*
Y371000D02*
Y376000D01*
X390500Y383000D02*
X396500D01*
X390500Y371000D02*
X396500D01*
Y378000D02*
Y383000D01*
Y371000D02*
Y376000D01*
X390500Y378000D02*
Y383000D01*
Y371000D02*
Y376000D01*
X397000Y353000D02*
Y359500D01*
Y339500D02*
Y346000D01*
X388000Y353000D02*
Y359500D01*
Y339500D02*
Y346000D01*
Y359500D02*
X397000D01*
X388000Y339500D02*
X397000D01*
X478133Y239815D02*
Y238873D01*
X479076Y237930D01*
X480018D01*
X480490Y238402D01*
Y239344D01*
X479547Y240287D01*
Y241229D01*
X480018Y241700D01*
X480961D01*
X481903Y240758D01*
Y239815D01*
X476720Y240287D02*
X474835Y242172D01*
X475777Y241229D01*
X478605Y244057D01*
X476720Y245942D02*
X473892Y243114D01*
Y244999D01*
X472007Y244999D01*
X474835Y247827D01*
X471536Y246413D02*
X470593D01*
X469651Y247355D01*
Y248298D01*
X470122Y248769D01*
X471065D01*
X471536Y248298D01*
X471065Y248769D01*
Y249712D01*
X471536Y250183D01*
X472478D01*
X473421Y249240D01*
Y248298D01*
X469179Y253482D02*
X471065Y251597D01*
X467295D01*
X466823Y251125D01*
Y250183D01*
X467766Y249240D01*
X468708D01*
X482413Y244095D02*
X484298Y242210D01*
X485711Y243623D01*
X484769Y244566D01*
X485711Y243623D01*
X487125Y245037D01*
X481942Y245509D02*
X480999D01*
X480056Y246451D01*
Y247393D01*
X481942Y249278D01*
X482884D01*
X483826Y248336D01*
Y247393D01*
X481942Y245509D01*
X480056Y252106D02*
X477229Y249278D01*
X480056Y249279D01*
X478171Y251164D01*
X476758Y255405D02*
X478643Y253520D01*
X474873D01*
X474402Y253049D01*
Y252106D01*
X475344Y251164D01*
X476286D01*
X487635Y249317D02*
Y248374D01*
X488577Y247432D01*
X489520D01*
X491405Y249317D01*
Y250259D01*
X490462Y251202D01*
X489520D01*
X484336Y251673D02*
X485750Y251202D01*
X487635Y251202D01*
X488577Y252144D01*
Y253087D01*
X487635Y254029D01*
X486692D01*
X486221Y253558D01*
Y252615D01*
X487635Y251202D01*
D13*
X444500Y183500D02*
X445500D01*
X475760Y234573D02*
X482079D01*
X461576Y248756D02*
X475760Y234573D01*
X461576Y248756D02*
X478919Y266100D01*
X496263Y248756D01*
X482079Y234573D02*
X496263Y248756D01*
D14*
X534469Y198480D02*
Y205173D01*
X530532Y198480D02*
X534469D01*
X530532D02*
Y205173D01*
X534469D01*
Y243480D02*
Y250173D01*
X530532Y243480D02*
X534469D01*
X530532D02*
Y250173D01*
X534469D01*
X530532Y296173D02*
X534469D01*
X530532Y289480D02*
Y296173D01*
Y289480D02*
X534469D01*
Y296173D01*
D15*
X414165Y151831D02*
X412999Y152998D01*
X410666D01*
X409500Y151831D01*
Y147166D01*
X410666Y146000D01*
X412999D01*
X414165Y147166D01*
Y149499D01*
X411833D01*
X421163Y152998D02*
X416498D01*
Y146000D01*
X421163D01*
X416498Y149499D02*
X418830D01*
X423495Y146000D02*
Y152998D01*
X428161Y146000D01*
Y152998D01*
X435158D02*
X430493D01*
Y146000D01*
X435158D01*
X430493Y149499D02*
X432826D01*
X437491Y146000D02*
Y152998D01*
X440990D01*
X442156Y151831D01*
Y149499D01*
X440990Y148333D01*
X437491D01*
X439823D02*
X442156Y146000D01*
X444489D02*
Y150665D01*
X446821Y152998D01*
X449154Y150665D01*
Y146000D01*
Y149499D01*
X444489D01*
X451486Y152998D02*
Y146000D01*
X456152D01*
X470147Y151831D02*
X468981Y152998D01*
X466648D01*
X465482Y151831D01*
Y150665D01*
X466648Y149499D01*
X468981D01*
X470147Y148333D01*
Y147166D01*
X468981Y146000D01*
X466648D01*
X465482Y147166D01*
X477145Y152998D02*
X472480D01*
Y146000D01*
X477145D01*
X472480Y149499D02*
X474812D01*
X479477Y146000D02*
Y152998D01*
X484143Y146000D01*
Y152998D01*
X491140Y151831D02*
X489974Y152998D01*
X487641D01*
X486475Y151831D01*
Y150665D01*
X487641Y149499D01*
X489974D01*
X491140Y148333D01*
Y147166D01*
X489974Y146000D01*
X487641D01*
X486475Y147166D01*
X496972Y152998D02*
X494639D01*
X493473Y151831D01*
Y147166D01*
X494639Y146000D01*
X496972D01*
X498138Y147166D01*
Y151831D01*
X496972Y152998D01*
X500471Y146000D02*
Y152998D01*
X503969D01*
X505136Y151831D01*
Y149499D01*
X503969Y148333D01*
X500471D01*
X502803D02*
X505136Y146000D01*
X514466Y152998D02*
Y146000D01*
X517965D01*
X519131Y147166D01*
Y148333D01*
X517965Y149499D01*
X514466D01*
X517965D01*
X519131Y150665D01*
Y151831D01*
X517965Y152998D01*
X514466D01*
X524963D02*
X522630D01*
X521464Y151831D01*
Y147166D01*
X522630Y146000D01*
X524963D01*
X526129Y147166D01*
Y151831D01*
X524963Y152998D01*
X528462Y146000D02*
Y150665D01*
X530794Y152998D01*
X533127Y150665D01*
Y146000D01*
Y149499D01*
X528462D01*
X535459Y146000D02*
Y152998D01*
X538958D01*
X540125Y151831D01*
Y149499D01*
X538958Y148333D01*
X535459D01*
X537792D02*
X540125Y146000D01*
X542457Y152998D02*
Y146000D01*
X545956D01*
X547122Y147166D01*
Y151831D01*
X545956Y152998D01*
X542457D01*
M02*
