G04*
G04 #@! TF.GenerationSoftware,Altium Limited,Altium Designer,20.1.14 (287)*
G04*
G04 Layer_Color=8388736*
%FSLAX25Y25*%
%MOIN*%
G70*
G04*
G04 #@! TF.SameCoordinates,9EA74FF0-E2A0-47AC-9F38-8029312ED962*
G04*
G04*
G04 #@! TF.FilePolarity,Negative*
G04*
G01*
G75*
%ADD16R,0.03800X0.04800*%
%ADD17R,0.05100X0.05600*%
%ADD18R,0.04300X0.04300*%
G04:AMPARAMS|DCode=19|XSize=19.81mil|YSize=55.24mil|CornerRadius=0mil|HoleSize=0mil|Usage=FLASHONLY|Rotation=135.000|XOffset=0mil|YOffset=0mil|HoleType=Round|Shape=Rectangle|*
%AMROTATEDRECTD19*
4,1,4,0.02654,0.01253,-0.01253,-0.02654,-0.02654,-0.01253,0.01253,0.02654,0.02654,0.01253,0.0*
%
%ADD19ROTATEDRECTD19*%

G04:AMPARAMS|DCode=20|XSize=19.81mil|YSize=55.24mil|CornerRadius=0mil|HoleSize=0mil|Usage=FLASHONLY|Rotation=225.000|XOffset=0mil|YOffset=0mil|HoleType=Round|Shape=Rectangle|*
%AMROTATEDRECTD20*
4,1,4,-0.01253,0.02654,0.02654,-0.01253,0.01253,-0.02654,-0.02654,0.01253,-0.01253,0.02654,0.0*
%
%ADD20ROTATEDRECTD20*%

%ADD21C,0.11811*%
%ADD22R,0.04800X0.03800*%
%ADD23R,0.02375X0.02080*%
%ADD24R,0.07099X0.12611*%
%ADD25R,0.23635X0.25210*%
%ADD26R,0.07900X0.05500*%
%ADD27R,0.07887X0.23241*%
%ADD28C,0.05300*%
%ADD29R,0.06902X0.03162*%
%ADD30R,0.03950X0.04343*%
%ADD31R,0.05918X0.11824*%
%ADD32R,0.04300X0.07800*%
%ADD33C,0.08800*%
%ADD34C,0.00800*%
%ADD35C,0.20472*%
%ADD36C,0.04800*%
%ADD37C,0.13811*%
%ADD38C,0.07800*%
D16*
X441624Y194000D02*
D03*
X435376D02*
D03*
X450376Y182000D02*
D03*
X456624D02*
D03*
X441624Y188000D02*
D03*
X435376D02*
D03*
Y206000D02*
D03*
X441624D02*
D03*
X435376Y200000D02*
D03*
X441624D02*
D03*
X532124Y211000D02*
D03*
X525876D02*
D03*
X532124Y256000D02*
D03*
X525876D02*
D03*
Y302000D02*
D03*
X532124D02*
D03*
X461376Y341500D02*
D03*
X467624D02*
D03*
Y360500D02*
D03*
X461376D02*
D03*
X505876Y214000D02*
D03*
X512124D02*
D03*
X474376Y200000D02*
D03*
X480624D02*
D03*
X474376Y194000D02*
D03*
X480624D02*
D03*
Y188000D02*
D03*
X474376D02*
D03*
D17*
X447866Y196240D02*
D03*
X456134D02*
D03*
X447866Y188760D02*
D03*
X456134D02*
D03*
D18*
X441500Y181500D02*
D03*
X435500D02*
D03*
X466000Y354000D02*
D03*
X460000D02*
D03*
X466000Y348500D02*
D03*
X460000D02*
D03*
X480500Y206500D02*
D03*
X474500D02*
D03*
D19*
X474744Y229269D02*
D03*
X473352Y230661D02*
D03*
X471960Y232053D02*
D03*
X470568Y233445D02*
D03*
X469176Y234837D02*
D03*
X467784Y236229D02*
D03*
X466392Y237621D02*
D03*
X465000Y239013D02*
D03*
X463608Y240405D02*
D03*
X462216Y241797D02*
D03*
X460824Y243189D02*
D03*
X459432Y244581D02*
D03*
X483095Y268244D02*
D03*
X484487Y266852D02*
D03*
X485879Y265460D02*
D03*
X487271Y264068D02*
D03*
X488663Y262676D02*
D03*
X490055Y261284D02*
D03*
X491447Y259892D02*
D03*
X492839Y258500D02*
D03*
X494231Y257108D02*
D03*
X495623Y255716D02*
D03*
X497015Y254324D02*
D03*
X498407Y252932D02*
D03*
D20*
X459432D02*
D03*
X460824Y254324D02*
D03*
X462216Y255716D02*
D03*
X463608Y257108D02*
D03*
X465000Y258500D02*
D03*
X466392Y259892D02*
D03*
X467784Y261284D02*
D03*
X469176Y262676D02*
D03*
X470568Y264068D02*
D03*
X471960Y265460D02*
D03*
X473352Y266852D02*
D03*
X474744Y268244D02*
D03*
X498407Y244581D02*
D03*
X497015Y243189D02*
D03*
X495623Y241797D02*
D03*
X494231Y240405D02*
D03*
X492839Y239013D02*
D03*
X491447Y237621D02*
D03*
X490055Y236229D02*
D03*
X488663Y234837D02*
D03*
X487271Y233445D02*
D03*
X485879Y232053D02*
D03*
X484487Y230661D02*
D03*
X483095Y229269D02*
D03*
D21*
X575000Y151500D02*
D03*
Y387000D02*
D03*
X385000Y151000D02*
D03*
D22*
X526000Y243876D02*
D03*
Y250124D02*
D03*
Y289876D02*
D03*
Y296124D02*
D03*
Y198876D02*
D03*
Y205124D02*
D03*
X487500Y354124D02*
D03*
Y347876D02*
D03*
X407500Y373876D02*
D03*
Y380124D02*
D03*
X393500Y373876D02*
D03*
Y380124D02*
D03*
D23*
X532500Y200055D02*
D03*
Y203500D02*
D03*
Y245055D02*
D03*
Y248500D02*
D03*
Y294500D02*
D03*
Y291055D02*
D03*
D24*
X380000Y371500D02*
D03*
X362008D02*
D03*
X439992D02*
D03*
X422000D02*
D03*
D25*
X371004Y343232D02*
D03*
X430996D02*
D03*
D26*
X408500Y356108D02*
D03*
Y342892D02*
D03*
X392500D02*
D03*
Y356108D02*
D03*
D27*
X488500Y198000D02*
D03*
X510000D02*
D03*
D28*
X524500Y372000D02*
D03*
X484500D02*
D03*
X544500D02*
D03*
X504500D02*
D03*
D29*
X515132Y343493D02*
D03*
Y348493D02*
D03*
Y353493D02*
D03*
Y358493D02*
D03*
X493872Y343493D02*
D03*
Y348493D02*
D03*
Y353493D02*
D03*
Y358493D02*
D03*
D30*
X529240Y350563D02*
D03*
X521760D02*
D03*
X525500Y358437D02*
D03*
D31*
X522601Y341500D02*
D03*
X535399D02*
D03*
D32*
X463232Y179500D02*
D03*
X479768D02*
D03*
D33*
X387500Y311811D02*
D03*
X399319D02*
D03*
Y300000D02*
D03*
Y288189D02*
D03*
X387500Y300000D02*
D03*
X387500Y288189D02*
D03*
X387500Y230189D02*
D03*
X387500Y242000D02*
D03*
X399319Y230189D02*
D03*
Y242000D02*
D03*
Y253811D02*
D03*
X387500Y253811D02*
D03*
X399319Y194905D02*
D03*
Y183095D02*
D03*
X387500Y194905D02*
D03*
X387500Y183095D02*
D03*
X560181Y338094D02*
D03*
Y349905D02*
D03*
X572000Y338094D02*
D03*
Y349905D02*
D03*
X560181Y290094D02*
D03*
Y301905D02*
D03*
X572000Y290094D02*
D03*
X572000Y301905D02*
D03*
X560181Y244094D02*
D03*
Y255906D02*
D03*
X572000Y244094D02*
D03*
Y255906D02*
D03*
X560181Y198094D02*
D03*
Y209906D02*
D03*
X572000Y198094D02*
D03*
Y209906D02*
D03*
D34*
X370500Y300000D02*
D03*
Y242000D02*
D03*
Y189000D02*
D03*
X589000Y250000D02*
D03*
Y204000D02*
D03*
D35*
X597860Y387610D02*
D03*
Y151390D02*
D03*
X361640D02*
D03*
D36*
X437500Y242000D02*
D03*
X432500D02*
D03*
Y247000D02*
D03*
X437500D02*
D03*
Y252000D02*
D03*
X432500D02*
D03*
Y237000D02*
D03*
X437500D02*
D03*
Y232000D02*
D03*
X432500D02*
D03*
D37*
X589000Y344000D02*
D03*
Y296000D02*
D03*
D38*
X456000Y319500D02*
D03*
X476000D02*
D03*
X466000D02*
D03*
X474000Y333000D02*
D03*
X464000D02*
D03*
X485000D02*
D03*
X495000D02*
D03*
X544500Y350500D02*
D03*
Y340500D02*
D03*
M02*
