G04*
G04 #@! TF.GenerationSoftware,Altium Limited,Altium Designer,20.1.14 (287)*
G04*
G04 Layer_Color=16711935*
%FSLAX25Y25*%
%MOIN*%
G70*
G04*
G04 #@! TF.SameCoordinates,9EA74FF0-E2A0-47AC-9F38-8029312ED962*
G04*
G04*
G04 #@! TF.FilePolarity,Negative*
G04*
G01*
G75*
%ADD21C,0.11811*%
%ADD22R,0.04800X0.03800*%
%ADD33C,0.08800*%
%ADD34C,0.00800*%
%ADD35C,0.20472*%
%ADD36C,0.04800*%
%ADD37C,0.13811*%
%ADD38C,0.07800*%
%ADD57C,0.08000*%
D21*
X575000Y151500D02*
D03*
Y387000D02*
D03*
X385000Y151000D02*
D03*
D22*
X485500Y258124D02*
D03*
Y251876D02*
D03*
Y239876D02*
D03*
Y246124D02*
D03*
X479500Y258124D02*
D03*
Y251876D02*
D03*
X473500Y258124D02*
D03*
Y251876D02*
D03*
X479500Y239876D02*
D03*
Y246124D02*
D03*
X473500Y239876D02*
D03*
Y246124D02*
D03*
D33*
X387500Y311811D02*
D03*
X399319D02*
D03*
Y300000D02*
D03*
Y288189D02*
D03*
X387500Y300000D02*
D03*
X387500Y288189D02*
D03*
X387500Y230189D02*
D03*
X387500Y242000D02*
D03*
X399319Y230189D02*
D03*
Y242000D02*
D03*
Y253811D02*
D03*
X387500Y253811D02*
D03*
X399319Y194905D02*
D03*
Y183095D02*
D03*
X387500Y194905D02*
D03*
X387500Y183095D02*
D03*
X560181Y338094D02*
D03*
Y349905D02*
D03*
X572000Y338094D02*
D03*
Y349905D02*
D03*
X560181Y290094D02*
D03*
Y301905D02*
D03*
X572000Y290094D02*
D03*
X572000Y301905D02*
D03*
D34*
X370500Y300000D02*
D03*
Y242000D02*
D03*
Y189000D02*
D03*
X589000Y250000D02*
D03*
Y204000D02*
D03*
D35*
X597860Y387610D02*
D03*
Y151390D02*
D03*
X361640D02*
D03*
D36*
X437500Y242000D02*
D03*
X432500D02*
D03*
Y247000D02*
D03*
X437500D02*
D03*
Y252000D02*
D03*
X432500D02*
D03*
Y237000D02*
D03*
X437500D02*
D03*
Y232000D02*
D03*
X432500D02*
D03*
D37*
X589000Y344000D02*
D03*
Y296000D02*
D03*
D38*
X456000Y319500D02*
D03*
X476000D02*
D03*
X466000D02*
D03*
X474000Y333000D02*
D03*
X464000D02*
D03*
X485000D02*
D03*
X495000D02*
D03*
X544500Y350500D02*
D03*
Y340500D02*
D03*
D57*
X560181Y244094D02*
D03*
Y255906D02*
D03*
X572000Y244094D02*
D03*
Y255906D02*
D03*
X560181Y198094D02*
D03*
Y209906D02*
D03*
X572000Y198094D02*
D03*
Y209906D02*
D03*
M02*
