G04*
G04 #@! TF.GenerationSoftware,Altium Limited,Altium Designer,20.1.14 (287)*
G04*
G04 Layer_Color=32896*
%FSLAX25Y25*%
%MOIN*%
G70*
G04*
G04 #@! TF.SameCoordinates,9EA74FF0-E2A0-47AC-9F38-8029312ED962*
G04*
G04*
G04 #@! TF.FilePolarity,Positive*
G04*
G01*
G75*
%ADD11C,0.01000*%
%ADD12C,0.00800*%
%ADD61C,0.02500*%
G36*
X459723Y194351D02*
X459898D01*
Y194176D01*
Y194001D01*
Y193826D01*
X460073D01*
Y193651D01*
Y193476D01*
Y193301D01*
X460248D01*
Y193126D01*
Y192951D01*
X460423D01*
Y192776D01*
Y192601D01*
Y192426D01*
Y192251D01*
X460598D01*
Y192076D01*
X460423D01*
Y191901D01*
Y191726D01*
X460773D01*
Y191551D01*
Y191376D01*
Y191201D01*
Y191026D01*
Y190851D01*
X460948D01*
Y190676D01*
Y190501D01*
Y190326D01*
X461123D01*
Y190151D01*
Y189976D01*
Y189801D01*
X461298D01*
Y189626D01*
Y189451D01*
Y189276D01*
X461473D01*
Y189101D01*
Y188926D01*
X461648D01*
Y188751D01*
Y188576D01*
Y188401D01*
X461823D01*
Y188226D01*
Y188051D01*
Y187876D01*
X461998D01*
Y187701D01*
Y187526D01*
X462173D01*
Y187351D01*
Y187176D01*
Y187001D01*
X462348D01*
Y186826D01*
Y186651D01*
Y186476D01*
Y186301D01*
X462523D01*
Y186126D01*
Y185951D01*
Y185776D01*
Y185601D01*
Y185426D01*
X462873D01*
Y185251D01*
X462698D01*
Y185076D01*
Y184901D01*
X462873D01*
Y184726D01*
Y184551D01*
Y184376D01*
X463048D01*
Y184201D01*
Y184026D01*
X463223D01*
Y183851D01*
X452548D01*
Y184026D01*
Y184201D01*
Y184376D01*
Y184551D01*
Y184726D01*
X452373D01*
Y184901D01*
Y185076D01*
X452198D01*
Y185251D01*
Y185426D01*
Y185601D01*
X452023D01*
Y185776D01*
Y185951D01*
Y186126D01*
Y186301D01*
X451848D01*
Y186476D01*
Y186651D01*
X451673D01*
Y186826D01*
Y187001D01*
Y187176D01*
X451498D01*
Y187351D01*
Y187526D01*
Y187701D01*
X451323D01*
Y187876D01*
Y188051D01*
Y188226D01*
X451148D01*
Y188401D01*
Y188576D01*
X450973D01*
Y188751D01*
Y188926D01*
Y189101D01*
X450798D01*
Y189276D01*
Y189451D01*
Y189626D01*
Y189801D01*
Y189976D01*
X450623D01*
Y190151D01*
Y190326D01*
Y190501D01*
X450448D01*
Y190676D01*
Y190851D01*
Y191026D01*
X450273D01*
Y191201D01*
Y191376D01*
Y191551D01*
X450098D01*
Y191726D01*
Y191901D01*
X449923D01*
Y192076D01*
Y192251D01*
Y192426D01*
Y192601D01*
X449748D01*
Y192776D01*
Y192951D01*
Y193126D01*
X449573D01*
Y193301D01*
Y193476D01*
Y193651D01*
X449398D01*
Y193826D01*
Y194001D01*
X449223D01*
Y194176D01*
Y194351D01*
Y194526D01*
X459723D01*
Y194351D01*
D02*
G37*
G36*
X438548D02*
Y194176D01*
X438723D01*
Y194001D01*
Y193826D01*
Y193651D01*
X438898D01*
Y193476D01*
Y193301D01*
Y193126D01*
X439073D01*
Y192951D01*
Y192776D01*
X439248D01*
Y192601D01*
Y192426D01*
Y192251D01*
X439423D01*
Y192076D01*
Y191901D01*
Y191726D01*
Y191551D01*
X439598D01*
Y191376D01*
Y191201D01*
Y191026D01*
X439773D01*
Y190851D01*
Y190676D01*
X439948D01*
Y190501D01*
Y190326D01*
Y190151D01*
Y189976D01*
Y189801D01*
X440298D01*
Y189626D01*
Y189451D01*
X440123D01*
Y189276D01*
X440298D01*
Y189101D01*
Y188926D01*
Y188751D01*
X440473D01*
Y188576D01*
Y188401D01*
Y188226D01*
X440648D01*
Y188051D01*
Y187876D01*
Y187701D01*
X440823D01*
Y187526D01*
Y187351D01*
X440998D01*
Y187176D01*
Y187001D01*
Y186826D01*
X441173D01*
Y186651D01*
Y186476D01*
Y186301D01*
X441348D01*
Y186126D01*
Y185951D01*
X441523D01*
Y185776D01*
Y185601D01*
Y185426D01*
Y185251D01*
Y185076D01*
Y184901D01*
Y184726D01*
X441873D01*
Y184551D01*
X441698D01*
Y184376D01*
X441873D01*
Y184201D01*
Y184026D01*
Y183851D01*
X452373D01*
Y183676D01*
Y183501D01*
X452548D01*
Y183326D01*
Y183151D01*
Y182976D01*
X452723D01*
Y182801D01*
Y182626D01*
X452898D01*
Y182451D01*
Y182276D01*
Y182101D01*
X453073D01*
Y181926D01*
Y181751D01*
Y181576D01*
X453248D01*
Y181401D01*
Y181226D01*
Y181051D01*
X453423D01*
Y180876D01*
Y180701D01*
Y180526D01*
X453598D01*
Y180351D01*
Y180176D01*
Y180001D01*
X453773D01*
Y179826D01*
Y179651D01*
Y179476D01*
Y179301D01*
Y179126D01*
X453948D01*
Y178951D01*
X454123D01*
Y178776D01*
X453948D01*
Y178601D01*
X454123D01*
Y178426D01*
Y178251D01*
Y178076D01*
X454298D01*
Y177901D01*
Y177726D01*
Y177551D01*
X454473D01*
Y177376D01*
Y177201D01*
X454648D01*
Y177026D01*
Y176851D01*
Y176676D01*
X454823D01*
Y176501D01*
Y176326D01*
Y176151D01*
X454998D01*
Y175976D01*
Y175801D01*
Y175626D01*
X455173D01*
Y175451D01*
Y175276D01*
X455348D01*
Y175101D01*
Y174926D01*
Y174751D01*
Y174575D01*
Y174400D01*
Y174225D01*
X455698D01*
Y174050D01*
X455523D01*
Y173875D01*
Y173700D01*
X455698D01*
Y173526D01*
Y173351D01*
X445198D01*
Y173526D01*
Y173700D01*
Y173875D01*
Y174050D01*
X445023D01*
Y174225D01*
Y174400D01*
X444848D01*
Y174575D01*
Y174751D01*
Y174926D01*
X444673D01*
Y175101D01*
Y175276D01*
Y175451D01*
X444498D01*
Y175626D01*
Y175801D01*
Y175976D01*
X444323D01*
Y176151D01*
Y176326D01*
Y176501D01*
X444148D01*
Y176676D01*
Y176851D01*
X443973D01*
Y177026D01*
X444148D01*
Y177201D01*
Y177376D01*
X443798D01*
Y177551D01*
Y177726D01*
Y177901D01*
Y178076D01*
Y178251D01*
X443623D01*
Y178426D01*
Y178601D01*
Y178776D01*
X443448D01*
Y178951D01*
Y179126D01*
Y179301D01*
X443273D01*
Y179476D01*
Y179651D01*
Y179826D01*
X443098D01*
Y180001D01*
Y180176D01*
Y180351D01*
X442923D01*
Y180526D01*
Y180701D01*
Y180876D01*
X442748D01*
Y181051D01*
Y181226D01*
Y181401D01*
X442573D01*
Y181576D01*
Y181751D01*
X442398D01*
Y181926D01*
Y182101D01*
Y182276D01*
X442223D01*
Y182451D01*
Y182626D01*
Y182801D01*
X442048D01*
Y182976D01*
Y183151D01*
Y183326D01*
Y183501D01*
Y183676D01*
X441698D01*
Y183851D01*
X431548D01*
Y183676D01*
Y183501D01*
Y183326D01*
Y183151D01*
Y182976D01*
X431723D01*
Y182801D01*
Y182626D01*
X431898D01*
Y182451D01*
Y182276D01*
Y182101D01*
X432073D01*
Y181926D01*
Y181751D01*
Y181576D01*
X432248D01*
Y181401D01*
Y181226D01*
Y181051D01*
X432423D01*
Y180876D01*
Y180701D01*
Y180526D01*
X432598D01*
Y180351D01*
Y180176D01*
X432773D01*
Y180001D01*
Y179826D01*
Y179651D01*
X432948D01*
Y179476D01*
X432773D01*
Y179301D01*
X433123D01*
Y179126D01*
Y178951D01*
Y178776D01*
Y178601D01*
Y178426D01*
Y178251D01*
Y178076D01*
X433298D01*
Y177901D01*
Y177726D01*
Y177551D01*
X433473D01*
Y177376D01*
Y177201D01*
X433648D01*
Y177026D01*
Y176851D01*
Y176676D01*
X433823D01*
Y176501D01*
Y176326D01*
Y176151D01*
X433998D01*
Y175976D01*
Y175801D01*
Y175626D01*
X434173D01*
Y175451D01*
Y175276D01*
X434348D01*
Y175101D01*
Y174926D01*
Y174751D01*
X434523D01*
Y174575D01*
Y174400D01*
Y174225D01*
X434698D01*
Y174050D01*
Y173875D01*
X434873D01*
Y173700D01*
Y173526D01*
Y173351D01*
X445198D01*
Y173176D01*
Y173001D01*
Y172826D01*
X445373D01*
Y172651D01*
Y172476D01*
Y172301D01*
X445548D01*
Y172125D01*
Y171950D01*
X445723D01*
Y171775D01*
Y171600D01*
Y171425D01*
X445898D01*
Y171250D01*
Y171075D01*
Y170900D01*
X446073D01*
Y170726D01*
Y170551D01*
X446248D01*
Y170376D01*
Y170201D01*
Y170026D01*
X446423D01*
Y169851D01*
Y169676D01*
Y169501D01*
X446598D01*
Y169325D01*
Y169150D01*
Y168975D01*
X446773D01*
Y168800D01*
X446598D01*
Y168625D01*
X446773D01*
Y168450D01*
X446948D01*
Y168275D01*
Y168100D01*
Y167925D01*
Y167750D01*
Y167575D01*
X447123D01*
Y167400D01*
Y167225D01*
Y167050D01*
Y166875D01*
X447298D01*
Y166700D01*
Y166525D01*
X447473D01*
Y166350D01*
Y166175D01*
Y166000D01*
X447648D01*
Y165825D01*
Y165650D01*
Y165475D01*
X447823D01*
Y165300D01*
Y165125D01*
X447998D01*
Y164950D01*
Y164775D01*
Y164600D01*
X448173D01*
Y164425D01*
Y164250D01*
Y164075D01*
X448348D01*
Y163900D01*
Y163725D01*
Y163550D01*
X448523D01*
Y163375D01*
Y163200D01*
X448698D01*
Y163025D01*
Y162850D01*
Y162675D01*
X438198D01*
Y162850D01*
X438023D01*
Y163025D01*
Y163200D01*
Y163375D01*
X437848D01*
Y163550D01*
Y163725D01*
Y163900D01*
X437673D01*
Y164075D01*
Y164250D01*
X437498D01*
Y164425D01*
Y164600D01*
Y164775D01*
X437323D01*
Y164950D01*
Y165125D01*
Y165300D01*
X437148D01*
Y165475D01*
Y165650D01*
X436973D01*
Y165825D01*
Y166000D01*
Y166175D01*
Y166350D01*
Y166525D01*
Y166700D01*
X436623D01*
Y166875D01*
X436798D01*
Y167050D01*
Y167225D01*
X436623D01*
Y167400D01*
Y167575D01*
Y167750D01*
X436448D01*
Y167925D01*
Y168100D01*
Y168275D01*
X436273D01*
Y168450D01*
Y168625D01*
Y168800D01*
X436098D01*
Y168975D01*
Y169150D01*
Y169325D01*
X435923D01*
Y169501D01*
Y169676D01*
X435748D01*
Y169851D01*
Y170026D01*
Y170201D01*
X435573D01*
Y170376D01*
Y170551D01*
Y170726D01*
X435398D01*
Y170900D01*
Y171075D01*
Y171250D01*
Y171425D01*
Y171600D01*
X435048D01*
Y171775D01*
X435223D01*
Y171950D01*
Y172125D01*
X435048D01*
Y172301D01*
Y172476D01*
Y172651D01*
X434873D01*
Y172826D01*
Y173001D01*
X434698D01*
Y173176D01*
Y173351D01*
X424372D01*
Y173176D01*
Y173001D01*
Y172826D01*
Y172651D01*
Y172476D01*
X424723D01*
Y172301D01*
X424547D01*
Y172125D01*
Y171950D01*
X424723D01*
Y171775D01*
Y171600D01*
Y171425D01*
X424898D01*
Y171250D01*
Y171075D01*
Y170900D01*
X425073D01*
Y170726D01*
Y170551D01*
X425248D01*
Y170376D01*
Y170201D01*
Y170026D01*
X425423D01*
Y169851D01*
Y169676D01*
Y169501D01*
X425598D01*
Y169325D01*
Y169150D01*
Y168975D01*
X425773D01*
Y168800D01*
Y168625D01*
Y168450D01*
X425948D01*
Y168275D01*
Y168100D01*
X426123D01*
Y167925D01*
Y167750D01*
Y167575D01*
X426298D01*
Y167400D01*
X426123D01*
Y167225D01*
Y167050D01*
X426473D01*
Y166875D01*
X426298D01*
Y166700D01*
X426473D01*
Y166525D01*
Y166350D01*
Y166175D01*
X426648D01*
Y166000D01*
Y165825D01*
Y165650D01*
Y165475D01*
X426823D01*
Y165300D01*
Y165125D01*
X426998D01*
Y164950D01*
Y164775D01*
Y164600D01*
X427173D01*
Y164425D01*
Y164250D01*
Y164075D01*
X427348D01*
Y163900D01*
Y163725D01*
Y163550D01*
X427523D01*
Y163375D01*
Y163200D01*
X427698D01*
Y163025D01*
Y162850D01*
Y162675D01*
X417197D01*
Y162850D01*
X417022D01*
Y163025D01*
Y163200D01*
Y163375D01*
X416847D01*
Y163550D01*
Y163725D01*
Y163900D01*
X416672D01*
Y164075D01*
Y164250D01*
X416497D01*
Y164425D01*
Y164600D01*
Y164775D01*
X416322D01*
Y164950D01*
X416497D01*
Y165125D01*
Y165300D01*
X416147D01*
Y165475D01*
Y165650D01*
Y165825D01*
Y166000D01*
Y166175D01*
Y166350D01*
X415972D01*
Y166525D01*
Y166700D01*
Y166875D01*
X415797D01*
Y167050D01*
Y167225D01*
X415622D01*
Y167400D01*
Y167575D01*
Y167750D01*
X415447D01*
Y167925D01*
Y168100D01*
Y168275D01*
X415272D01*
Y168450D01*
Y168625D01*
Y168800D01*
X415097D01*
Y168975D01*
Y169150D01*
Y169325D01*
X414922D01*
Y169501D01*
Y169676D01*
X414747D01*
Y169851D01*
Y170026D01*
Y170201D01*
X414572D01*
Y170376D01*
X414747D01*
Y170551D01*
X414572D01*
Y170726D01*
X414397D01*
Y170900D01*
Y171075D01*
Y171250D01*
Y171425D01*
Y171600D01*
X414047D01*
Y171775D01*
X414222D01*
Y171950D01*
Y172125D01*
Y172301D01*
X414047D01*
Y172476D01*
Y172651D01*
X413872D01*
Y172826D01*
Y173001D01*
Y173176D01*
X413697D01*
Y173351D01*
X424197D01*
Y173526D01*
Y173700D01*
Y173875D01*
Y174050D01*
X424022D01*
Y174225D01*
Y174400D01*
X423847D01*
Y174575D01*
Y174751D01*
Y174926D01*
X423672D01*
Y175101D01*
Y175276D01*
Y175451D01*
X423497D01*
Y175626D01*
Y175801D01*
Y175976D01*
X423322D01*
Y176151D01*
Y176326D01*
Y176501D01*
X423147D01*
Y176676D01*
Y176851D01*
Y177026D01*
Y177201D01*
Y177376D01*
X422797D01*
Y177551D01*
X422972D01*
Y177726D01*
X422797D01*
Y177901D01*
Y178076D01*
Y178251D01*
X422622D01*
Y178426D01*
Y178601D01*
Y178776D01*
Y178951D01*
X422447D01*
Y179126D01*
Y179301D01*
Y179476D01*
X422272D01*
Y179651D01*
Y179826D01*
X422097D01*
Y180001D01*
Y180176D01*
Y180351D01*
X421922D01*
Y180526D01*
Y180701D01*
Y180876D01*
X421747D01*
Y181051D01*
Y181226D01*
Y181401D01*
X421572D01*
Y181576D01*
Y181751D01*
Y181926D01*
Y182101D01*
Y182276D01*
X421222D01*
Y182451D01*
X421397D01*
Y182626D01*
Y182801D01*
X421222D01*
Y182976D01*
Y183151D01*
X421047D01*
Y183326D01*
Y183501D01*
Y183676D01*
X420872D01*
Y183851D01*
X410197D01*
Y184026D01*
Y184201D01*
Y184376D01*
X410022D01*
Y184551D01*
Y184726D01*
Y184901D01*
X409847D01*
Y185076D01*
Y185251D01*
Y185426D01*
X409672D01*
Y185601D01*
Y185776D01*
Y185951D01*
X409497D01*
Y186126D01*
Y186301D01*
Y186476D01*
X409322D01*
Y186651D01*
Y186826D01*
Y187001D01*
Y187176D01*
Y187351D01*
X408972D01*
Y187526D01*
X409147D01*
Y187701D01*
Y187876D01*
X408972D01*
Y188051D01*
Y188226D01*
X408797D01*
Y188401D01*
Y188576D01*
Y188751D01*
X408622D01*
Y188926D01*
Y189101D01*
Y189276D01*
X408447D01*
Y189451D01*
Y189626D01*
Y189801D01*
X408272D01*
Y189976D01*
Y190151D01*
Y190326D01*
X408097D01*
Y190501D01*
Y190676D01*
X407922D01*
Y190851D01*
Y191026D01*
Y191201D01*
Y191376D01*
X407747D01*
Y191551D01*
Y191726D01*
Y191901D01*
Y192076D01*
Y192251D01*
X407397D01*
Y192426D01*
X407572D01*
Y192601D01*
Y192776D01*
X407397D01*
Y192951D01*
Y193126D01*
Y193301D01*
X407222D01*
Y193476D01*
Y193651D01*
X407047D01*
Y193826D01*
Y194001D01*
Y194176D01*
X406872D01*
Y194351D01*
Y194526D01*
X417547D01*
Y194351D01*
Y194176D01*
Y194001D01*
X417722D01*
Y193826D01*
Y193651D01*
Y193476D01*
Y193301D01*
Y193126D01*
X417897D01*
Y192951D01*
Y192776D01*
Y192601D01*
X418072D01*
Y192426D01*
Y192251D01*
Y192076D01*
X418247D01*
Y191901D01*
Y191726D01*
Y191551D01*
X418422D01*
Y191376D01*
Y191201D01*
Y191026D01*
X418598D01*
Y190851D01*
Y190676D01*
Y190501D01*
X418773D01*
Y190326D01*
Y190151D01*
Y189976D01*
X418948D01*
Y189801D01*
Y189626D01*
Y189451D01*
Y189276D01*
Y189101D01*
X419298D01*
Y188926D01*
Y188751D01*
Y188576D01*
Y188401D01*
Y188226D01*
Y188051D01*
X419473D01*
Y187876D01*
Y187701D01*
X419648D01*
Y187526D01*
Y187351D01*
Y187176D01*
X419823D01*
Y187001D01*
Y186826D01*
Y186651D01*
X419998D01*
Y186476D01*
Y186301D01*
Y186126D01*
X420173D01*
Y185951D01*
Y185776D01*
X420347D01*
Y185601D01*
Y185426D01*
Y185251D01*
X420522D01*
Y185076D01*
Y184901D01*
Y184726D01*
Y184551D01*
X420697D01*
Y184376D01*
Y184201D01*
X420872D01*
Y184026D01*
Y183851D01*
X431373D01*
Y184026D01*
Y184201D01*
Y184376D01*
Y184551D01*
X431198D01*
Y184726D01*
Y184901D01*
X431023D01*
Y185076D01*
Y185251D01*
Y185426D01*
Y185601D01*
X430848D01*
Y185776D01*
Y185951D01*
Y186126D01*
X430673D01*
Y186301D01*
Y186476D01*
X430498D01*
Y186651D01*
Y186826D01*
Y187001D01*
X430323D01*
Y187176D01*
Y187351D01*
Y187526D01*
X430148D01*
Y187701D01*
X430323D01*
Y187876D01*
Y188051D01*
X429973D01*
Y188226D01*
Y188401D01*
Y188576D01*
Y188751D01*
Y188926D01*
X429798D01*
Y189101D01*
Y189276D01*
Y189451D01*
X429623D01*
Y189626D01*
Y189801D01*
Y189976D01*
X429448D01*
Y190151D01*
Y190326D01*
X429273D01*
Y190501D01*
Y190676D01*
Y190851D01*
X429098D01*
Y191026D01*
Y191201D01*
Y191376D01*
X428923D01*
Y191551D01*
Y191726D01*
Y191901D01*
X428748D01*
Y192076D01*
Y192251D01*
Y192426D01*
X428573D01*
Y192601D01*
Y192776D01*
Y192951D01*
X428398D01*
Y193126D01*
Y193301D01*
Y193476D01*
X428223D01*
Y193651D01*
Y193826D01*
Y194001D01*
Y194176D01*
Y194351D01*
X428048D01*
Y194526D01*
X438548D01*
Y194351D01*
D02*
G37*
G36*
X512749D02*
Y194176D01*
Y194001D01*
Y193826D01*
Y193651D01*
X512924D01*
Y193476D01*
Y193301D01*
Y193126D01*
X513099D01*
Y192951D01*
Y192776D01*
X513274D01*
Y192601D01*
Y192426D01*
Y192251D01*
Y192076D01*
X513449D01*
Y191901D01*
Y191726D01*
Y191551D01*
X513624D01*
Y191376D01*
Y191201D01*
Y191026D01*
X513799D01*
Y190851D01*
Y190676D01*
X513974D01*
Y190501D01*
Y190326D01*
Y190151D01*
Y189976D01*
Y189801D01*
X514324D01*
Y189626D01*
X514149D01*
Y189451D01*
Y189276D01*
X514324D01*
Y189101D01*
Y188926D01*
Y188751D01*
X514499D01*
Y188576D01*
Y188401D01*
Y188226D01*
X514674D01*
Y188051D01*
Y187876D01*
Y187701D01*
X514849D01*
Y187526D01*
Y187351D01*
X515024D01*
Y187176D01*
Y187001D01*
Y186826D01*
X515199D01*
Y186651D01*
Y186476D01*
Y186301D01*
X515374D01*
Y186126D01*
Y185951D01*
Y185776D01*
X515549D01*
Y185601D01*
Y185426D01*
Y185251D01*
X515724D01*
Y185076D01*
Y184901D01*
Y184726D01*
X515899D01*
Y184551D01*
X515724D01*
Y184376D01*
X516074D01*
Y184201D01*
Y184026D01*
Y183851D01*
Y183676D01*
Y183501D01*
Y183326D01*
X516249D01*
Y183151D01*
Y182976D01*
Y182801D01*
X516424D01*
Y182626D01*
Y182451D01*
X516599D01*
Y182276D01*
Y182101D01*
Y181926D01*
X516774D01*
Y181751D01*
Y181576D01*
Y181401D01*
X516949D01*
Y181226D01*
Y181051D01*
Y180876D01*
X517124D01*
Y180701D01*
Y180526D01*
X517299D01*
Y180351D01*
Y180176D01*
Y180001D01*
X517474D01*
Y179826D01*
Y179651D01*
Y179476D01*
Y179301D01*
X517649D01*
Y179126D01*
Y178951D01*
X517824D01*
Y178776D01*
Y178601D01*
Y178426D01*
Y178251D01*
Y178076D01*
Y177901D01*
X518174D01*
Y177726D01*
X517999D01*
Y177551D01*
X518174D01*
Y177376D01*
Y177201D01*
Y177026D01*
X518349D01*
Y176851D01*
Y176676D01*
Y176501D01*
X518524D01*
Y176326D01*
Y176151D01*
Y175976D01*
X518699D01*
Y175801D01*
Y175626D01*
X518874D01*
Y175451D01*
Y175276D01*
Y175101D01*
X519049D01*
Y174926D01*
Y174751D01*
Y174575D01*
X519224D01*
Y174400D01*
X519049D01*
Y174225D01*
X519224D01*
Y174050D01*
X519399D01*
Y173875D01*
Y173700D01*
Y173526D01*
Y173351D01*
Y173176D01*
Y173001D01*
X519574D01*
Y172826D01*
Y172651D01*
Y172476D01*
X519749D01*
Y172301D01*
Y172125D01*
Y171950D01*
Y171775D01*
X519924D01*
Y171600D01*
Y171425D01*
Y171250D01*
Y171075D01*
Y170900D01*
Y170726D01*
X520099D01*
Y170551D01*
Y170376D01*
Y170201D01*
Y170026D01*
Y169851D01*
Y169676D01*
Y169501D01*
Y169325D01*
Y169150D01*
Y168975D01*
X519924D01*
Y168800D01*
Y168625D01*
Y168450D01*
Y168275D01*
Y168100D01*
X519749D01*
Y167925D01*
Y167750D01*
Y167575D01*
X519574D01*
Y167400D01*
Y167225D01*
X519399D01*
Y167050D01*
Y166875D01*
Y166700D01*
Y166525D01*
X519049D01*
Y166350D01*
X519224D01*
Y166175D01*
X519049D01*
Y166000D01*
Y165825D01*
X518874D01*
Y165650D01*
X518524D01*
Y165475D01*
Y165300D01*
X518349D01*
Y165125D01*
X518174D01*
Y164950D01*
Y164775D01*
X517999D01*
Y164600D01*
X517824D01*
Y164425D01*
X517474D01*
Y164250D01*
X517299D01*
Y164075D01*
X517124D01*
Y163900D01*
X516599D01*
Y163725D01*
X516424D01*
Y163550D01*
X516074D01*
Y163375D01*
X515724D01*
Y163200D01*
X515374D01*
Y163025D01*
X514849D01*
Y162850D01*
X514324D01*
Y162675D01*
X513799D01*
Y162500D01*
X513099D01*
Y162325D01*
X507849D01*
Y162500D01*
X506974D01*
Y162675D01*
X506099D01*
Y162850D01*
X505749D01*
Y163025D01*
X505224D01*
Y163200D01*
X504699D01*
Y163375D01*
X504174D01*
Y163550D01*
X503649D01*
Y163725D01*
X503474D01*
Y163900D01*
X502774D01*
Y164075D01*
X502424D01*
Y164250D01*
X502074D01*
Y164425D01*
X501899D01*
Y164600D01*
X501549D01*
Y164775D01*
X501199D01*
Y164950D01*
X501024D01*
Y165125D01*
X500674D01*
Y165300D01*
X500499D01*
Y165475D01*
X500324D01*
Y165650D01*
X499799D01*
Y165825D01*
X499624D01*
Y166000D01*
X499449D01*
Y166175D01*
X499099D01*
Y166350D01*
Y166525D01*
X498749D01*
Y166700D01*
Y166875D01*
X498399D01*
Y167050D01*
Y167225D01*
X498049D01*
Y167400D01*
X497874D01*
Y167575D01*
Y167750D01*
X497524D01*
Y167925D01*
X497349D01*
Y168100D01*
Y168275D01*
X496999D01*
Y168450D01*
Y168625D01*
X496824D01*
Y168800D01*
Y168975D01*
X496474D01*
Y169150D01*
Y169325D01*
X496299D01*
Y169501D01*
X496124D01*
Y169676D01*
X495949D01*
Y169851D01*
Y170026D01*
X495774D01*
Y170201D01*
Y170376D01*
Y170551D01*
X495599D01*
Y170726D01*
X495424D01*
Y170900D01*
Y171075D01*
X495249D01*
Y171250D01*
Y171425D01*
X495074D01*
Y171600D01*
Y171775D01*
X494899D01*
Y171950D01*
Y172125D01*
X494724D01*
Y172301D01*
X494549D01*
Y172476D01*
Y172651D01*
Y172826D01*
X494374D01*
Y173001D01*
Y173176D01*
Y173351D01*
X494199D01*
Y173526D01*
Y173700D01*
Y173875D01*
X494024D01*
Y174050D01*
Y174225D01*
Y174400D01*
Y174575D01*
Y174751D01*
X493674D01*
Y174926D01*
X493849D01*
Y175101D01*
Y175276D01*
X493674D01*
Y175451D01*
Y175626D01*
Y175801D01*
Y175976D01*
X493499D01*
Y176151D01*
Y176326D01*
X493324D01*
Y176501D01*
Y176676D01*
Y176851D01*
X493149D01*
Y177026D01*
Y177201D01*
Y177376D01*
X492974D01*
Y177551D01*
Y177726D01*
X492799D01*
Y177901D01*
Y178076D01*
Y178251D01*
X492624D01*
Y178426D01*
Y178601D01*
Y178776D01*
X492449D01*
Y178951D01*
Y179126D01*
Y179301D01*
X492274D01*
Y179476D01*
Y179651D01*
Y179826D01*
Y180001D01*
Y180176D01*
X491924D01*
Y180351D01*
X492099D01*
Y180526D01*
Y180701D01*
X491924D01*
Y180876D01*
Y181051D01*
X491749D01*
Y181226D01*
Y181401D01*
Y181576D01*
X491574D01*
Y181751D01*
Y181926D01*
Y182101D01*
Y182276D01*
X491399D01*
Y182451D01*
Y182626D01*
Y182801D01*
X491224D01*
Y182976D01*
Y183151D01*
X491049D01*
Y183326D01*
Y183501D01*
Y183676D01*
X490874D01*
Y183851D01*
Y184026D01*
Y184201D01*
X490699D01*
Y184376D01*
Y184551D01*
Y184726D01*
Y184901D01*
Y185076D01*
X490524D01*
Y185251D01*
Y185426D01*
Y185601D01*
X490349D01*
Y185776D01*
Y185951D01*
Y186126D01*
X490174D01*
Y186301D01*
Y186476D01*
X489999D01*
Y186651D01*
Y186826D01*
Y187001D01*
X489824D01*
Y187176D01*
Y187351D01*
Y187526D01*
X489649D01*
Y187701D01*
Y187876D01*
Y188051D01*
X489474D01*
Y188226D01*
Y188401D01*
Y188576D01*
X489299D01*
Y188751D01*
Y188926D01*
Y189101D01*
X489124D01*
Y189276D01*
Y189451D01*
Y189626D01*
X488949D01*
Y189801D01*
Y189976D01*
Y190151D01*
Y190326D01*
Y190501D01*
X488599D01*
Y190676D01*
Y190851D01*
Y191026D01*
Y191201D01*
Y191376D01*
Y191551D01*
X488424D01*
Y191726D01*
Y191901D01*
X488249D01*
Y192076D01*
Y192251D01*
Y192426D01*
X488074D01*
Y192601D01*
Y192776D01*
Y192951D01*
X487899D01*
Y193126D01*
Y193301D01*
Y193476D01*
X487724D01*
Y193651D01*
Y193826D01*
X487549D01*
Y194001D01*
Y194176D01*
Y194351D01*
X487374D01*
Y194526D01*
X495074D01*
Y194351D01*
X495424D01*
Y194176D01*
X495249D01*
Y194001D01*
Y193826D01*
X495599D01*
Y193651D01*
X495424D01*
Y193476D01*
X495599D01*
Y193301D01*
Y193126D01*
Y192951D01*
X495774D01*
Y192776D01*
Y192601D01*
Y192426D01*
X495949D01*
Y192251D01*
Y192076D01*
Y191901D01*
X496124D01*
Y191726D01*
Y191551D01*
Y191376D01*
X496299D01*
Y191201D01*
Y191026D01*
Y190851D01*
X496474D01*
Y190676D01*
Y190501D01*
Y190326D01*
X496649D01*
Y190151D01*
Y189976D01*
Y189801D01*
X496824D01*
Y189626D01*
Y189451D01*
Y189276D01*
Y189101D01*
Y188926D01*
X497174D01*
Y188751D01*
X496999D01*
Y188576D01*
Y188401D01*
X497174D01*
Y188226D01*
Y188051D01*
Y187876D01*
X497349D01*
Y187701D01*
Y187526D01*
X497524D01*
Y187351D01*
Y187176D01*
Y187001D01*
X497699D01*
Y186826D01*
Y186651D01*
Y186476D01*
X497874D01*
Y186301D01*
Y186126D01*
Y185951D01*
X498049D01*
Y185776D01*
Y185601D01*
X498224D01*
Y185426D01*
Y185251D01*
Y185076D01*
Y184901D01*
X498399D01*
Y184726D01*
Y184551D01*
Y184376D01*
X498574D01*
Y184201D01*
Y184026D01*
X498749D01*
Y183851D01*
X498574D01*
Y183676D01*
Y183501D01*
X498924D01*
Y183326D01*
Y183151D01*
Y182976D01*
Y182801D01*
Y182626D01*
X499099D01*
Y182451D01*
Y182276D01*
Y182101D01*
X499274D01*
Y181926D01*
Y181751D01*
Y181576D01*
X499449D01*
Y181401D01*
Y181226D01*
Y181051D01*
X499624D01*
Y180876D01*
Y180701D01*
Y180526D01*
X499799D01*
Y180351D01*
Y180176D01*
X499974D01*
Y180001D01*
Y179826D01*
Y179651D01*
X500149D01*
Y179476D01*
Y179301D01*
Y179126D01*
Y178951D01*
Y178776D01*
Y178601D01*
X500499D01*
Y178426D01*
X500324D01*
Y178251D01*
Y178076D01*
X500499D01*
Y177901D01*
Y177726D01*
Y177551D01*
X500674D01*
Y177376D01*
Y177201D01*
X500849D01*
Y177026D01*
Y176851D01*
Y176676D01*
X501024D01*
Y176501D01*
Y176326D01*
Y176151D01*
X501199D01*
Y175976D01*
Y175801D01*
Y175626D01*
X501374D01*
Y175451D01*
Y175276D01*
X501549D01*
Y175101D01*
Y174926D01*
Y174751D01*
X501724D01*
Y174575D01*
Y174400D01*
Y174225D01*
X501899D01*
Y174050D01*
Y173875D01*
X502074D01*
Y173700D01*
X501899D01*
Y173526D01*
Y173351D01*
X502249D01*
Y173176D01*
Y173001D01*
Y172826D01*
Y172651D01*
Y172476D01*
X502424D01*
Y172301D01*
Y172125D01*
X502774D01*
Y171950D01*
X502949D01*
Y171775D01*
Y171600D01*
X503124D01*
Y171425D01*
X503299D01*
Y171250D01*
X503474D01*
Y171075D01*
X503824D01*
Y170900D01*
X503999D01*
Y170726D01*
X504174D01*
Y170551D01*
X504699D01*
Y170376D01*
X504874D01*
Y170201D01*
X505399D01*
Y170026D01*
X505924D01*
Y169851D01*
X506274D01*
Y169676D01*
X507149D01*
Y169501D01*
X509074D01*
Y169676D01*
X509774D01*
Y169851D01*
X510299D01*
Y170026D01*
X510649D01*
Y170201D01*
X510999D01*
Y170376D01*
X511174D01*
Y170551D01*
X511349D01*
Y170726D01*
X511524D01*
Y170900D01*
Y171075D01*
X511699D01*
Y171250D01*
Y171425D01*
X511874D01*
Y171600D01*
Y171775D01*
Y171950D01*
Y172125D01*
Y172301D01*
Y172476D01*
Y172651D01*
Y172826D01*
Y173001D01*
Y173176D01*
X511699D01*
Y173351D01*
Y173526D01*
Y173700D01*
X511524D01*
Y173875D01*
Y174050D01*
Y174225D01*
X511349D01*
Y174400D01*
Y174575D01*
X511174D01*
Y174751D01*
Y174926D01*
Y175101D01*
Y175276D01*
Y175451D01*
Y175626D01*
X510999D01*
Y175801D01*
Y175976D01*
Y176151D01*
X510824D01*
Y176326D01*
Y176501D01*
Y176676D01*
X510649D01*
Y176851D01*
Y177026D01*
Y177201D01*
X510474D01*
Y177376D01*
Y177551D01*
Y177726D01*
X510299D01*
Y177901D01*
Y178076D01*
X510124D01*
Y178251D01*
Y178426D01*
Y178601D01*
X509949D01*
Y178776D01*
Y178951D01*
Y179126D01*
X509774D01*
Y179301D01*
X509949D01*
Y179476D01*
X509599D01*
Y179651D01*
Y179826D01*
Y180001D01*
Y180176D01*
Y180351D01*
Y180526D01*
X509424D01*
Y180701D01*
Y180876D01*
Y181051D01*
X509074D01*
Y181226D01*
X509249D01*
Y181401D01*
X509074D01*
Y181576D01*
Y181751D01*
Y181926D01*
X508899D01*
Y182101D01*
Y182276D01*
Y182451D01*
X508724D01*
Y182626D01*
Y182801D01*
Y182976D01*
Y183151D01*
X508549D01*
Y183326D01*
Y183501D01*
X508374D01*
Y183676D01*
Y183851D01*
Y184026D01*
X508199D01*
Y184201D01*
Y184376D01*
Y184551D01*
X508024D01*
Y184726D01*
Y184901D01*
X507849D01*
Y185076D01*
Y185251D01*
Y185426D01*
Y185601D01*
Y185776D01*
Y185951D01*
X507499D01*
Y186126D01*
X507674D01*
Y186301D01*
Y186476D01*
X507499D01*
Y186651D01*
Y186826D01*
Y187001D01*
X507324D01*
Y187176D01*
Y187351D01*
X507149D01*
Y187526D01*
Y187701D01*
Y187876D01*
X506974D01*
Y188051D01*
Y188226D01*
X506799D01*
Y188401D01*
Y188576D01*
Y188751D01*
X506624D01*
Y188926D01*
Y189101D01*
Y189276D01*
Y189451D01*
X506449D01*
Y189626D01*
Y189801D01*
Y189976D01*
X506274D01*
Y190151D01*
Y190326D01*
X506099D01*
Y190501D01*
Y190676D01*
Y190851D01*
Y191026D01*
Y191201D01*
Y191376D01*
X505749D01*
Y191551D01*
X505924D01*
Y191726D01*
X505749D01*
Y191901D01*
Y192076D01*
Y192251D01*
X505574D01*
Y192426D01*
Y192601D01*
Y192776D01*
X505399D01*
Y192951D01*
Y193126D01*
Y193301D01*
X505224D01*
Y193476D01*
Y193651D01*
X505049D01*
Y193826D01*
Y194001D01*
Y194176D01*
X504874D01*
Y194351D01*
Y194526D01*
X512749D01*
Y194351D01*
D02*
G37*
G36*
X486149D02*
Y194176D01*
X486324D01*
Y194001D01*
Y193826D01*
Y193651D01*
Y193476D01*
Y193301D01*
Y193126D01*
X486674D01*
Y192951D01*
X486499D01*
Y192776D01*
Y192601D01*
X486674D01*
Y192426D01*
Y192251D01*
Y192076D01*
X486849D01*
Y191901D01*
Y191726D01*
Y191551D01*
X487024D01*
Y191376D01*
Y191201D01*
X487199D01*
Y191026D01*
Y190851D01*
Y190676D01*
X487374D01*
Y190501D01*
Y190326D01*
Y190151D01*
X487549D01*
Y189976D01*
Y189801D01*
X487724D01*
Y189626D01*
Y189451D01*
Y189276D01*
X487899D01*
Y189101D01*
Y188926D01*
Y188751D01*
X488074D01*
Y188576D01*
Y188401D01*
Y188226D01*
X488249D01*
Y188051D01*
X488074D01*
Y187876D01*
Y187701D01*
X488424D01*
Y187526D01*
Y187351D01*
Y187176D01*
X480724D01*
Y187001D01*
Y186826D01*
Y186651D01*
X480899D01*
Y186476D01*
Y186301D01*
Y186126D01*
X481074D01*
Y185951D01*
Y185776D01*
X481249D01*
Y185601D01*
Y185426D01*
Y185251D01*
X481424D01*
Y185076D01*
Y184901D01*
Y184726D01*
Y184551D01*
Y184376D01*
X481774D01*
Y184201D01*
X481599D01*
Y184026D01*
Y183851D01*
X481774D01*
Y183676D01*
Y183501D01*
Y183326D01*
X481949D01*
Y183151D01*
Y182976D01*
Y182801D01*
Y182626D01*
X482124D01*
Y182451D01*
Y182276D01*
X482299D01*
Y182101D01*
Y181926D01*
Y181751D01*
X482474D01*
Y181576D01*
Y181401D01*
Y181226D01*
X482649D01*
Y181051D01*
Y180876D01*
X482824D01*
Y180701D01*
Y180526D01*
Y180351D01*
X482999D01*
Y180176D01*
Y180001D01*
Y179826D01*
Y179651D01*
Y179476D01*
Y179301D01*
X483349D01*
Y179126D01*
X483174D01*
Y178951D01*
X483349D01*
Y178776D01*
Y178601D01*
Y178426D01*
X483524D01*
Y178251D01*
Y178076D01*
Y177901D01*
X483699D01*
Y177726D01*
Y177551D01*
Y177376D01*
X483874D01*
Y177201D01*
Y177026D01*
X484049D01*
Y176851D01*
Y176676D01*
Y176501D01*
X484224D01*
Y176326D01*
Y176151D01*
Y175976D01*
Y175801D01*
X484399D01*
Y175626D01*
Y175451D01*
X484574D01*
Y175276D01*
Y175101D01*
Y174926D01*
X484749D01*
Y174751D01*
Y174575D01*
Y174400D01*
Y174225D01*
Y174050D01*
Y173875D01*
X485099D01*
Y173700D01*
Y173526D01*
Y173351D01*
Y173176D01*
Y173001D01*
X485274D01*
Y172826D01*
Y172651D01*
Y172476D01*
X485449D01*
Y172301D01*
Y172125D01*
X485624D01*
Y171950D01*
Y171775D01*
Y171600D01*
X485799D01*
Y171425D01*
Y171250D01*
Y171075D01*
X485974D01*
Y170900D01*
Y170726D01*
Y170551D01*
X486149D01*
Y170376D01*
Y170201D01*
X486324D01*
Y170026D01*
Y169851D01*
Y169676D01*
Y169501D01*
X486499D01*
Y169325D01*
X486324D01*
Y169150D01*
Y168975D01*
X486674D01*
Y168800D01*
X486499D01*
Y168625D01*
X486674D01*
Y168450D01*
Y168275D01*
Y168100D01*
X486849D01*
Y167925D01*
Y167750D01*
Y167575D01*
X487024D01*
Y167400D01*
Y167225D01*
Y167050D01*
X487199D01*
Y166875D01*
Y166700D01*
X487374D01*
Y166525D01*
Y166350D01*
Y166175D01*
X487549D01*
Y166000D01*
Y165825D01*
Y165650D01*
X487724D01*
Y165475D01*
Y165300D01*
Y165125D01*
X487899D01*
Y164950D01*
Y164775D01*
X488074D01*
Y164600D01*
Y164425D01*
Y164250D01*
X488249D01*
Y164075D01*
X488074D01*
Y163900D01*
Y163725D01*
X488424D01*
Y163550D01*
Y163375D01*
Y163200D01*
Y163025D01*
Y162850D01*
X488599D01*
Y162675D01*
X480549D01*
Y162850D01*
Y163025D01*
X480374D01*
Y163200D01*
Y163375D01*
Y163550D01*
X480199D01*
Y163725D01*
Y163900D01*
Y164075D01*
Y164250D01*
Y164425D01*
X479849D01*
Y164600D01*
X480024D01*
Y164775D01*
Y164950D01*
X479849D01*
Y165125D01*
Y165300D01*
Y165475D01*
X479674D01*
Y165650D01*
Y165825D01*
X479499D01*
Y166000D01*
Y166175D01*
Y166350D01*
X479324D01*
Y166525D01*
Y166700D01*
Y166875D01*
X479149D01*
Y167050D01*
Y167225D01*
Y167400D01*
X478974D01*
Y167575D01*
Y167750D01*
Y167925D01*
X478799D01*
Y168100D01*
Y168275D01*
Y168450D01*
X478624D01*
Y168625D01*
Y168800D01*
Y168975D01*
X478449D01*
Y169150D01*
Y169325D01*
Y169501D01*
Y169676D01*
Y169851D01*
X478098D01*
Y170026D01*
X478274D01*
Y170201D01*
Y170376D01*
X478098D01*
Y170551D01*
Y170726D01*
Y170900D01*
X477923D01*
Y171075D01*
Y171250D01*
X477748D01*
Y171425D01*
Y171600D01*
Y171775D01*
X477573D01*
Y171950D01*
Y172125D01*
Y172301D01*
X477398D01*
Y172476D01*
Y172651D01*
X477223D01*
Y172826D01*
Y173001D01*
Y173176D01*
Y173351D01*
X477048D01*
Y173526D01*
Y173700D01*
Y173875D01*
X476873D01*
Y174050D01*
Y174225D01*
Y174400D01*
Y174575D01*
Y174751D01*
X476523D01*
Y174926D01*
X476698D01*
Y175101D01*
Y175276D01*
X476523D01*
Y175451D01*
Y175626D01*
Y175801D01*
X476348D01*
Y175976D01*
Y176151D01*
X476173D01*
Y176326D01*
Y176501D01*
Y176676D01*
X475998D01*
Y176851D01*
Y177026D01*
Y177201D01*
X475823D01*
Y177376D01*
Y177551D01*
Y177726D01*
X475648D01*
Y177901D01*
Y178076D01*
X475473D01*
Y178251D01*
Y178426D01*
Y178601D01*
X475299D01*
Y178776D01*
Y178951D01*
Y179126D01*
X475124D01*
Y179301D01*
Y179476D01*
Y179651D01*
Y179826D01*
Y180001D01*
Y180176D01*
X474774D01*
Y180351D01*
Y180526D01*
Y180701D01*
Y180876D01*
Y181051D01*
X474599D01*
Y181226D01*
Y181401D01*
Y181576D01*
X474424D01*
Y181751D01*
Y181926D01*
Y182101D01*
X474249D01*
Y182276D01*
Y182451D01*
Y182626D01*
X474074D01*
Y182801D01*
Y182976D01*
Y183151D01*
X473899D01*
Y183326D01*
Y183501D01*
X473724D01*
Y183676D01*
Y183851D01*
Y184026D01*
X473549D01*
Y184201D01*
Y184376D01*
Y184551D01*
Y184726D01*
Y184901D01*
X473199D01*
Y185076D01*
X473374D01*
Y185251D01*
Y185426D01*
X473024D01*
Y185601D01*
Y185776D01*
Y185951D01*
Y186126D01*
Y186301D01*
Y186476D01*
X472849D01*
Y186651D01*
Y186826D01*
Y187001D01*
X472673D01*
Y187176D01*
X464798D01*
Y187351D01*
Y187526D01*
X464623D01*
Y187701D01*
Y187876D01*
Y188051D01*
Y188226D01*
Y188401D01*
X464448D01*
Y188576D01*
Y188751D01*
Y188926D01*
Y189101D01*
X464273D01*
Y189276D01*
Y189451D01*
Y189626D01*
X464098D01*
Y189801D01*
Y189976D01*
X463923D01*
Y190151D01*
Y190326D01*
Y190501D01*
X463748D01*
Y190676D01*
Y190851D01*
Y191026D01*
X463573D01*
Y191201D01*
Y191376D01*
Y191551D01*
X463398D01*
Y191726D01*
Y191901D01*
X463223D01*
Y192076D01*
Y192251D01*
Y192426D01*
X463048D01*
Y192601D01*
Y192776D01*
Y192951D01*
Y193126D01*
Y193301D01*
Y193476D01*
X462873D01*
Y193651D01*
Y193826D01*
X462698D01*
Y194001D01*
Y194176D01*
Y194351D01*
X462523D01*
Y194526D01*
X486149D01*
Y194351D01*
D02*
G37*
G36*
X466373Y173176D02*
Y173001D01*
X466548D01*
Y172826D01*
Y172651D01*
Y172476D01*
X466723D01*
Y172301D01*
Y172125D01*
X466898D01*
Y171950D01*
Y171775D01*
Y171600D01*
X467073D01*
Y171425D01*
Y171250D01*
Y171075D01*
X467248D01*
Y170900D01*
Y170726D01*
Y170551D01*
X467423D01*
Y170376D01*
Y170201D01*
X467598D01*
Y170026D01*
Y169851D01*
Y169676D01*
Y169501D01*
Y169325D01*
Y169150D01*
X467948D01*
Y168975D01*
X467773D01*
Y168800D01*
X467948D01*
Y168625D01*
Y168450D01*
Y168275D01*
X468123D01*
Y168100D01*
Y167925D01*
Y167750D01*
Y167575D01*
X468298D01*
Y167400D01*
Y167225D01*
Y167050D01*
X468473D01*
Y166875D01*
Y166700D01*
X468648D01*
Y166525D01*
Y166350D01*
Y166175D01*
X468823D01*
Y166000D01*
Y165825D01*
Y165650D01*
X468998D01*
Y165475D01*
Y165300D01*
Y165125D01*
X469173D01*
Y164950D01*
Y164775D01*
Y164600D01*
Y164425D01*
Y164250D01*
X469523D01*
Y164075D01*
X469348D01*
Y163900D01*
Y163725D01*
X469523D01*
Y163550D01*
Y163375D01*
X469698D01*
Y163200D01*
Y163025D01*
Y162850D01*
X469873D01*
Y162675D01*
X459198D01*
Y162850D01*
Y163025D01*
Y163200D01*
Y163375D01*
Y163550D01*
X459023D01*
Y163725D01*
Y163900D01*
X458848D01*
Y164075D01*
Y164250D01*
Y164425D01*
X458673D01*
Y164600D01*
Y164775D01*
Y164950D01*
X458498D01*
Y165125D01*
Y165300D01*
Y165475D01*
X458323D01*
Y165650D01*
Y165825D01*
X458148D01*
Y166000D01*
Y166175D01*
Y166350D01*
X457973D01*
Y166525D01*
Y166700D01*
Y166875D01*
X457798D01*
Y167050D01*
X457973D01*
Y167225D01*
X457623D01*
Y167400D01*
Y167575D01*
Y167750D01*
Y167925D01*
Y168100D01*
Y168275D01*
Y168450D01*
X457448D01*
Y168625D01*
Y168800D01*
Y168975D01*
X457273D01*
Y169150D01*
Y169325D01*
X457098D01*
Y169501D01*
Y169676D01*
Y169851D01*
X456923D01*
Y170026D01*
Y170201D01*
Y170376D01*
X456748D01*
Y170551D01*
Y170726D01*
Y170900D01*
X456573D01*
Y171075D01*
Y171250D01*
X456398D01*
Y171425D01*
Y171600D01*
Y171775D01*
X456223D01*
Y171950D01*
Y172125D01*
Y172301D01*
X456048D01*
Y172476D01*
Y172651D01*
X455873D01*
Y172826D01*
Y173001D01*
Y173176D01*
Y173351D01*
X466373D01*
Y173176D01*
D02*
G37*
G36*
X533225Y194876D02*
Y194701D01*
X535325D01*
Y194526D01*
X536025D01*
Y194351D01*
X536550D01*
Y194176D01*
X537075D01*
Y194001D01*
X537775D01*
Y193826D01*
X538125D01*
Y193651D01*
X538650D01*
Y193476D01*
X539175D01*
Y193301D01*
X539350D01*
Y193126D01*
X540050D01*
Y192951D01*
X540400D01*
Y192776D01*
X540750D01*
Y192601D01*
X541100D01*
Y192426D01*
X541450D01*
Y192251D01*
X541800D01*
Y192076D01*
X542150D01*
Y191901D01*
X542325D01*
Y191726D01*
X542675D01*
Y191551D01*
X542850D01*
Y191376D01*
X543375D01*
Y191201D01*
Y191026D01*
X543725D01*
Y190851D01*
X544075D01*
Y190676D01*
X544250D01*
Y190501D01*
X544425D01*
Y190326D01*
X544600D01*
Y190151D01*
X544950D01*
Y189976D01*
X545125D01*
Y189801D01*
X545475D01*
Y189626D01*
Y189451D01*
X545825D01*
Y189276D01*
X546000D01*
Y189101D01*
X546175D01*
Y188926D01*
X546350D01*
Y188751D01*
X546525D01*
Y188576D01*
X546700D01*
Y188401D01*
X546875D01*
Y188226D01*
X547050D01*
Y188051D01*
X547225D01*
Y187876D01*
X547400D01*
Y187701D01*
X547575D01*
Y187526D01*
X547750D01*
Y187351D01*
X547925D01*
Y187176D01*
X548100D01*
Y187001D01*
X548275D01*
Y186826D01*
X548450D01*
Y186651D01*
Y186476D01*
X548625D01*
Y186301D01*
X548800D01*
Y186126D01*
X548975D01*
Y185951D01*
Y185776D01*
X549150D01*
Y185601D01*
X549325D01*
Y185426D01*
X549500D01*
Y185251D01*
Y185076D01*
X549675D01*
Y184901D01*
X549850D01*
Y184726D01*
Y184551D01*
X550025D01*
Y184376D01*
X550200D01*
Y184201D01*
X550375D01*
Y184026D01*
Y183851D01*
Y183676D01*
X550725D01*
Y183501D01*
X550900D01*
Y183326D01*
X550725D01*
Y183151D01*
X550900D01*
Y182976D01*
Y182801D01*
X551075D01*
Y182626D01*
X551250D01*
Y182451D01*
Y182276D01*
X551425D01*
Y182101D01*
Y181926D01*
X551600D01*
Y181751D01*
Y181576D01*
X551775D01*
Y181401D01*
Y181226D01*
X551950D01*
Y181051D01*
Y180876D01*
X552125D01*
Y180701D01*
Y180526D01*
Y180351D01*
Y180176D01*
X552475D01*
Y180001D01*
X552300D01*
Y179826D01*
X552475D01*
Y179651D01*
Y179476D01*
Y179301D01*
X552650D01*
Y179126D01*
Y178951D01*
X552825D01*
Y178776D01*
Y178601D01*
Y178426D01*
X553000D01*
Y178251D01*
Y178076D01*
Y177901D01*
X553175D01*
Y177726D01*
Y177551D01*
Y177376D01*
X553350D01*
Y177201D01*
Y177026D01*
Y176851D01*
X553525D01*
Y176676D01*
Y176501D01*
Y176326D01*
Y176151D01*
Y175976D01*
X553700D01*
Y175801D01*
Y175626D01*
Y175451D01*
Y175276D01*
X553875D01*
Y175101D01*
Y174926D01*
Y174751D01*
Y174575D01*
Y174400D01*
Y174225D01*
Y174050D01*
Y173875D01*
Y173700D01*
Y173526D01*
Y173351D01*
Y173176D01*
Y173001D01*
Y172826D01*
Y172651D01*
Y172476D01*
Y172301D01*
Y172125D01*
Y171950D01*
Y171775D01*
Y171600D01*
Y171425D01*
Y171250D01*
Y171075D01*
Y170900D01*
Y170726D01*
Y170551D01*
X553700D01*
Y170376D01*
Y170201D01*
Y170026D01*
Y169851D01*
X553525D01*
Y169676D01*
Y169501D01*
Y169325D01*
X553350D01*
Y169150D01*
Y168975D01*
Y168800D01*
X553175D01*
Y168625D01*
Y168450D01*
X553000D01*
Y168275D01*
Y168100D01*
Y167925D01*
X552825D01*
Y167750D01*
Y167575D01*
X552650D01*
Y167400D01*
X552475D01*
Y167225D01*
X552300D01*
Y167050D01*
X552475D01*
Y166875D01*
X552300D01*
Y166700D01*
X552125D01*
Y166525D01*
Y166350D01*
X551950D01*
Y166175D01*
X551775D01*
Y166000D01*
X551600D01*
Y165825D01*
X551425D01*
Y165650D01*
X551250D01*
Y165475D01*
X551075D01*
Y165300D01*
X550900D01*
Y165125D01*
X550725D01*
Y164950D01*
X550375D01*
Y164775D01*
Y164600D01*
X550025D01*
Y164425D01*
X549850D01*
Y164250D01*
X549675D01*
Y164075D01*
X549325D01*
Y163900D01*
X548975D01*
Y163725D01*
X548625D01*
Y163550D01*
X548275D01*
Y163375D01*
X547750D01*
Y163200D01*
X547400D01*
Y163025D01*
X547050D01*
Y162850D01*
X546525D01*
Y162675D01*
X546000D01*
Y162500D01*
X545300D01*
Y162325D01*
X538825D01*
Y162500D01*
X537950D01*
Y162675D01*
X537075D01*
Y162850D01*
X536725D01*
Y163025D01*
X536025D01*
Y163200D01*
X535500D01*
Y163375D01*
X535150D01*
Y163550D01*
X534625D01*
Y163725D01*
X534275D01*
Y163900D01*
X533225D01*
Y163725D01*
Y163550D01*
Y163375D01*
Y163200D01*
Y163025D01*
Y162850D01*
X533050D01*
Y162675D01*
X524649D01*
Y162850D01*
X524824D01*
Y163025D01*
X524649D01*
Y163200D01*
Y163375D01*
Y163550D01*
X524474D01*
Y163725D01*
Y163900D01*
X524649D01*
Y164075D01*
Y164250D01*
Y164425D01*
Y164600D01*
X524824D01*
Y164775D01*
Y164950D01*
Y165125D01*
X524999D01*
Y165300D01*
Y165475D01*
Y165650D01*
Y165825D01*
Y166000D01*
Y166175D01*
X525174D01*
Y166350D01*
Y166525D01*
Y166700D01*
X525349D01*
Y166875D01*
Y167050D01*
Y167225D01*
X525524D01*
Y167400D01*
Y167575D01*
Y167750D01*
Y167925D01*
X525699D01*
Y168100D01*
Y168275D01*
Y168450D01*
X525874D01*
Y168625D01*
Y168800D01*
Y168975D01*
Y169150D01*
Y169325D01*
X525699D01*
Y169501D01*
X525524D01*
Y169676D01*
X525349D01*
Y169851D01*
X525174D01*
Y170026D01*
X524999D01*
Y170201D01*
X524824D01*
Y170376D01*
X524649D01*
Y170551D01*
X524824D01*
Y170726D01*
X524474D01*
Y170900D01*
X524299D01*
Y171075D01*
X524124D01*
Y171250D01*
Y171425D01*
X523949D01*
Y171600D01*
X523774D01*
Y171775D01*
X523599D01*
Y171950D01*
Y172125D01*
X523424D01*
Y172301D01*
Y172476D01*
Y172651D01*
X522899D01*
Y172826D01*
X523074D01*
Y173001D01*
X522899D01*
Y173176D01*
Y173351D01*
X522549D01*
Y173526D01*
Y173700D01*
Y173875D01*
X522374D01*
Y174050D01*
Y174225D01*
X522199D01*
Y174400D01*
X522024D01*
Y174575D01*
X521849D01*
Y174751D01*
Y174926D01*
X521674D01*
Y175101D01*
Y175276D01*
Y175451D01*
Y175626D01*
X521324D01*
Y175801D01*
X521499D01*
Y175976D01*
Y176151D01*
X521324D01*
Y176326D01*
X521149D01*
Y176501D01*
Y176676D01*
X520974D01*
Y176851D01*
Y177026D01*
Y177201D01*
X520799D01*
Y177376D01*
Y177551D01*
X520624D01*
Y177726D01*
Y177901D01*
X520449D01*
Y178076D01*
Y178251D01*
Y178426D01*
X520274D01*
Y178601D01*
Y178776D01*
Y178951D01*
X520099D01*
Y179126D01*
Y179301D01*
Y179476D01*
X519924D01*
Y179651D01*
Y179826D01*
Y180001D01*
Y180176D01*
Y180351D01*
Y180526D01*
Y180701D01*
Y180876D01*
X519574D01*
Y181051D01*
X519749D01*
Y181226D01*
Y181401D01*
Y181576D01*
X519574D01*
Y181751D01*
Y181926D01*
Y182101D01*
Y182276D01*
Y182451D01*
Y182626D01*
Y182801D01*
Y182976D01*
X519399D01*
Y183151D01*
Y183326D01*
Y183501D01*
Y183676D01*
Y183851D01*
Y184026D01*
Y184201D01*
Y184376D01*
Y184551D01*
Y184726D01*
Y184901D01*
Y185076D01*
Y185251D01*
Y185426D01*
Y185601D01*
Y185776D01*
X519574D01*
Y185951D01*
Y186126D01*
Y186301D01*
Y186476D01*
Y186651D01*
Y186826D01*
X519749D01*
Y187001D01*
Y187176D01*
Y187351D01*
X519574D01*
Y187526D01*
X519924D01*
Y187701D01*
Y187876D01*
Y188051D01*
Y188226D01*
Y188401D01*
X520099D01*
Y188576D01*
Y188751D01*
X520274D01*
Y188926D01*
Y189101D01*
Y189276D01*
X520449D01*
Y189451D01*
X520624D01*
Y189626D01*
Y189801D01*
X520799D01*
Y189976D01*
X520974D01*
Y190151D01*
Y190326D01*
Y190501D01*
X521324D01*
Y190676D01*
X521499D01*
Y190851D01*
X521324D01*
Y191026D01*
X521674D01*
Y191201D01*
Y191376D01*
X522024D01*
Y191551D01*
X522199D01*
Y191726D01*
X522374D01*
Y191901D01*
X522549D01*
Y192076D01*
X522724D01*
Y192251D01*
X522899D01*
Y192426D01*
X523074D01*
Y192601D01*
X523424D01*
Y192776D01*
Y192951D01*
X523774D01*
Y193126D01*
X524299D01*
Y193301D01*
X524474D01*
Y193476D01*
X524824D01*
Y193651D01*
X525174D01*
Y193826D01*
X525524D01*
Y194001D01*
X526049D01*
Y194176D01*
X526399D01*
Y194351D01*
X527099D01*
Y194526D01*
X527625D01*
Y194701D01*
X529375D01*
Y194876D01*
Y195051D01*
X533225D01*
Y194876D01*
D02*
G37*
G36*
X558950Y159525D02*
X558775D01*
Y159350D01*
Y159175D01*
X559125D01*
Y159000D01*
Y158825D01*
Y158650D01*
X559300D01*
Y158475D01*
Y158300D01*
Y158125D01*
Y157950D01*
Y157775D01*
X559475D01*
Y157600D01*
Y157425D01*
Y157250D01*
X559650D01*
Y157075D01*
Y156900D01*
Y156725D01*
X559825D01*
Y156550D01*
Y156375D01*
X560000D01*
Y156200D01*
Y156025D01*
Y155850D01*
X560175D01*
Y155675D01*
Y155500D01*
Y155325D01*
X560350D01*
Y155150D01*
Y154975D01*
Y154800D01*
X560525D01*
Y154625D01*
Y154450D01*
Y154275D01*
X560700D01*
Y154100D01*
X560525D01*
Y153925D01*
Y153750D01*
X560875D01*
Y153575D01*
Y153400D01*
Y153225D01*
Y153050D01*
Y152875D01*
X561050D01*
Y152700D01*
Y152525D01*
Y152350D01*
X561225D01*
Y152175D01*
Y152000D01*
Y151825D01*
X561400D01*
Y151650D01*
Y151475D01*
Y151300D01*
X561575D01*
Y151125D01*
Y150950D01*
X561750D01*
Y150775D01*
Y150600D01*
Y150425D01*
X561925D01*
Y150250D01*
Y150075D01*
Y149900D01*
X562100D01*
Y149725D01*
Y149550D01*
X562275D01*
Y149375D01*
Y149200D01*
Y149025D01*
X562450D01*
Y148850D01*
Y148675D01*
Y148500D01*
X562625D01*
Y148325D01*
Y148150D01*
Y147975D01*
Y147800D01*
Y147625D01*
Y147450D01*
X562800D01*
Y147275D01*
Y147100D01*
Y146925D01*
X562975D01*
Y146750D01*
Y146575D01*
Y146400D01*
X563150D01*
Y146225D01*
Y146050D01*
Y145875D01*
X563325D01*
Y145700D01*
Y145525D01*
X563500D01*
Y145350D01*
Y145175D01*
Y145000D01*
X563675D01*
Y144825D01*
Y144650D01*
Y144475D01*
X563850D01*
Y144300D01*
Y144125D01*
X564025D01*
Y143950D01*
Y143775D01*
Y143600D01*
X564200D01*
Y143425D01*
Y143250D01*
Y143075D01*
Y142900D01*
Y142725D01*
Y142550D01*
X564550D01*
Y142375D01*
Y142200D01*
X423497D01*
Y142375D01*
Y142550D01*
Y142725D01*
X423322D01*
Y142900D01*
Y143075D01*
X423147D01*
Y143250D01*
Y143425D01*
Y143600D01*
Y143775D01*
Y143950D01*
Y144125D01*
X422797D01*
Y144300D01*
X422972D01*
Y144475D01*
X422797D01*
Y144650D01*
Y144825D01*
Y145000D01*
X422622D01*
Y145175D01*
Y145350D01*
Y145525D01*
X422447D01*
Y145700D01*
Y145875D01*
Y146050D01*
X422272D01*
Y146225D01*
Y146400D01*
X422097D01*
Y146575D01*
Y146750D01*
Y146925D01*
X421922D01*
Y147100D01*
Y147275D01*
Y147450D01*
Y147625D01*
X421747D01*
Y147800D01*
Y147975D01*
Y148150D01*
X421572D01*
Y148325D01*
Y148500D01*
Y148675D01*
Y148850D01*
Y149025D01*
X421222D01*
Y149200D01*
X421397D01*
Y149375D01*
Y149550D01*
X421222D01*
Y149725D01*
Y149900D01*
Y150075D01*
X421047D01*
Y150250D01*
Y150425D01*
X420872D01*
Y150600D01*
Y150775D01*
Y150950D01*
X420697D01*
Y151125D01*
Y151300D01*
Y151475D01*
X420522D01*
Y151650D01*
Y151825D01*
X420347D01*
Y152000D01*
Y152175D01*
Y152350D01*
X420173D01*
Y152525D01*
Y152700D01*
Y152875D01*
X419998D01*
Y153050D01*
Y153225D01*
Y153400D01*
X419823D01*
Y153575D01*
Y153750D01*
Y153925D01*
X419648D01*
Y154100D01*
X419823D01*
Y154275D01*
Y154450D01*
X419473D01*
Y154625D01*
X419648D01*
Y154800D01*
X419473D01*
Y154975D01*
Y155150D01*
Y155325D01*
X419298D01*
Y155500D01*
Y155675D01*
Y155850D01*
X419123D01*
Y156025D01*
Y156200D01*
Y156375D01*
X418948D01*
Y156550D01*
Y156725D01*
Y156900D01*
X418773D01*
Y157075D01*
Y157250D01*
X418598D01*
Y157425D01*
Y157600D01*
Y157775D01*
X418422D01*
Y157950D01*
Y158125D01*
Y158300D01*
X418247D01*
Y158475D01*
Y158650D01*
Y158825D01*
Y159000D01*
Y159175D01*
X417897D01*
Y159350D01*
X418072D01*
Y159525D01*
X417897D01*
Y159700D01*
X558950D01*
Y159525D01*
D02*
G37*
%LPC*%
G36*
X536025Y187001D02*
X531824D01*
Y186826D01*
X531649D01*
Y186651D01*
X531299D01*
Y186476D01*
X530599D01*
Y186301D01*
X530424D01*
Y186126D01*
X530250D01*
Y185951D01*
X530075D01*
Y185776D01*
X529725D01*
Y185601D01*
X529550D01*
Y185426D01*
X529375D01*
Y185251D01*
Y185076D01*
X529200D01*
Y184901D01*
X528850D01*
Y184726D01*
Y184551D01*
X528675D01*
Y184376D01*
Y184201D01*
X528500D01*
Y184026D01*
Y183851D01*
Y183676D01*
X528325D01*
Y183501D01*
Y183326D01*
Y183151D01*
X528150D01*
Y182976D01*
Y182801D01*
Y182626D01*
Y182451D01*
Y182276D01*
Y182101D01*
X527975D01*
Y181926D01*
Y181751D01*
Y181576D01*
Y181401D01*
X528150D01*
Y181226D01*
Y181051D01*
Y180876D01*
Y180701D01*
Y180526D01*
Y180351D01*
Y180176D01*
Y180001D01*
X528325D01*
Y179826D01*
Y179651D01*
Y179476D01*
Y179301D01*
X528500D01*
Y179126D01*
Y178951D01*
Y178776D01*
X528675D01*
Y178601D01*
Y178426D01*
Y178251D01*
X528850D01*
Y178076D01*
Y177901D01*
Y177726D01*
X529025D01*
Y177551D01*
Y177376D01*
X529200D01*
Y177201D01*
X535325D01*
Y177026D01*
X535500D01*
Y176851D01*
Y176676D01*
Y176501D01*
X535675D01*
Y176326D01*
Y176151D01*
Y175976D01*
Y175801D01*
Y175626D01*
Y175451D01*
Y175276D01*
X535500D01*
Y175101D01*
Y174926D01*
Y174751D01*
Y174575D01*
Y174400D01*
X535325D01*
Y174225D01*
Y174050D01*
Y173875D01*
Y173700D01*
X535150D01*
Y173526D01*
Y173351D01*
Y173176D01*
Y173001D01*
Y172826D01*
X534975D01*
Y172651D01*
Y172476D01*
Y172301D01*
Y172125D01*
Y171950D01*
Y171775D01*
Y171600D01*
Y171425D01*
X534800D01*
Y171250D01*
Y171075D01*
X534975D01*
Y170900D01*
X535325D01*
Y170726D01*
X535500D01*
Y170551D01*
X536375D01*
Y170376D01*
Y170201D01*
X537425D01*
Y170026D01*
X538475D01*
Y169851D01*
X540575D01*
Y170026D01*
X541275D01*
Y170201D01*
X542150D01*
Y170376D01*
Y170551D01*
X542850D01*
Y170726D01*
X543025D01*
Y170900D01*
X543200D01*
Y171075D01*
X543550D01*
Y171250D01*
Y171425D01*
X543900D01*
Y171600D01*
Y171775D01*
X544250D01*
Y171950D01*
Y172125D01*
X544425D01*
Y172301D01*
Y172476D01*
X544600D01*
Y172651D01*
Y172826D01*
X544775D01*
Y173001D01*
Y173176D01*
Y173351D01*
X544950D01*
Y173526D01*
Y173700D01*
Y173875D01*
X545125D01*
Y174050D01*
Y174225D01*
Y174400D01*
Y174575D01*
Y174751D01*
Y174926D01*
Y175101D01*
Y175276D01*
Y175451D01*
Y175626D01*
Y175801D01*
Y175976D01*
Y176151D01*
Y176326D01*
Y176501D01*
Y176676D01*
Y176851D01*
X544950D01*
Y177026D01*
Y177201D01*
Y177376D01*
Y177551D01*
Y177726D01*
X544775D01*
Y177901D01*
Y178076D01*
Y178251D01*
X544600D01*
Y178426D01*
Y178601D01*
Y178776D01*
X544425D01*
Y178951D01*
Y179126D01*
X544250D01*
Y179301D01*
Y179476D01*
Y179651D01*
Y179826D01*
X543900D01*
Y180001D01*
Y180176D01*
Y180351D01*
Y180526D01*
X543725D01*
Y180701D01*
Y180876D01*
X543550D01*
Y181051D01*
X543375D01*
Y181226D01*
Y181401D01*
Y181576D01*
X543025D01*
Y181751D01*
Y181926D01*
X542850D01*
Y182101D01*
X542675D01*
Y182276D01*
Y182451D01*
X542500D01*
Y182626D01*
X542325D01*
Y182801D01*
X542150D01*
Y182976D01*
Y183151D01*
X541975D01*
Y183326D01*
X541800D01*
Y183501D01*
X541625D01*
Y183676D01*
X541450D01*
Y183851D01*
X541275D01*
Y184026D01*
X541100D01*
Y184201D01*
X540925D01*
Y184376D01*
X540750D01*
Y184551D01*
X540400D01*
Y184726D01*
X540225D01*
Y184901D01*
X539875D01*
Y185076D01*
X539700D01*
Y185251D01*
X539350D01*
Y185426D01*
X539175D01*
Y185601D01*
X538825D01*
Y185776D01*
X538475D01*
Y185951D01*
X538300D01*
Y186126D01*
X537775D01*
Y186301D01*
X537600D01*
Y186476D01*
X536725D01*
Y186651D01*
X536200D01*
Y186826D01*
X536025D01*
Y187001D01*
D02*
G37*
G36*
X555975Y156900D02*
X554575D01*
Y156725D01*
Y156550D01*
X554400D01*
Y156375D01*
Y156200D01*
Y156025D01*
X554225D01*
Y155850D01*
Y155675D01*
X553875D01*
Y155500D01*
Y155325D01*
Y155150D01*
X553700D01*
Y154975D01*
X553525D01*
Y154800D01*
Y154625D01*
X553350D01*
Y154450D01*
Y154275D01*
X553175D01*
Y154100D01*
X553000D01*
Y153925D01*
Y153750D01*
X552825D01*
Y153575D01*
Y153400D01*
X552650D01*
Y153225D01*
Y153050D01*
X552300D01*
Y152875D01*
X552475D01*
Y152700D01*
X552125D01*
Y152525D01*
Y152350D01*
Y152175D01*
Y152000D01*
X551950D01*
Y151825D01*
X551600D01*
Y152000D01*
X551250D01*
Y152175D01*
X551075D01*
Y152350D01*
X550900D01*
Y152525D01*
X550725D01*
Y152700D01*
X550375D01*
Y152875D01*
X550200D01*
Y153050D01*
X550025D01*
Y153225D01*
Y153400D01*
X549500D01*
Y153575D01*
X549325D01*
Y153750D01*
Y153925D01*
X548975D01*
Y154100D01*
X548800D01*
Y154275D01*
X548625D01*
Y154450D01*
X548450D01*
Y154625D01*
X548100D01*
Y154800D01*
X547750D01*
Y154975D01*
Y155150D01*
X547575D01*
Y155325D01*
X547225D01*
Y155500D01*
X547050D01*
Y155675D01*
X546875D01*
Y155850D01*
X546700D01*
Y156025D01*
X546350D01*
Y156200D01*
X546175D01*
Y156375D01*
X546000D01*
Y156550D01*
X545825D01*
Y156725D01*
X545650D01*
Y156900D01*
X544425D01*
Y156725D01*
Y156550D01*
Y156375D01*
X544600D01*
Y156200D01*
Y156025D01*
Y155850D01*
X544775D01*
Y155675D01*
Y155500D01*
Y155325D01*
X544950D01*
Y155150D01*
Y154975D01*
Y154800D01*
X545125D01*
Y154625D01*
Y154450D01*
X545300D01*
Y154275D01*
Y154100D01*
Y153925D01*
X545475D01*
Y153750D01*
Y153575D01*
Y153400D01*
Y153225D01*
Y153050D01*
Y152875D01*
X545650D01*
Y152700D01*
Y152525D01*
X545825D01*
Y152350D01*
Y152175D01*
Y152000D01*
X546000D01*
Y151825D01*
Y151650D01*
Y151475D01*
X546175D01*
Y151300D01*
Y151125D01*
X546350D01*
Y150950D01*
Y150775D01*
Y150600D01*
Y150425D01*
X546525D01*
Y150250D01*
Y150075D01*
Y149900D01*
X546700D01*
Y149725D01*
Y149550D01*
Y149375D01*
Y149200D01*
Y149025D01*
X547050D01*
Y148850D01*
Y148675D01*
Y148500D01*
Y148325D01*
Y148150D01*
Y147975D01*
X547225D01*
Y147800D01*
Y147625D01*
Y147450D01*
X547400D01*
Y147275D01*
Y147100D01*
X547575D01*
Y146925D01*
Y146750D01*
Y146575D01*
X547750D01*
Y146400D01*
Y146225D01*
Y146050D01*
X547925D01*
Y145875D01*
Y145700D01*
X548100D01*
Y145525D01*
Y145350D01*
Y145175D01*
X548275D01*
Y145000D01*
X551250D01*
Y145175D01*
Y145350D01*
X551075D01*
Y145525D01*
Y145700D01*
Y145875D01*
Y146050D01*
Y146225D01*
Y146400D01*
X550900D01*
Y146575D01*
Y146750D01*
X550550D01*
Y146925D01*
X550725D01*
Y147100D01*
Y147275D01*
X550550D01*
Y147450D01*
Y147625D01*
Y147800D01*
X550375D01*
Y147975D01*
Y148150D01*
X550200D01*
Y148325D01*
Y148500D01*
Y148675D01*
X550025D01*
Y148850D01*
Y149025D01*
Y149200D01*
X549850D01*
Y149375D01*
Y149550D01*
Y149725D01*
X549675D01*
Y149900D01*
Y150075D01*
X549850D01*
Y149900D01*
X550200D01*
Y149725D01*
X550375D01*
Y149550D01*
X550725D01*
Y149375D01*
X550900D01*
Y149200D01*
X551075D01*
Y149025D01*
X551250D01*
Y148850D01*
X551600D01*
Y148675D01*
X551775D01*
Y148500D01*
X551950D01*
Y148325D01*
X552125D01*
Y148150D01*
X552475D01*
Y147975D01*
X552650D01*
Y147800D01*
X552825D01*
Y147625D01*
X553350D01*
Y147800D01*
Y147975D01*
X553525D01*
Y148150D01*
X553700D01*
Y148325D01*
Y148500D01*
X553875D01*
Y148675D01*
X554050D01*
Y148850D01*
Y149025D01*
X554225D01*
Y149200D01*
X554400D01*
Y149375D01*
Y149550D01*
Y149725D01*
X554575D01*
Y149900D01*
X554750D01*
Y150075D01*
Y150250D01*
X554925D01*
Y150075D01*
Y149900D01*
X555100D01*
Y149725D01*
Y149550D01*
X555275D01*
Y149375D01*
Y149200D01*
Y149025D01*
X555450D01*
Y148850D01*
Y148675D01*
Y148500D01*
Y148325D01*
Y148150D01*
Y147975D01*
X555625D01*
Y147800D01*
Y147625D01*
Y147450D01*
X555800D01*
Y147275D01*
Y147100D01*
Y146925D01*
X555975D01*
Y146750D01*
Y146575D01*
Y146400D01*
X556150D01*
Y146225D01*
Y146050D01*
Y145875D01*
X556325D01*
Y145700D01*
Y145525D01*
X556500D01*
Y145350D01*
Y145175D01*
Y145000D01*
X559650D01*
Y145175D01*
Y145350D01*
Y145525D01*
Y145700D01*
X559475D01*
Y145875D01*
Y146050D01*
Y146225D01*
X559300D01*
Y146400D01*
Y146575D01*
X559125D01*
Y146750D01*
Y146925D01*
Y147100D01*
X558950D01*
Y147275D01*
Y147450D01*
Y147625D01*
X558775D01*
Y147800D01*
Y147975D01*
Y148150D01*
X558600D01*
Y148325D01*
Y148500D01*
X558425D01*
Y148675D01*
Y148850D01*
Y149025D01*
X558250D01*
Y149200D01*
Y149375D01*
Y149550D01*
Y149725D01*
X558075D01*
Y149900D01*
Y150075D01*
X557900D01*
Y150250D01*
X558075D01*
Y150425D01*
Y150600D01*
X557725D01*
Y150775D01*
Y150950D01*
Y151125D01*
Y151300D01*
Y151475D01*
Y151650D01*
X557550D01*
Y151825D01*
Y152000D01*
X557375D01*
Y152175D01*
Y152350D01*
Y152525D01*
X557200D01*
Y152700D01*
Y152875D01*
Y153050D01*
X557025D01*
Y153225D01*
Y153400D01*
X556850D01*
Y153575D01*
Y153750D01*
Y153925D01*
X556675D01*
Y154100D01*
Y154275D01*
Y154450D01*
X556500D01*
Y154625D01*
Y154800D01*
Y154975D01*
Y155150D01*
Y155325D01*
X556150D01*
Y155500D01*
Y155675D01*
X556325D01*
Y155850D01*
X556150D01*
Y156025D01*
X555975D01*
Y156200D01*
Y156375D01*
Y156550D01*
Y156725D01*
Y156900D01*
D02*
G37*
G36*
X525699D02*
X516949D01*
Y156725D01*
Y156550D01*
Y156375D01*
X517124D01*
Y156200D01*
Y156025D01*
X517299D01*
Y155850D01*
Y155675D01*
Y155500D01*
X517474D01*
Y155325D01*
Y155150D01*
Y154975D01*
X517649D01*
Y154800D01*
Y154625D01*
X517824D01*
Y154450D01*
Y154275D01*
Y154100D01*
X520799D01*
Y153925D01*
Y153750D01*
Y153575D01*
X520974D01*
Y153400D01*
Y153225D01*
Y153050D01*
X521149D01*
Y152875D01*
Y152700D01*
Y152525D01*
Y152350D01*
Y152175D01*
X521499D01*
Y152000D01*
X521324D01*
Y151825D01*
Y151650D01*
X521499D01*
Y151475D01*
Y151300D01*
Y151125D01*
X521674D01*
Y150950D01*
Y150775D01*
Y150600D01*
X521849D01*
Y150425D01*
Y150250D01*
Y150075D01*
X522024D01*
Y149900D01*
Y149725D01*
Y149550D01*
X522199D01*
Y149375D01*
Y149200D01*
X522374D01*
Y149025D01*
Y148850D01*
Y148675D01*
X522549D01*
Y148500D01*
Y148325D01*
Y148150D01*
X522724D01*
Y147975D01*
Y147800D01*
Y147625D01*
Y147450D01*
Y147275D01*
X522899D01*
Y147100D01*
Y146925D01*
Y146750D01*
X523249D01*
Y146575D01*
X523074D01*
Y146400D01*
Y146225D01*
X523249D01*
Y146050D01*
Y145875D01*
X523424D01*
Y145700D01*
Y145525D01*
Y145350D01*
X523599D01*
Y145175D01*
Y145000D01*
X526574D01*
Y145175D01*
Y145350D01*
Y145525D01*
Y145700D01*
X526399D01*
Y145875D01*
Y146050D01*
Y146225D01*
X526224D01*
Y146400D01*
Y146575D01*
X526049D01*
Y146750D01*
Y146925D01*
Y147100D01*
X525874D01*
Y147275D01*
Y147450D01*
Y147625D01*
X525699D01*
Y147800D01*
Y147975D01*
Y148150D01*
X525524D01*
Y148325D01*
Y148500D01*
X525349D01*
Y148675D01*
Y148850D01*
Y149025D01*
X525174D01*
Y149200D01*
Y149375D01*
Y149550D01*
X524999D01*
Y149725D01*
Y149900D01*
Y150075D01*
Y150250D01*
Y150425D01*
X524649D01*
Y150600D01*
X524824D01*
Y150775D01*
Y150950D01*
X524649D01*
Y151125D01*
Y151300D01*
Y151475D01*
Y151650D01*
X524474D01*
Y151825D01*
Y152000D01*
X524299D01*
Y152175D01*
Y152350D01*
Y152525D01*
X524124D01*
Y152700D01*
Y152875D01*
Y153050D01*
X523949D01*
Y153225D01*
Y153400D01*
X523774D01*
Y153575D01*
Y153750D01*
Y153925D01*
X523599D01*
Y154100D01*
X526574D01*
Y154275D01*
Y154450D01*
X526399D01*
Y154625D01*
Y154800D01*
Y154975D01*
X526224D01*
Y155150D01*
Y155325D01*
Y155500D01*
X526049D01*
Y155675D01*
Y155850D01*
Y156025D01*
X525874D01*
Y156200D01*
Y156375D01*
Y156550D01*
X525699D01*
Y156725D01*
Y156900D01*
D02*
G37*
G36*
X498224D02*
X492099D01*
Y156725D01*
X491574D01*
Y156550D01*
X491224D01*
Y156375D01*
X490874D01*
Y156200D01*
Y156025D01*
X490524D01*
Y155850D01*
X490349D01*
Y155675D01*
X490524D01*
Y155500D01*
X490174D01*
Y155325D01*
Y155150D01*
Y154975D01*
Y154800D01*
X489999D01*
Y154625D01*
Y154450D01*
Y154275D01*
Y154100D01*
Y153925D01*
Y153750D01*
Y153575D01*
Y153400D01*
Y153225D01*
X490174D01*
Y153050D01*
Y152875D01*
Y152700D01*
Y152525D01*
Y152350D01*
Y152175D01*
X490524D01*
Y152000D01*
X490349D01*
Y151825D01*
X490524D01*
Y151650D01*
Y151475D01*
X490699D01*
Y151300D01*
X490874D01*
Y151125D01*
X491049D01*
Y150950D01*
X491224D01*
Y150775D01*
Y150600D01*
X491399D01*
Y150425D01*
X491574D01*
Y150250D01*
X491749D01*
Y150075D01*
Y149900D01*
X492099D01*
Y149725D01*
X492274D01*
Y149550D01*
X492799D01*
Y149375D01*
Y149200D01*
X492974D01*
Y149025D01*
Y148850D01*
Y148675D01*
X492799D01*
Y148500D01*
Y148325D01*
Y148150D01*
X492624D01*
Y147975D01*
Y147800D01*
Y147625D01*
X492449D01*
Y147450D01*
Y147275D01*
Y147100D01*
X492274D01*
Y146925D01*
Y146750D01*
Y146575D01*
X492099D01*
Y146400D01*
Y146225D01*
Y146050D01*
X491924D01*
Y145875D01*
Y145700D01*
Y145525D01*
Y145350D01*
Y145175D01*
Y145000D01*
X495599D01*
Y145175D01*
Y145350D01*
Y145525D01*
Y145700D01*
X495774D01*
Y145875D01*
Y146050D01*
Y146225D01*
Y146400D01*
Y146575D01*
Y146750D01*
Y146925D01*
X496124D01*
Y147100D01*
Y147275D01*
X495949D01*
Y147450D01*
X496124D01*
Y147625D01*
Y147800D01*
Y147975D01*
Y148150D01*
X496299D01*
Y148325D01*
Y148500D01*
X497874D01*
Y148325D01*
Y148150D01*
X498049D01*
Y147975D01*
Y147800D01*
Y147625D01*
X498224D01*
Y147450D01*
Y147275D01*
X498399D01*
Y147100D01*
Y146925D01*
Y146750D01*
X498574D01*
Y146575D01*
Y146400D01*
Y146225D01*
Y146050D01*
Y145875D01*
X498924D01*
Y145700D01*
Y145525D01*
Y145350D01*
Y145175D01*
Y145000D01*
X501899D01*
Y145175D01*
Y145350D01*
Y145525D01*
Y145700D01*
X501724D01*
Y145875D01*
Y146050D01*
Y146225D01*
X501549D01*
Y146400D01*
Y146575D01*
X501374D01*
Y146750D01*
Y146925D01*
Y147100D01*
Y147275D01*
X501199D01*
Y147450D01*
Y147625D01*
Y147800D01*
Y147975D01*
Y148150D01*
X501024D01*
Y148325D01*
X500849D01*
Y148500D01*
X501024D01*
Y148675D01*
X500674D01*
Y148850D01*
Y149025D01*
Y149200D01*
Y149375D01*
Y149550D01*
Y149725D01*
X500499D01*
Y149900D01*
Y150075D01*
X500324D01*
Y150250D01*
Y150425D01*
Y150600D01*
X500149D01*
Y150775D01*
Y150950D01*
Y151125D01*
X499974D01*
Y151300D01*
Y151475D01*
Y151650D01*
X499799D01*
Y151825D01*
Y152000D01*
X499624D01*
Y152175D01*
Y152350D01*
Y152525D01*
X499449D01*
Y152700D01*
Y152875D01*
Y153050D01*
Y153225D01*
Y153400D01*
Y153575D01*
X499099D01*
Y153750D01*
Y153925D01*
Y154100D01*
Y154275D01*
Y154450D01*
Y154625D01*
X498924D01*
Y154800D01*
Y154975D01*
Y155150D01*
X498749D01*
Y155325D01*
Y155500D01*
X498574D01*
Y155675D01*
Y155850D01*
Y156025D01*
X498399D01*
Y156200D01*
Y156375D01*
Y156550D01*
X498224D01*
Y156725D01*
Y156900D01*
D02*
G37*
G36*
X472323D02*
X466198D01*
Y156725D01*
X465673D01*
Y156550D01*
X465323D01*
Y156375D01*
X465148D01*
Y156200D01*
X464973D01*
Y156025D01*
X464623D01*
Y155850D01*
X464448D01*
Y155675D01*
Y155500D01*
X464273D01*
Y155325D01*
Y155150D01*
X464098D01*
Y154975D01*
Y154800D01*
Y154625D01*
Y154450D01*
Y154275D01*
Y154100D01*
Y153925D01*
Y153750D01*
Y153575D01*
Y153400D01*
Y153225D01*
Y153050D01*
Y152875D01*
Y152700D01*
Y152525D01*
X464448D01*
Y152350D01*
X464273D01*
Y152175D01*
Y152000D01*
X464448D01*
Y151825D01*
Y151650D01*
X464623D01*
Y151475D01*
Y151300D01*
X464798D01*
Y151125D01*
X464973D01*
Y150950D01*
X465148D01*
Y150775D01*
Y150600D01*
X465323D01*
Y150425D01*
X465498D01*
Y150250D01*
X465673D01*
Y150075D01*
Y149900D01*
X465848D01*
Y149725D01*
X466023D01*
Y149550D01*
X466373D01*
Y149375D01*
X466548D01*
Y149200D01*
X466723D01*
Y149025D01*
X467073D01*
Y148850D01*
X467248D01*
Y148675D01*
X467598D01*
Y148500D01*
X467948D01*
Y148325D01*
X468473D01*
Y148150D01*
X469173D01*
Y147975D01*
X472148D01*
Y147800D01*
Y147625D01*
Y147450D01*
X472323D01*
Y147275D01*
Y147100D01*
X472498D01*
Y146925D01*
Y146750D01*
Y146575D01*
Y146400D01*
Y146225D01*
X472673D01*
Y146050D01*
X472849D01*
Y145875D01*
X472673D01*
Y145700D01*
X472849D01*
Y145525D01*
Y145350D01*
Y145175D01*
X473199D01*
Y145000D01*
X475998D01*
Y145175D01*
Y145350D01*
Y145525D01*
Y145700D01*
X475823D01*
Y145875D01*
Y146050D01*
Y146225D01*
X475648D01*
Y146400D01*
Y146575D01*
X475473D01*
Y146750D01*
Y146925D01*
Y147100D01*
X475299D01*
Y147275D01*
Y147450D01*
Y147625D01*
X475124D01*
Y147800D01*
Y147975D01*
Y148150D01*
Y148325D01*
Y148500D01*
X474774D01*
Y148675D01*
Y148850D01*
Y149025D01*
Y149200D01*
Y149375D01*
Y149550D01*
X474599D01*
Y149725D01*
Y149900D01*
Y150075D01*
X474424D01*
Y150250D01*
Y150425D01*
X474249D01*
Y150600D01*
Y150775D01*
Y150950D01*
Y151125D01*
X474074D01*
Y151300D01*
Y151475D01*
Y151650D01*
X473899D01*
Y151825D01*
Y152000D01*
X473724D01*
Y152175D01*
Y152350D01*
Y152525D01*
X473549D01*
Y152700D01*
Y152875D01*
Y153050D01*
Y153225D01*
Y153400D01*
X473199D01*
Y153575D01*
X473374D01*
Y153750D01*
Y153925D01*
X473024D01*
Y154100D01*
Y154275D01*
Y154450D01*
Y154625D01*
Y154800D01*
Y154975D01*
X472849D01*
Y155150D01*
Y155325D01*
X472673D01*
Y155500D01*
Y155675D01*
Y155850D01*
X472498D01*
Y156025D01*
Y156200D01*
Y156375D01*
X472323D01*
Y156550D01*
Y156725D01*
Y156900D01*
D02*
G37*
G36*
X443798D02*
X437673D01*
Y156725D01*
X437148D01*
Y156550D01*
X436798D01*
Y156375D01*
X436623D01*
Y156200D01*
X436273D01*
Y156025D01*
X436098D01*
Y155850D01*
Y155675D01*
X435923D01*
Y155500D01*
X435748D01*
Y155325D01*
Y155150D01*
X435573D01*
Y154975D01*
Y154800D01*
Y154625D01*
X435398D01*
Y154450D01*
Y154275D01*
Y154100D01*
Y153925D01*
Y153750D01*
Y153575D01*
Y153400D01*
X435573D01*
Y153225D01*
Y153050D01*
Y152875D01*
X435748D01*
Y152700D01*
Y152525D01*
Y152350D01*
X435923D01*
Y152175D01*
Y152000D01*
Y151825D01*
X436098D01*
Y151650D01*
X436273D01*
Y151475D01*
Y151300D01*
X436448D01*
Y151125D01*
Y150950D01*
X436798D01*
Y150775D01*
Y150600D01*
X436973D01*
Y150425D01*
Y150250D01*
X437323D01*
Y150075D01*
Y149900D01*
X437673D01*
Y149725D01*
X437848D01*
Y149550D01*
X438198D01*
Y149375D01*
X438373D01*
Y149200D01*
X438548D01*
Y149025D01*
X438373D01*
Y148850D01*
X438548D01*
Y148675D01*
X438198D01*
Y148500D01*
Y148325D01*
Y148150D01*
Y147975D01*
Y147800D01*
Y147625D01*
X438023D01*
Y147450D01*
Y147275D01*
Y147100D01*
Y146925D01*
X437848D01*
Y146750D01*
Y146575D01*
Y146400D01*
X437673D01*
Y146225D01*
Y146050D01*
Y145875D01*
X437498D01*
Y145700D01*
Y145525D01*
Y145350D01*
Y145175D01*
X437673D01*
Y145000D01*
X440998D01*
Y145175D01*
Y145350D01*
Y145525D01*
X441173D01*
Y145700D01*
Y145875D01*
Y146050D01*
X441348D01*
Y146225D01*
Y146400D01*
Y146575D01*
Y146750D01*
X441523D01*
Y146925D01*
Y147100D01*
Y147275D01*
Y147450D01*
X441698D01*
Y147625D01*
Y147800D01*
Y147975D01*
X441873D01*
Y148150D01*
Y148325D01*
Y148500D01*
X443448D01*
Y148325D01*
X443623D01*
Y148150D01*
Y147975D01*
Y147800D01*
Y147625D01*
Y147450D01*
X443798D01*
Y147275D01*
Y147100D01*
Y146925D01*
X443973D01*
Y146750D01*
Y146575D01*
Y146400D01*
X444148D01*
Y146225D01*
Y146050D01*
Y145875D01*
X444323D01*
Y145700D01*
Y145525D01*
X444498D01*
Y145350D01*
Y145175D01*
Y145000D01*
X447473D01*
Y145175D01*
Y145350D01*
Y145525D01*
Y145700D01*
Y145875D01*
X447123D01*
Y146050D01*
X447298D01*
Y146225D01*
X447123D01*
Y146400D01*
Y146575D01*
Y146750D01*
X446948D01*
Y146925D01*
Y147100D01*
Y147275D01*
X446773D01*
Y147450D01*
Y147625D01*
Y147800D01*
X446598D01*
Y147975D01*
Y148150D01*
X446423D01*
Y148325D01*
Y148500D01*
Y148675D01*
Y148850D01*
X446248D01*
Y149025D01*
Y149200D01*
Y149375D01*
X446073D01*
Y149550D01*
Y149725D01*
X445898D01*
Y149900D01*
Y150075D01*
Y150250D01*
Y150425D01*
Y150600D01*
Y150775D01*
X445548D01*
Y150950D01*
X445723D01*
Y151125D01*
Y151300D01*
X445373D01*
Y151475D01*
Y151650D01*
Y151825D01*
Y152000D01*
Y152175D01*
X445198D01*
Y152350D01*
Y152525D01*
Y152700D01*
X445023D01*
Y152875D01*
Y153050D01*
Y153225D01*
X444848D01*
Y153400D01*
Y153575D01*
X444673D01*
Y153750D01*
Y153925D01*
Y154100D01*
X444498D01*
Y154275D01*
Y154450D01*
Y154625D01*
X444323D01*
Y154800D01*
Y154975D01*
Y155150D01*
X444148D01*
Y155325D01*
Y155500D01*
Y155675D01*
X443973D01*
Y155850D01*
X444148D01*
Y156025D01*
Y156200D01*
X443798D01*
Y156375D01*
Y156550D01*
Y156725D01*
Y156900D01*
D02*
G37*
G36*
X431373D02*
X422797D01*
Y156725D01*
Y156550D01*
Y156375D01*
Y156200D01*
X422972D01*
Y156025D01*
Y155850D01*
Y155675D01*
X423147D01*
Y155500D01*
Y155325D01*
Y155150D01*
X423322D01*
Y154975D01*
Y154800D01*
Y154625D01*
X423497D01*
Y154450D01*
Y154275D01*
X423672D01*
Y154100D01*
X426473D01*
Y153925D01*
Y153750D01*
X426648D01*
Y153575D01*
Y153400D01*
Y153225D01*
X426823D01*
Y153050D01*
Y152875D01*
X426998D01*
Y152700D01*
Y152525D01*
Y152350D01*
X427173D01*
Y152175D01*
Y152000D01*
Y151825D01*
Y151650D01*
X427348D01*
Y151475D01*
Y151300D01*
X427523D01*
Y151125D01*
Y150950D01*
Y150775D01*
X427698D01*
Y150600D01*
Y150425D01*
Y150250D01*
Y150075D01*
Y149900D01*
Y149725D01*
X428048D01*
Y149550D01*
X427873D01*
Y149375D01*
X428048D01*
Y149200D01*
Y149025D01*
Y148850D01*
X428223D01*
Y148675D01*
Y148500D01*
Y148325D01*
X428398D01*
Y148150D01*
Y147975D01*
X428573D01*
Y147800D01*
Y147625D01*
Y147450D01*
X428748D01*
Y147275D01*
Y147100D01*
Y146925D01*
X428923D01*
Y146750D01*
Y146575D01*
Y146400D01*
X429098D01*
Y146225D01*
Y146050D01*
Y145875D01*
X429273D01*
Y145700D01*
Y145525D01*
Y145350D01*
X429448D01*
Y145175D01*
Y145000D01*
X432248D01*
Y145175D01*
Y145350D01*
Y145525D01*
Y145700D01*
X432073D01*
Y145875D01*
Y146050D01*
Y146225D01*
Y146400D01*
Y146575D01*
Y146750D01*
X431723D01*
Y146925D01*
X431898D01*
Y147100D01*
Y147275D01*
X431723D01*
Y147450D01*
Y147625D01*
Y147800D01*
X431548D01*
Y147975D01*
Y148150D01*
X431373D01*
Y148325D01*
Y148500D01*
Y148675D01*
X431198D01*
Y148850D01*
Y149025D01*
Y149200D01*
X431023D01*
Y149375D01*
Y149550D01*
Y149725D01*
X430848D01*
Y149900D01*
Y150075D01*
X430673D01*
Y150250D01*
Y150425D01*
Y150600D01*
X430498D01*
Y150775D01*
Y150950D01*
Y151125D01*
X430323D01*
Y151300D01*
Y151475D01*
Y151650D01*
Y151825D01*
Y152000D01*
Y152175D01*
X429973D01*
Y152350D01*
Y152525D01*
Y152700D01*
Y152875D01*
Y153050D01*
Y153225D01*
X429798D01*
Y153400D01*
Y153575D01*
X429623D01*
Y153750D01*
Y153925D01*
Y154100D01*
X432248D01*
Y154275D01*
Y154450D01*
Y154625D01*
X432073D01*
Y154800D01*
Y154975D01*
Y155150D01*
Y155325D01*
Y155500D01*
Y155675D01*
X431723D01*
Y155850D01*
X431898D01*
Y156025D01*
Y156200D01*
X431723D01*
Y156375D01*
Y156550D01*
Y156725D01*
X431373D01*
Y156900D01*
D02*
G37*
G36*
X536375D02*
X532524D01*
Y156725D01*
X532349D01*
Y156550D01*
X531999D01*
Y156375D01*
X531649D01*
Y156200D01*
X531474D01*
Y156025D01*
X531124D01*
Y155850D01*
X530949D01*
Y155675D01*
X530774D01*
Y155500D01*
Y155325D01*
X530599D01*
Y155150D01*
X530424D01*
Y154975D01*
X530250D01*
Y154800D01*
Y154625D01*
X530075D01*
Y154450D01*
Y154275D01*
Y154100D01*
Y153925D01*
X529900D01*
Y153750D01*
Y153575D01*
Y153400D01*
Y153225D01*
Y153050D01*
Y152875D01*
Y152700D01*
Y152525D01*
Y152350D01*
Y152175D01*
Y152000D01*
X530075D01*
Y151825D01*
Y151650D01*
Y151475D01*
Y151300D01*
X530250D01*
Y151125D01*
Y150950D01*
Y150775D01*
X530424D01*
Y150600D01*
Y150425D01*
X530599D01*
Y150250D01*
Y150075D01*
Y149900D01*
X530774D01*
Y149725D01*
Y149550D01*
X530949D01*
Y149375D01*
Y149200D01*
X531124D01*
Y149025D01*
X531299D01*
Y148850D01*
X531474D01*
Y148675D01*
Y148500D01*
X531649D01*
Y148325D01*
X531824D01*
Y148150D01*
Y147975D01*
X531999D01*
Y147800D01*
X532174D01*
Y147625D01*
Y147450D01*
X532524D01*
Y147275D01*
X532700D01*
Y147100D01*
X532875D01*
Y146925D01*
X533050D01*
Y146750D01*
X533400D01*
Y146575D01*
X533575D01*
Y146400D01*
Y146225D01*
X534100D01*
Y146050D01*
Y145875D01*
X534800D01*
Y145700D01*
X534975D01*
Y145525D01*
X535325D01*
Y145350D01*
X535850D01*
Y145175D01*
X536375D01*
Y145000D01*
X537075D01*
Y144825D01*
X539525D01*
Y145000D01*
X540225D01*
Y145175D01*
X540575D01*
Y145350D01*
X540925D01*
Y145525D01*
X541100D01*
Y145700D01*
X541450D01*
Y145875D01*
X541800D01*
Y146050D01*
Y146225D01*
X542150D01*
Y146400D01*
Y146575D01*
Y146750D01*
X542325D01*
Y146925D01*
Y147100D01*
Y147275D01*
X542675D01*
Y147450D01*
Y147625D01*
Y147800D01*
Y147975D01*
Y148150D01*
Y148325D01*
Y148500D01*
Y148675D01*
Y148850D01*
Y149025D01*
Y149200D01*
Y149375D01*
Y149550D01*
Y149725D01*
Y149900D01*
Y150075D01*
Y150250D01*
Y150425D01*
Y150600D01*
X542325D01*
Y150775D01*
X542500D01*
Y150950D01*
X542325D01*
Y151125D01*
X542150D01*
Y151300D01*
Y151475D01*
Y151650D01*
Y151825D01*
X541975D01*
Y152000D01*
Y152175D01*
X541800D01*
Y152350D01*
Y152525D01*
X541625D01*
Y152700D01*
Y152875D01*
X541450D01*
Y153050D01*
Y153225D01*
X541275D01*
Y153400D01*
X540925D01*
Y153575D01*
Y153750D01*
Y153925D01*
X540575D01*
Y154100D01*
Y154275D01*
X540225D01*
Y154450D01*
Y154625D01*
X540050D01*
Y154800D01*
X539700D01*
Y154975D01*
Y155150D01*
X539350D01*
Y155325D01*
X539000D01*
Y155500D01*
X538825D01*
Y155675D01*
X538475D01*
Y155850D01*
X538300D01*
Y156025D01*
X538125D01*
Y156200D01*
X537775D01*
Y156375D01*
X537250D01*
Y156550D01*
X536900D01*
Y156725D01*
X536375D01*
Y156900D01*
D02*
G37*
G36*
X510124D02*
X506099D01*
Y156725D01*
X505924D01*
Y156550D01*
X505574D01*
Y156375D01*
X505224D01*
Y156200D01*
X505049D01*
Y156025D01*
X504874D01*
Y155850D01*
X504699D01*
Y155675D01*
X504524D01*
Y155500D01*
X504349D01*
Y155325D01*
X504174D01*
Y155150D01*
X503999D01*
Y154975D01*
Y154800D01*
Y154625D01*
Y154450D01*
X503824D01*
Y154275D01*
Y154100D01*
Y153925D01*
Y153750D01*
X503649D01*
Y153575D01*
Y153400D01*
Y153225D01*
Y153050D01*
Y152875D01*
Y152700D01*
Y152525D01*
Y152350D01*
X503824D01*
Y152175D01*
Y152000D01*
Y151825D01*
Y151650D01*
Y151475D01*
X503999D01*
Y151300D01*
Y151125D01*
Y150950D01*
Y150775D01*
Y150600D01*
Y150425D01*
X504349D01*
Y150250D01*
X504174D01*
Y150075D01*
X504349D01*
Y149900D01*
Y149725D01*
X504524D01*
Y149550D01*
X504699D01*
Y149375D01*
Y149200D01*
X504874D01*
Y149025D01*
Y148850D01*
X505049D01*
Y148675D01*
X505224D01*
Y148500D01*
Y148325D01*
X505399D01*
Y148150D01*
X505574D01*
Y147975D01*
X505749D01*
Y147800D01*
Y147625D01*
Y147450D01*
X506099D01*
Y147275D01*
X506274D01*
Y147100D01*
X506449D01*
Y146925D01*
X506799D01*
Y146750D01*
X506974D01*
Y146575D01*
X507149D01*
Y146400D01*
X507324D01*
Y146225D01*
X507674D01*
Y146050D01*
X508024D01*
Y145875D01*
X508374D01*
Y145700D01*
X508724D01*
Y145525D01*
X509074D01*
Y145350D01*
X509424D01*
Y145175D01*
X509949D01*
Y145000D01*
X510824D01*
Y144825D01*
X513274D01*
Y145000D01*
X513799D01*
Y145175D01*
X514149D01*
Y145350D01*
X514499D01*
Y145525D01*
X514674D01*
Y145700D01*
X515024D01*
Y145875D01*
X515374D01*
Y146050D01*
Y146225D01*
X515724D01*
Y146400D01*
X515899D01*
Y146575D01*
Y146750D01*
X516074D01*
Y146925D01*
Y147100D01*
X516249D01*
Y147275D01*
Y147450D01*
Y147625D01*
Y147800D01*
Y147975D01*
Y148150D01*
Y148325D01*
X516599D01*
Y148500D01*
Y148675D01*
Y148850D01*
Y149025D01*
Y149200D01*
X516249D01*
Y149375D01*
Y149550D01*
Y149725D01*
Y149900D01*
Y150075D01*
Y150250D01*
Y150425D01*
Y150600D01*
Y150775D01*
X516074D01*
Y150950D01*
Y151125D01*
Y151300D01*
X515899D01*
Y151475D01*
Y151650D01*
Y151825D01*
X515724D01*
Y152000D01*
X515549D01*
Y152175D01*
Y152350D01*
X515374D01*
Y152525D01*
Y152700D01*
X515199D01*
Y152875D01*
X515024D01*
Y153050D01*
Y153225D01*
Y153400D01*
X514674D01*
Y153575D01*
X514499D01*
Y153750D01*
Y153925D01*
X514149D01*
Y154100D01*
Y154275D01*
Y154450D01*
X513799D01*
Y154625D01*
Y154800D01*
X513449D01*
Y154975D01*
X513274D01*
Y155150D01*
X512924D01*
Y155325D01*
X512749D01*
Y155500D01*
X512574D01*
Y155675D01*
X512224D01*
Y155850D01*
X512049D01*
Y156025D01*
X511699D01*
Y156200D01*
X511349D01*
Y156375D01*
X510999D01*
Y156550D01*
X510474D01*
Y156725D01*
X510124D01*
Y156900D01*
D02*
G37*
G36*
X482824D02*
X479149D01*
Y156725D01*
X478974D01*
Y156550D01*
X478449D01*
Y156375D01*
X478274D01*
Y156200D01*
Y156025D01*
X477923D01*
Y155850D01*
Y155675D01*
X477748D01*
Y155500D01*
Y155325D01*
X477573D01*
Y155150D01*
Y154975D01*
Y154800D01*
X477398D01*
Y154625D01*
Y154450D01*
Y154275D01*
Y154100D01*
Y153925D01*
X477573D01*
Y153750D01*
Y153575D01*
Y153400D01*
Y153225D01*
X477748D01*
Y153050D01*
X480374D01*
Y153225D01*
Y153400D01*
Y153575D01*
Y153750D01*
X480549D01*
Y153925D01*
X480724D01*
Y154100D01*
X480899D01*
Y154275D01*
X481599D01*
Y154450D01*
X481774D01*
Y154275D01*
X482649D01*
Y154100D01*
X482999D01*
Y153925D01*
X483349D01*
Y153750D01*
X483524D01*
Y153575D01*
X483699D01*
Y153400D01*
Y153225D01*
Y153050D01*
Y152875D01*
Y152700D01*
Y152525D01*
Y152350D01*
X483349D01*
Y152175D01*
X482649D01*
Y152000D01*
X481424D01*
Y151825D01*
X480024D01*
Y151650D01*
X479849D01*
Y151475D01*
X479499D01*
Y151300D01*
X479149D01*
Y151125D01*
X478974D01*
Y150950D01*
X478799D01*
Y150775D01*
Y150600D01*
X478624D01*
Y150425D01*
Y150250D01*
Y150075D01*
Y149900D01*
Y149725D01*
Y149550D01*
Y149375D01*
Y149200D01*
Y149025D01*
Y148850D01*
X478799D01*
Y148675D01*
Y148500D01*
Y148325D01*
Y148150D01*
X478974D01*
Y147975D01*
X479149D01*
Y147800D01*
Y147625D01*
Y147450D01*
X479499D01*
Y147275D01*
Y147100D01*
X479674D01*
Y146925D01*
X479849D01*
Y146750D01*
X480024D01*
Y146575D01*
X480199D01*
Y146400D01*
Y146225D01*
X480549D01*
Y146050D01*
X480724D01*
Y145875D01*
X481249D01*
Y145700D01*
X481599D01*
Y145525D01*
X481774D01*
Y145350D01*
X482124D01*
Y145175D01*
X482649D01*
Y145000D01*
X483349D01*
Y144825D01*
X486149D01*
Y145000D01*
X486499D01*
Y145175D01*
X486849D01*
Y145350D01*
X487199D01*
Y145525D01*
X487549D01*
Y145700D01*
X487724D01*
Y145875D01*
X488074D01*
Y146050D01*
Y146225D01*
X488249D01*
Y146400D01*
X488424D01*
Y146575D01*
Y146750D01*
Y146925D01*
Y147100D01*
X488599D01*
Y147275D01*
Y147450D01*
Y147625D01*
Y147800D01*
Y147975D01*
X488424D01*
Y148150D01*
Y148325D01*
Y148500D01*
X488249D01*
Y148675D01*
X485274D01*
Y148500D01*
Y148325D01*
Y148150D01*
X485099D01*
Y147975D01*
Y147800D01*
X484749D01*
Y147625D01*
X482649D01*
Y147800D01*
X482474D01*
Y147975D01*
X482124D01*
Y148150D01*
X481949D01*
Y148325D01*
X481774D01*
Y148500D01*
Y148675D01*
Y148850D01*
Y149025D01*
Y149200D01*
X482124D01*
Y149375D01*
X482299D01*
Y149550D01*
X484399D01*
Y149725D01*
X485099D01*
Y149900D01*
X485449D01*
Y150075D01*
X485799D01*
Y150250D01*
X486149D01*
Y150425D01*
X486324D01*
Y150600D01*
X486499D01*
Y150775D01*
X486674D01*
Y150950D01*
Y151125D01*
X486849D01*
Y151300D01*
Y151475D01*
Y151650D01*
Y151825D01*
Y152000D01*
Y152175D01*
Y152350D01*
Y152525D01*
Y152700D01*
Y152875D01*
Y153050D01*
X486674D01*
Y153225D01*
Y153400D01*
X486499D01*
Y153575D01*
Y153750D01*
X486324D01*
Y153925D01*
Y154100D01*
X486149D01*
Y154275D01*
Y154450D01*
X485974D01*
Y154625D01*
X485799D01*
Y154800D01*
Y154975D01*
X485624D01*
Y155150D01*
X485274D01*
Y155325D01*
Y155500D01*
X484924D01*
Y155675D01*
X484749D01*
Y155850D01*
X484574D01*
Y156025D01*
X484224D01*
Y156200D01*
X484049D01*
Y156375D01*
X483524D01*
Y156550D01*
X483174D01*
Y156725D01*
X482824D01*
Y156900D01*
D02*
G37*
G36*
X455523D02*
X451848D01*
Y156725D01*
X451498D01*
Y156550D01*
X451148D01*
Y156375D01*
X450623D01*
Y156200D01*
Y156025D01*
X450273D01*
Y155850D01*
Y155675D01*
X450098D01*
Y155500D01*
X449923D01*
Y155325D01*
X449748D01*
Y155150D01*
X449573D01*
Y154975D01*
Y154800D01*
X449398D01*
Y154625D01*
Y154450D01*
Y154275D01*
X449223D01*
Y154100D01*
Y153925D01*
Y153750D01*
Y153575D01*
Y153400D01*
X449048D01*
Y153225D01*
Y153050D01*
Y152875D01*
Y152700D01*
Y152525D01*
X449223D01*
Y152350D01*
Y152175D01*
Y152000D01*
Y151825D01*
Y151650D01*
X449398D01*
Y151475D01*
Y151300D01*
Y151125D01*
X449573D01*
Y150950D01*
Y150775D01*
Y150600D01*
X449748D01*
Y150425D01*
Y150250D01*
Y150075D01*
X449923D01*
Y149900D01*
Y149725D01*
X450098D01*
Y149550D01*
X450273D01*
Y149375D01*
Y149200D01*
Y149025D01*
X450448D01*
Y148850D01*
Y148675D01*
X450623D01*
Y148500D01*
X450798D01*
Y148325D01*
Y148150D01*
X451148D01*
Y147975D01*
X451323D01*
Y147800D01*
Y147625D01*
X451498D01*
Y147450D01*
X451848D01*
Y147275D01*
X452023D01*
Y147100D01*
X452198D01*
Y146925D01*
X452373D01*
Y146750D01*
Y146575D01*
X452723D01*
Y146400D01*
X452898D01*
Y146225D01*
X453248D01*
Y146050D01*
X453423D01*
Y145875D01*
X453948D01*
Y145700D01*
X454123D01*
Y145525D01*
X454648D01*
Y145350D01*
X454998D01*
Y145175D01*
X455698D01*
Y145000D01*
X456223D01*
Y144825D01*
X458848D01*
Y145000D01*
X459373D01*
Y145175D01*
X459723D01*
Y145350D01*
X460073D01*
Y145525D01*
X460423D01*
Y145700D01*
X460598D01*
Y145875D01*
X460773D01*
Y146050D01*
X460948D01*
Y146225D01*
X461123D01*
Y146400D01*
X461298D01*
Y146575D01*
X461473D01*
Y146750D01*
Y146925D01*
X461648D01*
Y147100D01*
Y147275D01*
Y147450D01*
X461823D01*
Y147625D01*
Y147800D01*
Y147975D01*
X461998D01*
Y148150D01*
Y148325D01*
Y148500D01*
Y148675D01*
Y148850D01*
Y149025D01*
Y149200D01*
Y149375D01*
Y149550D01*
Y149725D01*
X461823D01*
Y149900D01*
Y150075D01*
Y150250D01*
Y150425D01*
X461648D01*
Y150600D01*
Y150775D01*
Y150950D01*
X461473D01*
Y151125D01*
Y151300D01*
Y151475D01*
X461298D01*
Y151650D01*
Y151825D01*
Y152000D01*
X460948D01*
Y152175D01*
Y152350D01*
Y152525D01*
Y152700D01*
X460773D01*
Y152875D01*
Y153050D01*
X460423D01*
Y153225D01*
Y153400D01*
X460248D01*
Y153575D01*
X460073D01*
Y153750D01*
X459898D01*
Y153925D01*
Y154100D01*
X459723D01*
Y154275D01*
X459548D01*
Y154450D01*
X459373D01*
Y154625D01*
X459198D01*
Y154800D01*
X459023D01*
Y154975D01*
X458848D01*
Y155150D01*
X458498D01*
Y155325D01*
X458323D01*
Y155500D01*
X457973D01*
Y155675D01*
X457798D01*
Y155850D01*
X457623D01*
Y156025D01*
X457273D01*
Y156200D01*
X456923D01*
Y156375D01*
X456573D01*
Y156550D01*
X456048D01*
Y156725D01*
X455523D01*
Y156900D01*
D02*
G37*
%LPD*%
G36*
X496124Y153925D02*
Y153750D01*
Y153575D01*
X496299D01*
Y153400D01*
Y153225D01*
Y153050D01*
X496474D01*
Y152875D01*
Y152700D01*
Y152525D01*
X496649D01*
Y152350D01*
Y152175D01*
X496824D01*
Y152000D01*
Y151825D01*
Y151650D01*
Y151475D01*
Y151300D01*
X494199D01*
Y151475D01*
X493849D01*
Y151650D01*
X493674D01*
Y151825D01*
X493499D01*
Y152000D01*
Y152175D01*
X493324D01*
Y152350D01*
Y152525D01*
X493149D01*
Y152700D01*
Y152875D01*
Y153050D01*
Y153225D01*
X492974D01*
Y153400D01*
X493149D01*
Y153575D01*
Y153750D01*
X493324D01*
Y153925D01*
X493499D01*
Y154100D01*
X496124D01*
Y153925D01*
D02*
G37*
G36*
X470048D02*
X470223D01*
Y153750D01*
Y153575D01*
Y153400D01*
X470398D01*
Y153225D01*
Y153050D01*
Y152875D01*
X470573D01*
Y152700D01*
Y152525D01*
X470748D01*
Y152350D01*
Y152175D01*
Y152000D01*
X470923D01*
Y151825D01*
Y151650D01*
Y151475D01*
Y151300D01*
Y151125D01*
X471273D01*
Y150950D01*
Y150775D01*
X468648D01*
Y150950D01*
X468298D01*
Y151125D01*
X468123D01*
Y151300D01*
X467948D01*
Y151475D01*
X467773D01*
Y151650D01*
Y151825D01*
X467598D01*
Y152000D01*
X467423D01*
Y152175D01*
Y152350D01*
X467248D01*
Y152525D01*
Y152700D01*
Y152875D01*
Y153050D01*
X467073D01*
Y153225D01*
Y153400D01*
X467248D01*
Y153575D01*
Y153750D01*
X467423D01*
Y153925D01*
X467598D01*
Y154100D01*
X470048D01*
Y153925D01*
D02*
G37*
G36*
X441523D02*
Y153750D01*
X441873D01*
Y153575D01*
X441698D01*
Y153400D01*
Y153225D01*
X441873D01*
Y153050D01*
Y152875D01*
X442048D01*
Y152700D01*
Y152525D01*
Y152350D01*
X442223D01*
Y152175D01*
Y152000D01*
Y151825D01*
Y151650D01*
X442398D01*
Y151475D01*
Y151300D01*
X439948D01*
Y151475D01*
X439423D01*
Y151650D01*
Y151825D01*
X439073D01*
Y152000D01*
X438898D01*
Y152175D01*
X438723D01*
Y152350D01*
Y152525D01*
Y152700D01*
Y152875D01*
Y153050D01*
Y153225D01*
Y153400D01*
Y153575D01*
Y153750D01*
Y153925D01*
X438898D01*
Y154100D01*
X441523D01*
Y153925D01*
D02*
G37*
G36*
X536025D02*
X536550D01*
Y153750D01*
X537075D01*
Y153575D01*
X537425D01*
Y153400D01*
Y153225D01*
X537775D01*
Y153050D01*
X537950D01*
Y152875D01*
X538300D01*
Y152700D01*
Y152525D01*
X538650D01*
Y152350D01*
X538475D01*
Y152175D01*
X538650D01*
Y152000D01*
X538825D01*
Y151825D01*
Y151650D01*
X539000D01*
Y151475D01*
Y151300D01*
X539175D01*
Y151125D01*
Y150950D01*
X539350D01*
Y150775D01*
Y150600D01*
Y150425D01*
Y150250D01*
X539525D01*
Y150075D01*
Y149900D01*
Y149725D01*
Y149550D01*
Y149375D01*
Y149200D01*
X539350D01*
Y149025D01*
Y148850D01*
Y148675D01*
X539175D01*
Y148500D01*
X539000D01*
Y148325D01*
X538825D01*
Y148150D01*
X538650D01*
Y147975D01*
X538125D01*
Y147800D01*
X536725D01*
Y147975D01*
X536200D01*
Y148150D01*
X535500D01*
Y148325D01*
X535325D01*
Y148500D01*
X535150D01*
Y148675D01*
X534800D01*
Y148850D01*
X534625D01*
Y149025D01*
X534450D01*
Y149200D01*
X534275D01*
Y149375D01*
Y149550D01*
X534100D01*
Y149725D01*
X533925D01*
Y149900D01*
Y150075D01*
X533750D01*
Y150250D01*
Y150425D01*
X533400D01*
Y150600D01*
X533575D01*
Y150775D01*
Y150950D01*
X533400D01*
Y151125D01*
Y151300D01*
Y151475D01*
Y151650D01*
X533225D01*
Y151825D01*
Y152000D01*
Y152175D01*
Y152350D01*
Y152525D01*
X533400D01*
Y152700D01*
Y152875D01*
Y153050D01*
Y153225D01*
X533575D01*
Y153400D01*
X533750D01*
Y153575D01*
X533925D01*
Y153750D01*
X534275D01*
Y153925D01*
X534800D01*
Y154100D01*
X536025D01*
Y153925D01*
D02*
G37*
G36*
X509774D02*
X510299D01*
Y153750D01*
X510649D01*
Y153575D01*
X510999D01*
Y153400D01*
X511174D01*
Y153225D01*
X511524D01*
Y153050D01*
Y152875D01*
X511874D01*
Y152700D01*
X512049D01*
Y152525D01*
X512224D01*
Y152350D01*
X512399D01*
Y152175D01*
Y152000D01*
X512574D01*
Y151825D01*
X512399D01*
Y151650D01*
X512749D01*
Y151475D01*
Y151300D01*
Y151125D01*
X512924D01*
Y150950D01*
Y150775D01*
Y150600D01*
X513099D01*
Y150425D01*
Y150250D01*
Y150075D01*
Y149900D01*
Y149725D01*
Y149550D01*
Y149375D01*
Y149200D01*
Y149025D01*
X512924D01*
Y148850D01*
Y148675D01*
X512749D01*
Y148500D01*
Y148325D01*
Y148150D01*
X512224D01*
Y147975D01*
X511699D01*
Y147800D01*
X510299D01*
Y147975D01*
X509774D01*
Y148150D01*
X509249D01*
Y148325D01*
X509074D01*
Y148500D01*
X508724D01*
Y148675D01*
X508549D01*
Y148850D01*
X508199D01*
Y149025D01*
Y149200D01*
X508024D01*
Y149375D01*
X507849D01*
Y149550D01*
X507674D01*
Y149725D01*
X507499D01*
Y149900D01*
Y150075D01*
Y150250D01*
X507324D01*
Y150425D01*
Y150600D01*
X507149D01*
Y150775D01*
Y150950D01*
Y151125D01*
X506974D01*
Y151300D01*
Y151475D01*
Y151650D01*
Y151825D01*
Y152000D01*
Y152175D01*
Y152350D01*
Y152525D01*
Y152700D01*
Y152875D01*
X507149D01*
Y153050D01*
Y153225D01*
X507324D01*
Y153400D01*
X507499D01*
Y153575D01*
Y153750D01*
X507849D01*
Y153925D01*
X508374D01*
Y154100D01*
X509774D01*
Y153925D01*
D02*
G37*
G36*
X455348D02*
X455698D01*
Y153750D01*
X456048D01*
Y153575D01*
X456398D01*
Y153400D01*
X456748D01*
Y153225D01*
X456923D01*
Y153050D01*
X457098D01*
Y152875D01*
X457448D01*
Y152700D01*
Y152525D01*
X457623D01*
Y152350D01*
X457798D01*
Y152175D01*
X457973D01*
Y152000D01*
Y151825D01*
X458148D01*
Y151650D01*
Y151475D01*
X458323D01*
Y151300D01*
X458498D01*
Y151125D01*
Y150950D01*
Y150775D01*
X458673D01*
Y150600D01*
Y150425D01*
Y150250D01*
Y150075D01*
Y149900D01*
Y149725D01*
Y149550D01*
Y149375D01*
Y149200D01*
Y149025D01*
Y148850D01*
X458498D01*
Y148675D01*
Y148500D01*
X458148D01*
Y148325D01*
Y148150D01*
X457798D01*
Y147975D01*
X457273D01*
Y147800D01*
X455698D01*
Y147975D01*
X455348D01*
Y148150D01*
X454648D01*
Y148325D01*
Y148500D01*
X454298D01*
Y148675D01*
X453948D01*
Y148850D01*
Y149025D01*
X453598D01*
Y149200D01*
Y149375D01*
X453423D01*
Y149550D01*
X453248D01*
Y149725D01*
X453073D01*
Y149900D01*
Y150075D01*
X452898D01*
Y150250D01*
X452723D01*
Y150425D01*
Y150600D01*
Y150775D01*
X452548D01*
Y150950D01*
Y151125D01*
Y151300D01*
Y151475D01*
Y151650D01*
Y151825D01*
Y152000D01*
Y152175D01*
Y152350D01*
Y152525D01*
Y152700D01*
Y152875D01*
Y153050D01*
X452723D01*
Y153225D01*
Y153400D01*
X452898D01*
Y153575D01*
X453248D01*
Y153750D01*
X453423D01*
Y153925D01*
X453948D01*
Y154100D01*
X455348D01*
Y153925D01*
D02*
G37*
D11*
X484167Y267166D02*
X483501Y267833D01*
Y269166D01*
X484167Y269832D01*
X486833D01*
X487499Y269166D01*
Y267833D01*
X486833Y267166D01*
X483501Y265833D02*
Y263168D01*
X484167D01*
X486833Y265833D01*
X487499D01*
X484167Y232166D02*
X483501Y232833D01*
Y234166D01*
X484167Y234832D01*
X486833D01*
X487499Y234166D01*
Y232833D01*
X486833Y232166D01*
X483501Y228168D02*
X484167Y229501D01*
X485500Y230834D01*
X486833D01*
X487499Y230167D01*
Y228834D01*
X486833Y228168D01*
X486166D01*
X485500Y228834D01*
Y230834D01*
X478167Y267166D02*
X477501Y267833D01*
Y269166D01*
X478167Y269832D01*
X480833D01*
X481499Y269166D01*
Y267833D01*
X480833Y267166D01*
X477501Y263168D02*
Y265833D01*
X479500D01*
X478834Y264501D01*
Y263834D01*
X479500Y263168D01*
X480833D01*
X481499Y263834D01*
Y265167D01*
X480833Y265833D01*
X472167Y267166D02*
X471501Y267833D01*
Y269166D01*
X472167Y269832D01*
X474833D01*
X475499Y269166D01*
Y267833D01*
X474833Y267166D01*
X472167Y265833D02*
X471501Y265167D01*
Y263834D01*
X472167Y263168D01*
X472834D01*
X473500Y263834D01*
Y264501D01*
Y263834D01*
X474166Y263168D01*
X474833D01*
X475499Y263834D01*
Y265167D01*
X474833Y265833D01*
X478167Y232166D02*
X477501Y232833D01*
Y234166D01*
X478167Y234832D01*
X480833D01*
X481499Y234166D01*
Y232833D01*
X480833Y232166D01*
X481499Y228834D02*
X477501D01*
X479500Y230834D01*
Y228168D01*
X472167Y232166D02*
X471501Y232833D01*
Y234166D01*
X472167Y234832D01*
X474833D01*
X475499Y234166D01*
Y232833D01*
X474833Y232166D01*
X475499Y228168D02*
Y230834D01*
X472834Y228168D01*
X472167D01*
X471501Y228834D01*
Y230167D01*
X472167Y230834D01*
D12*
X488500Y249000D02*
Y254000D01*
Y256000D02*
Y261000D01*
X482500Y249000D02*
Y254000D01*
Y256000D02*
Y261000D01*
Y249000D02*
X488500D01*
X482500Y261000D02*
X488500D01*
X482500Y244000D02*
Y249000D01*
Y237000D02*
Y242000D01*
X488500Y244000D02*
Y249000D01*
Y237000D02*
Y242000D01*
X482500Y249000D02*
X488500D01*
X482500Y237000D02*
X488500D01*
X482500Y249000D02*
Y254000D01*
Y256000D02*
Y261000D01*
X476500Y249000D02*
Y254000D01*
Y256000D02*
Y261000D01*
Y249000D02*
X482500D01*
X476500Y261000D02*
X482500D01*
X476500Y249000D02*
Y254000D01*
Y256000D02*
Y261000D01*
X470500Y249000D02*
Y254000D01*
Y256000D02*
Y261000D01*
Y249000D02*
X476500D01*
X470500Y261000D02*
X476500D01*
Y244000D02*
Y249000D01*
Y237000D02*
Y242000D01*
X482500Y244000D02*
Y249000D01*
Y237000D02*
Y242000D01*
X476500Y249000D02*
X482500D01*
X476500Y237000D02*
X482500D01*
X470500Y244000D02*
Y249000D01*
Y237000D02*
Y242000D01*
X476500Y244000D02*
Y249000D01*
Y237000D02*
Y242000D01*
X470500Y249000D02*
X476500D01*
X470500Y237000D02*
X476500D01*
D61*
X527336Y378662D02*
Y385327D01*
X529002Y386993D01*
X532334D01*
X534000Y385327D01*
Y378662D01*
X532334Y376996D01*
X529002D01*
X530668Y380328D02*
X527336Y376996D01*
X529002D02*
X527336Y378662D01*
X524003Y386993D02*
Y378662D01*
X522337Y376996D01*
X519005D01*
X517339Y378662D01*
Y386993D01*
X514007D02*
X507342D01*
X510674D01*
Y376996D01*
X504010D02*
Y386993D01*
X500677Y383661D01*
X497345Y386993D01*
Y376996D01*
X487348Y385327D02*
X489014Y386993D01*
X492347D01*
X494013Y385327D01*
Y383661D01*
X492347Y381995D01*
X489014D01*
X487348Y380328D01*
Y378662D01*
X489014Y376996D01*
X492347D01*
X494013Y378662D01*
X467355Y385327D02*
X469021Y386993D01*
X472353D01*
X474019Y385327D01*
Y378662D01*
X472353Y376996D01*
X469021D01*
X467355Y378662D01*
Y381995D01*
X470687D01*
X457358Y386993D02*
X464023D01*
Y376996D01*
X457358D01*
X464023Y381995D02*
X460690D01*
X454026Y376996D02*
Y386993D01*
X447361Y376996D01*
Y386993D01*
X437365D02*
X444029D01*
Y376996D01*
X437365D01*
X444029Y381995D02*
X440697D01*
X434032Y376996D02*
Y386993D01*
X429034D01*
X427368Y385327D01*
Y381995D01*
X429034Y380328D01*
X434032D01*
X430700D02*
X427368Y376996D01*
X424036D02*
Y383661D01*
X420703Y386993D01*
X417371Y383661D01*
Y376996D01*
Y381995D01*
X424036D01*
X414039Y386993D02*
Y376996D01*
X407374D01*
X527336Y367331D02*
X529002Y368997D01*
X532334D01*
X534000Y367331D01*
Y365665D01*
X532334Y363998D01*
X529002D01*
X527336Y362332D01*
Y360666D01*
X529002Y359000D01*
X532334D01*
X534000Y360666D01*
X517339Y368997D02*
X524003D01*
Y359000D01*
X517339D01*
X524003Y363998D02*
X520671D01*
X514007Y359000D02*
Y368997D01*
X507342Y359000D01*
Y368997D01*
X497345Y367331D02*
X499011Y368997D01*
X502344D01*
X504010Y367331D01*
Y365665D01*
X502344Y363998D01*
X499011D01*
X497345Y362332D01*
Y360666D01*
X499011Y359000D01*
X502344D01*
X504010Y360666D01*
X489014Y368997D02*
X492347D01*
X494013Y367331D01*
Y360666D01*
X492347Y359000D01*
X489014D01*
X487348Y360666D01*
Y367331D01*
X489014Y368997D01*
X484016Y359000D02*
Y368997D01*
X479018D01*
X477352Y367331D01*
Y363998D01*
X479018Y362332D01*
X484016D01*
X480684D02*
X477352Y359000D01*
X464023Y368997D02*
Y359000D01*
X459024D01*
X457358Y360666D01*
Y362332D01*
X459024Y363998D01*
X464023D01*
X459024D01*
X457358Y365665D01*
Y367331D01*
X459024Y368997D01*
X464023D01*
X449027D02*
X452360D01*
X454026Y367331D01*
Y360666D01*
X452360Y359000D01*
X449027D01*
X447361Y360666D01*
Y367331D01*
X449027Y368997D01*
X444029Y359000D02*
Y365665D01*
X440697Y368997D01*
X437365Y365665D01*
Y359000D01*
Y363998D01*
X444029D01*
X434032Y359000D02*
Y368997D01*
X429034D01*
X427368Y367331D01*
Y363998D01*
X429034Y362332D01*
X434032D01*
X430700D02*
X427368Y359000D01*
X424036Y368997D02*
Y359000D01*
X419037D01*
X417371Y360666D01*
Y367331D01*
X419037Y368997D01*
X424036D01*
M02*
