M48
;Layer_Color=9474304
;FILE_FORMAT=2:5
INCH,TZ
;TYPE=PLATED
T1F00S00C0.01181
T2F00S00C0.02500
T3F00S00C0.04000
T4F00S00C0.11811
;TYPE=NON_PLATED
T5F00S00C0.13780
%
T01
X484000Y179500
X488500Y216500
X501000Y214000
X499500Y231500
X489582Y242026
X492000Y249000
X481000Y234500
X477000Y234490
X479500Y225500
X468855Y242855
X476500Y263500
X481000
X464000Y265000
X460000
X456000
X452000
X448000Y200500
X460760Y188760
X431500Y188000
X424453Y194000
X400500Y332000
X472500Y341500
Y360500
X472000Y370000
X499000Y353500
X530000Y358500
T02
X432500Y232000
Y237000
Y242000
X437500
Y247000
X432500
Y252000
X437500
Y237000
Y232000
T03
X560181Y198094
Y209906
X572000
Y198094
Y244094
Y255906
X560181
Y244094
Y290094
Y301905
X572000Y301905
X572000Y290094
X399319Y288189
Y300000
Y311811
X387500
X387500Y300000
X387500Y288189
Y253811
Y242000
X387500Y230189
X399319
Y242000
Y253811
Y194905
Y183095
X387500
X387500Y194905
X456000Y319500
X466000
X464000Y333000
X474000
X485000
X495000
X476000Y319500
X544500Y340500
Y350500
X560181Y349905
Y338094
X572000Y338094
Y349905
T04
X589000Y204000
Y250000
Y296000
X370500Y300000
Y242000
Y189000
X589000Y344000
T05
X361640Y151390
X597860
Y387610
M30
