G04*
G04 #@! TF.GenerationSoftware,Altium Limited,Altium Designer,20.1.14 (287)*
G04*
G04 Layer_Physical_Order=1*
G04 Layer_Color=255*
%FSLAX25Y25*%
%MOIN*%
G70*
G04*
G04 #@! TF.SameCoordinates,9EA74FF0-E2A0-47AC-9F38-8029312ED962*
G04*
G04*
G04 #@! TF.FilePolarity,Positive*
G04*
G01*
G75*
%ADD11C,0.01000*%
%ADD14C,0.00500*%
%ADD39R,0.03000X0.04000*%
%ADD40R,0.04300X0.04800*%
%ADD41R,0.03500X0.03500*%
G04:AMPARAMS|DCode=42|XSize=11.81mil|YSize=47.24mil|CornerRadius=0mil|HoleSize=0mil|Usage=FLASHONLY|Rotation=135.000|XOffset=0mil|YOffset=0mil|HoleType=Round|Shape=Rectangle|*
%AMROTATEDRECTD42*
4,1,4,0.02088,0.01253,-0.01253,-0.02088,-0.02088,-0.01253,0.01253,0.02088,0.02088,0.01253,0.0*
%
%ADD42ROTATEDRECTD42*%

G04:AMPARAMS|DCode=43|XSize=11.81mil|YSize=47.24mil|CornerRadius=0mil|HoleSize=0mil|Usage=FLASHONLY|Rotation=225.000|XOffset=0mil|YOffset=0mil|HoleType=Round|Shape=Rectangle|*
%AMROTATEDRECTD43*
4,1,4,-0.01253,0.02088,0.02088,-0.01253,0.01253,-0.02088,-0.02088,0.01253,-0.01253,0.02088,0.0*
%
%ADD43ROTATEDRECTD43*%

%ADD44C,0.03937*%
%ADD45R,0.04000X0.03000*%
%ADD46R,0.01575X0.01280*%
%ADD47R,0.06299X0.11811*%
%ADD48R,0.22835X0.24410*%
%ADD49R,0.07100X0.04700*%
%ADD50R,0.07087X0.22441*%
%ADD51C,0.04500*%
%ADD52R,0.06102X0.02362*%
%ADD53R,0.03150X0.03543*%
%ADD54R,0.05118X0.11024*%
%ADD55R,0.03500X0.07000*%
%ADD56C,0.02000*%
%ADD57C,0.08000*%
%ADD58C,0.04000*%
%ADD59C,0.07000*%
%ADD60C,0.02362*%
D11*
X504500Y352375D02*
Y372000D01*
X498500Y346375D02*
X504500Y352375D01*
X435500Y181500D02*
X438624Y184624D01*
Y190621D01*
X440502Y192500D01*
X440624D01*
X441624Y193500D01*
Y194000D01*
X524018Y371518D02*
X524500Y372000D01*
X521679Y371518D02*
X524018D01*
X510580Y360419D02*
X521679Y371518D01*
X565702Y344393D02*
X572000Y338094D01*
X550607Y344393D02*
X565702D01*
X544500Y350500D02*
X550607Y344393D01*
X544468Y350532D02*
X544500Y350500D01*
X474376Y200000D02*
Y200500D01*
X479126Y205250D01*
X479250D01*
X480500Y206500D01*
X495742Y343617D02*
X498500Y346375D01*
X513262Y348617D02*
X515132D01*
X510580Y351298D02*
X513262Y348617D01*
X510580Y351298D02*
Y360419D01*
X529500Y166500D02*
X531499D01*
X530500D01*
Y172498D01*
X529500Y171498D01*
D14*
X498500Y346375D02*
Y349865D01*
Y346375D02*
Y346375D01*
X482000Y351000D02*
X497365D01*
X498500Y349865D01*
X487271Y263887D02*
Y264068D01*
X485325Y261941D02*
X487271Y263887D01*
X485325Y255675D02*
Y261941D01*
Y255675D02*
X492000Y249000D01*
X474500Y206500D02*
X499500Y231500D01*
X493393Y231393D02*
Y235494D01*
X471500Y209500D02*
X493393Y231393D01*
X479500Y225500D02*
X483095Y229095D01*
Y229269D01*
X471462Y279877D02*
X483095Y268244D01*
X395812Y279877D02*
X471462D01*
X483095Y268244D02*
X483095D01*
X387500Y288189D02*
X395812Y279877D01*
X452000Y265000D02*
X457431Y259569D01*
X463427Y257108D02*
X463608D01*
X464923Y258500D02*
X465000D01*
X462431Y262569D02*
X463715D01*
X456000Y265000D02*
X459931Y261069D01*
X463715Y262569D02*
X466392Y259892D01*
X460000Y265000D02*
X462431Y262569D01*
X456000Y265000D02*
X456000D01*
X462431Y261069D02*
X465000Y258500D01*
X459931Y261069D02*
X462431D01*
X467750Y261284D02*
X467784D01*
X464000Y265000D02*
X464034D01*
X467750Y261284D01*
X457431Y259569D02*
X461147D01*
X472500Y341500D02*
X482000Y351000D01*
X467624Y341500D02*
X472500D01*
X461147Y259569D02*
X463608Y257108D01*
X443162Y257662D02*
X460089D01*
X437500Y252000D02*
X437655Y251845D01*
X460089Y257662D02*
X462035Y255716D01*
X403931Y270431D02*
X469695D01*
X395181Y271931D02*
X470979D01*
X381750Y258500D02*
X395181Y271931D01*
X399338Y253811D02*
X412958Y267431D01*
X387500Y254000D02*
X403931Y270431D01*
X404552Y268931D02*
X468411D01*
X471883Y265460D01*
X470979Y271931D02*
X474666Y268244D01*
X397602Y261981D02*
X404552Y268931D01*
X467204Y267431D02*
X470568Y264068D01*
X412958Y267431D02*
X467204D01*
X469695Y270431D02*
X473275Y266852D01*
X397602Y261981D02*
X397602D01*
X394069Y258448D02*
X397602Y261981D01*
X437500Y252000D02*
X443162Y257662D01*
X462035Y255716D02*
X462216D01*
X468995Y262676D02*
X469176D01*
X471883Y265460D02*
X471960D01*
X466211Y237621D02*
X466392D01*
X466211Y237440D02*
Y237621D01*
X387500Y194905D02*
X403594Y211000D01*
X437766D01*
X440414Y208351D01*
Y207209D02*
Y208351D01*
Y207209D02*
X441624Y206000D01*
X413663Y209250D02*
X437394D01*
X399319Y194905D02*
X399319D01*
X413663Y209250D01*
X444466Y200721D02*
X447500Y203755D01*
Y213161D02*
X456466Y222127D01*
X447500Y203755D02*
Y213161D01*
X441624Y200500D02*
X444500Y203376D01*
Y212945D02*
X467784Y236229D01*
X444500Y203376D02*
Y212945D01*
X471500Y197609D02*
Y209500D01*
X456134Y196490D02*
X490609Y230965D01*
Y232710D01*
X491447Y237440D02*
Y237621D01*
Y237440D02*
X493393Y235494D01*
X474084Y196750D02*
X474376Y196457D01*
Y194000D02*
Y196457D01*
X472359Y196750D02*
X474084D01*
X471500Y197609D02*
X472359Y196750D01*
X456134Y196240D02*
Y196490D01*
X444466Y191342D02*
Y200721D01*
X441624Y200000D02*
Y200500D01*
X452734Y185842D02*
Y212827D01*
X441624Y206000D02*
Y212853D01*
X437394Y209250D02*
X438126Y208518D01*
Y203997D02*
Y208518D01*
X494231Y240405D02*
X510874Y223762D01*
Y215250D02*
Y223762D01*
Y215250D02*
X512124Y214000D01*
X488663Y234656D02*
X490609Y232710D01*
X488663Y234656D02*
Y234837D01*
X452734Y212827D02*
X471960Y232053D01*
X452734Y185842D02*
X453126Y185450D01*
X456466Y222127D02*
Y222127D01*
X469176Y234837D01*
X444250Y178750D02*
X452394D01*
X441500Y181500D02*
X444250Y178750D01*
X453126Y179482D02*
Y185450D01*
X452394Y178750D02*
X453126Y179482D01*
X441624Y212853D02*
X466211Y237440D01*
X441624Y188500D02*
X444466Y191342D01*
X441624Y188000D02*
Y188500D01*
X382250Y305250D02*
X387500Y300000D01*
X387264Y319000D02*
X444500D01*
X382250Y305250D02*
Y313986D01*
X387264Y319000D01*
X498407Y252932D02*
X501000Y255526D01*
Y276624D02*
X525876Y301500D01*
X501000Y255526D02*
Y276624D01*
X495623Y255793D02*
X497785Y257955D01*
Y263594D01*
X499500Y256809D02*
Y264000D01*
X497015Y254324D02*
X499500Y256809D01*
X495623Y255716D02*
Y255793D01*
X444500Y319000D02*
X499500Y264000D01*
X443879Y317500D02*
X497785Y263594D01*
X511522Y228681D02*
Y228681D01*
X525876Y211000D02*
Y214327D01*
X511522Y228681D02*
X525876Y214327D01*
X497015Y243189D02*
X511522Y228681D01*
X503950Y250124D02*
X526000D01*
X498407Y244581D02*
X503950Y250124D01*
X498407Y244581D02*
X498407D01*
X525876Y301500D02*
Y302000D01*
X437500Y247000D02*
X457013D01*
X459432Y244581D01*
X459432D01*
X473275Y266852D02*
X473352D01*
X474666Y268244D02*
X474744D01*
X399319Y253811D02*
X399338D01*
X393189Y317500D02*
X443879D01*
X387500Y311811D02*
X393189Y317500D01*
X399319Y300000D02*
X459257D01*
X496285Y262973D01*
X463697Y293439D02*
X494785Y262351D01*
X398455Y293439D02*
X463697D01*
X437500Y247000D02*
X437750Y247250D01*
X438126Y203997D02*
X441624Y200500D01*
X394069Y297825D02*
X398455Y293439D01*
X394069Y306561D02*
X399319Y311811D01*
X394069Y247250D02*
X399319Y242000D01*
X394069Y247250D02*
Y258448D01*
X381750Y247750D02*
Y258500D01*
X394069Y297825D02*
Y306561D01*
X381750Y247750D02*
X387500Y242000D01*
Y253811D02*
Y254000D01*
X525876Y255750D02*
X525938Y255812D01*
X525876Y255750D02*
Y256000D01*
X498407Y244581D02*
X499659Y243328D01*
X500141D01*
X494785Y260627D02*
Y262351D01*
X496285Y259343D02*
Y262973D01*
X494231Y257108D02*
Y257289D01*
X496285Y259343D01*
X492839Y258681D02*
X494785Y260627D01*
X492839Y258500D02*
Y258681D01*
X492717Y239013D02*
X492839D01*
X489704Y242026D02*
X492717Y239013D01*
X488109Y238356D02*
X490055Y236410D01*
Y236229D02*
Y236410D01*
X480091Y234144D02*
X480644D01*
X477000Y234490D02*
Y238148D01*
X481000Y231364D02*
X481000Y234500D01*
X478931Y265931D02*
X480783D01*
X481000Y263500D02*
X481068D01*
X488109Y238356D02*
Y240552D01*
X480644Y234144D02*
X481000Y234500D01*
X460824Y254324D02*
X477000Y238148D01*
X473352Y230661D02*
Y230752D01*
X476500Y263500D02*
X478931Y265931D01*
X459432Y252605D02*
Y252932D01*
X483095Y229269D02*
Y229269D01*
X489582Y242026D02*
X489704D01*
X459432Y252605D02*
X468855Y243182D01*
X474744Y229269D02*
X475217D01*
X473352Y230752D02*
X477000Y234400D01*
X484419Y266852D02*
X484487D01*
X477000Y234400D02*
Y234490D01*
X468855Y242855D02*
Y243182D01*
X488109Y240552D02*
X489582Y242026D01*
X475217Y229269D02*
X480091Y234144D01*
X481068Y263500D02*
X484419Y266852D01*
X480783Y265931D02*
X483095Y268244D01*
X481000Y231364D02*
X483095Y229269D01*
D39*
X441624Y194000D02*
D03*
X435376D02*
D03*
X450376Y182000D02*
D03*
X456624D02*
D03*
X441624Y188000D02*
D03*
X435376D02*
D03*
Y206000D02*
D03*
X441624D02*
D03*
X435376Y200000D02*
D03*
X441624D02*
D03*
X532124Y211000D02*
D03*
X525876D02*
D03*
X532124Y256000D02*
D03*
X525876D02*
D03*
Y302000D02*
D03*
X532124D02*
D03*
X461376Y341500D02*
D03*
X467624D02*
D03*
Y360500D02*
D03*
X461376D02*
D03*
X505876Y214000D02*
D03*
X512124D02*
D03*
X474376Y200000D02*
D03*
X480624D02*
D03*
X474376Y194000D02*
D03*
X480624D02*
D03*
Y188000D02*
D03*
X474376D02*
D03*
D40*
X447866Y196240D02*
D03*
X456134D02*
D03*
X447866Y188760D02*
D03*
X456134D02*
D03*
D41*
X441500Y181500D02*
D03*
X435500D02*
D03*
X466000Y354000D02*
D03*
X460000D02*
D03*
X466000Y348500D02*
D03*
X460000D02*
D03*
X480500Y206500D02*
D03*
X474500D02*
D03*
D42*
X474744Y229269D02*
D03*
X473352Y230661D02*
D03*
X471960Y232053D02*
D03*
X470568Y233445D02*
D03*
X469176Y234837D02*
D03*
X467784Y236229D02*
D03*
X466392Y237621D02*
D03*
X465000Y239013D02*
D03*
X463608Y240405D02*
D03*
X462216Y241797D02*
D03*
X460824Y243189D02*
D03*
X459432Y244581D02*
D03*
X483095Y268244D02*
D03*
X484487Y266852D02*
D03*
X485879Y265460D02*
D03*
X487271Y264068D02*
D03*
X488663Y262676D02*
D03*
X490055Y261284D02*
D03*
X491447Y259892D02*
D03*
X492839Y258500D02*
D03*
X494231Y257108D02*
D03*
X495623Y255716D02*
D03*
X497015Y254324D02*
D03*
X498407Y252932D02*
D03*
D43*
X459432D02*
D03*
X460824Y254324D02*
D03*
X462216Y255716D02*
D03*
X463608Y257108D02*
D03*
X465000Y258500D02*
D03*
X466392Y259892D02*
D03*
X467784Y261284D02*
D03*
X469176Y262676D02*
D03*
X470568Y264068D02*
D03*
X471960Y265460D02*
D03*
X473352Y266852D02*
D03*
X474744Y268244D02*
D03*
X498407Y244581D02*
D03*
X497015Y243189D02*
D03*
X495623Y241797D02*
D03*
X494231Y240405D02*
D03*
X492839Y239013D02*
D03*
X491447Y237621D02*
D03*
X490055Y236229D02*
D03*
X488663Y234837D02*
D03*
X487271Y233445D02*
D03*
X485879Y232053D02*
D03*
X484487Y230661D02*
D03*
X483095Y229269D02*
D03*
D44*
X575000Y151500D02*
D03*
Y387000D02*
D03*
X385000Y151000D02*
D03*
D45*
X526000Y243876D02*
D03*
Y250124D02*
D03*
Y289876D02*
D03*
Y296124D02*
D03*
Y198876D02*
D03*
Y205124D02*
D03*
X487500Y354124D02*
D03*
Y347876D02*
D03*
X407500Y373876D02*
D03*
Y380124D02*
D03*
X393500Y373876D02*
D03*
Y380124D02*
D03*
D46*
X532500Y200055D02*
D03*
Y203500D02*
D03*
Y245055D02*
D03*
Y248500D02*
D03*
Y294500D02*
D03*
Y291055D02*
D03*
D47*
X380000Y371500D02*
D03*
X362008D02*
D03*
X439992D02*
D03*
X422000D02*
D03*
D48*
X371004Y343232D02*
D03*
X430996D02*
D03*
D49*
X408500Y356108D02*
D03*
Y342892D02*
D03*
X392500D02*
D03*
Y356108D02*
D03*
D50*
X488500Y198000D02*
D03*
X510000D02*
D03*
D51*
X524500Y372000D02*
D03*
X484500D02*
D03*
X544500D02*
D03*
X504500D02*
D03*
D52*
X515132Y343493D02*
D03*
Y348493D02*
D03*
Y353493D02*
D03*
Y358493D02*
D03*
X493872Y343493D02*
D03*
Y348493D02*
D03*
Y353493D02*
D03*
Y358493D02*
D03*
D53*
X529240Y350563D02*
D03*
X521760D02*
D03*
X525500Y358437D02*
D03*
D54*
X522601Y341500D02*
D03*
X535399D02*
D03*
D55*
X463232Y179500D02*
D03*
X479768D02*
D03*
D56*
X493872Y353493D02*
X493875Y353497D01*
X498997D01*
X499000Y353500D01*
X525500Y358437D02*
X525531Y358469D01*
X529969D01*
X530000Y358500D01*
X431500Y188000D02*
X435376D01*
X456134Y188760D02*
X460760D01*
X479768Y179500D02*
X484000D01*
X400500Y356108D02*
X408500D01*
X392500D02*
X400500D01*
Y332000D02*
Y356108D01*
Y332000D02*
X400528Y332028D01*
X430996Y342445D02*
Y343232D01*
X420579Y332028D02*
X430996Y342445D01*
X400528Y332028D02*
X420579D01*
X357587Y330199D02*
X358758Y329028D01*
X391055D01*
X392582Y327500D01*
X362008Y360687D02*
Y371500D01*
X357587Y356265D02*
X362008Y360687D01*
X357587Y330199D02*
Y356265D01*
X392500Y342892D02*
X392582Y342809D01*
Y327500D02*
Y342809D01*
X380000Y314918D02*
X392582Y327500D01*
X468500D01*
X422000Y360687D02*
Y368744D01*
X411050Y344242D02*
Y349737D01*
X408500Y342892D02*
X409700D01*
X411050Y344242D01*
Y349737D02*
X422000Y360687D01*
X371004Y343232D02*
Y344020D01*
X381421Y354437D01*
X389629D01*
X391300Y356108D01*
X392500D01*
X501000Y214000D02*
X505876D01*
X488500Y198000D02*
Y216500D01*
X447866Y196240D02*
X447933Y196307D01*
Y200433D01*
X448000Y200500D01*
X424453Y194000D02*
X435376D01*
X492002Y358617D02*
X493872D01*
X472500Y360500D02*
X490119D01*
X467624D02*
X472500D01*
X572000Y255906D02*
X578000Y249905D01*
Y215905D02*
Y249905D01*
X572000Y209906D02*
X578000Y215905D01*
X572000Y301905D02*
X578000Y295905D01*
Y261906D02*
Y295905D01*
X572000Y255906D02*
X578000Y261906D01*
X500336Y190072D02*
X505628Y184780D01*
X572000Y209906D02*
X578000Y203906D01*
X500336Y190072D02*
Y192708D01*
X578000Y195609D02*
Y203906D01*
X495043Y198000D02*
X500336Y192708D01*
X567170Y184780D02*
X578000Y195609D01*
X488500Y198000D02*
X495043D01*
X505628Y184780D02*
X567170D01*
X450826Y174000D02*
X453826Y177000D01*
X462482D02*
X463232Y177750D01*
Y179500D01*
X387500Y183095D02*
X393500Y177094D01*
X388109Y174000D02*
X450826D01*
X393500Y177094D02*
X407547D01*
X424453Y194000D01*
X453826Y177000D02*
X462482D01*
X381500Y197391D02*
X397976Y213867D01*
X437500Y231459D02*
Y232000D01*
X420024Y213867D02*
X436500Y230343D01*
X397976Y213867D02*
X420024D01*
X436500Y230459D02*
X437500Y231459D01*
X381500Y180609D02*
Y197391D01*
Y180609D02*
X388109Y174000D01*
X436500Y230343D02*
Y230459D01*
X379500Y238189D02*
X387500Y230189D01*
X432117Y251617D02*
X432500Y252000D01*
X401804Y224189D02*
X429233Y251617D01*
X393500Y224189D02*
X401804D01*
X429233Y251617D02*
X432117D01*
X387500Y230189D02*
X393500Y224189D01*
X486500Y200000D02*
X488500Y198000D01*
X480624Y200000D02*
X486500D01*
X435376Y194000D02*
Y200000D01*
X422000Y368744D02*
Y371500D01*
Y368744D02*
X424150Y366595D01*
X432560D01*
X435560Y363595D01*
X450528D01*
X456934Y370000D01*
X472000D01*
X522180Y349791D02*
Y350143D01*
Y338968D02*
Y349791D01*
X441986Y376250D02*
X546260D01*
X439992Y374256D02*
X441986Y376250D01*
X546260D02*
X572000Y350510D01*
X439992Y371500D02*
Y374256D01*
X393500Y380247D02*
X407500D01*
X433772D01*
X386220D02*
X393500D01*
X468500Y327500D02*
X474000Y333000D01*
X380000Y295689D02*
Y314918D01*
Y295689D02*
X387500Y288189D01*
X435376Y200000D02*
Y206000D01*
X379500Y280189D02*
X387500Y288189D01*
X379500Y238189D02*
Y280189D01*
X525938Y255812D02*
Y255938D01*
Y250185D02*
Y255812D01*
X572000Y349905D02*
Y350510D01*
X556075Y333988D02*
X560181Y338094D01*
X556597Y200055D02*
X558558Y198094D01*
X559634Y210453D02*
X560181Y209906D01*
X560134Y255953D02*
X560181Y255906D01*
X559221Y291055D02*
X560181Y290094D01*
X558558Y198094D02*
X560181D01*
X559221Y245055D02*
X560181Y244094D01*
X560134Y301953D02*
X560181Y301905D01*
X525876Y211000D02*
X525938Y210938D01*
Y250185D02*
X526000Y250124D01*
X525876Y256000D02*
X525938Y255938D01*
Y296185D02*
X526000Y296124D01*
X532500Y210576D02*
X532624Y210453D01*
X532500Y210576D02*
Y210624D01*
X532124Y211000D02*
X532500Y210624D01*
X532171Y255953D02*
X532500Y255624D01*
X532124Y256000D02*
X532171Y255953D01*
X531321Y289876D02*
X532500Y291055D01*
X525938Y205185D02*
Y210938D01*
Y205185D02*
X526000Y205124D01*
X525876Y302000D02*
X525938Y301938D01*
Y296185D02*
Y301938D01*
X531321Y198876D02*
X532500Y200055D01*
Y203500D02*
Y210576D01*
X531321Y243876D02*
X532500Y245055D01*
Y248500D02*
Y255624D01*
X532171Y301953D02*
X532500Y301624D01*
X532124Y302000D02*
X532171Y301953D01*
X532500Y294500D02*
Y301624D01*
X526000Y243876D02*
X531321D01*
X526000Y289876D02*
X531321D01*
X526000Y198876D02*
X531321D01*
X532500Y200055D02*
X556597D01*
X532624Y210453D02*
X559634D01*
X532171Y255953D02*
X560134D01*
X532500Y291055D02*
X559221D01*
X532500Y245055D02*
X559221D01*
X532171Y301953D02*
X560134D01*
X527160Y333988D02*
X556075D01*
X544468Y350532D02*
X544500Y350563D01*
X522180Y338968D02*
X527160Y333988D01*
X450376Y182000D02*
Y186188D01*
X449205Y187360D02*
X450376Y186188D01*
X449016Y187360D02*
X449205D01*
X447866Y188510D02*
X449016Y187360D01*
X447866Y188510D02*
Y188760D01*
X456379Y182245D02*
X456624Y182000D01*
X456379Y182245D02*
Y188515D01*
X456134Y188760D02*
X456379Y188515D01*
X408500Y356108D02*
Y373376D01*
X408000Y373876D02*
X408500Y373376D01*
X407500Y373876D02*
X408000D01*
X393500D02*
X407500D01*
X474270Y187894D02*
X474376Y188000D01*
X469876Y187894D02*
X474270D01*
X463232Y181250D02*
X469876Y187894D01*
X463232Y179500D02*
Y181250D01*
X480624Y182106D02*
Y188000D01*
X479768Y181250D02*
X480624Y182106D01*
X479768Y179500D02*
Y181250D01*
X480624Y194000D02*
Y200000D01*
X544500Y350563D02*
Y372000D01*
X493872Y358617D02*
Y362628D01*
X484500Y372000D02*
X493872Y362628D01*
X457876Y346376D02*
X460000Y348500D01*
X463548Y333000D02*
X464000D01*
X465250Y345874D02*
Y347750D01*
X466000Y348500D01*
X465250Y354750D02*
Y356126D01*
Y354750D02*
X466000Y354000D01*
X488000Y348376D02*
X491761D01*
X487500Y347876D02*
X488000Y348376D01*
X491761D02*
X492002Y348617D01*
X487500Y354124D02*
X487826Y353798D01*
X457876Y338672D02*
Y346376D01*
X487500Y336853D02*
Y347876D01*
X490119Y360500D02*
X492002Y358617D01*
X515132D02*
X515222Y358527D01*
X521185Y349791D02*
X521760Y350366D01*
Y350563D01*
X522180Y350143D01*
X529240Y350563D02*
X529272Y350532D01*
X529240Y350563D02*
Y350760D01*
X535399Y341500D02*
X536399Y340500D01*
X460000Y348500D02*
Y354000D01*
X461376Y360000D02*
Y360500D01*
X492002Y348617D02*
X493872D01*
X493691Y353798D02*
X493872Y353617D01*
X487826Y353798D02*
X493691D01*
X515132Y348617D02*
X517002D01*
Y353617D02*
X517720Y354335D01*
X515132Y353617D02*
X517002D01*
X517720Y354335D02*
X525665D01*
X457876Y338672D02*
X463548Y333000D01*
X461376Y341500D02*
Y342000D01*
X465250Y345874D01*
X461376Y360000D02*
X465250Y356126D01*
X485000Y333000D02*
Y334353D01*
X487500Y336853D01*
X517002Y348617D02*
X518176Y349791D01*
X521185D01*
X525410Y358527D02*
X525500Y358437D01*
X515222Y358527D02*
X525410D01*
X525665Y354335D02*
X529240Y350760D01*
X474000Y333000D02*
X485000D01*
X536399Y340500D02*
X544500D01*
X505617Y343617D02*
X515132D01*
X495000Y333000D02*
X505617Y343617D01*
X529272Y350532D02*
X544468D01*
X512124Y200124D02*
Y214000D01*
X510000Y198000D02*
X512124Y200124D01*
X447866Y188760D02*
Y196240D01*
X474376Y188000D02*
Y194000D01*
X433772Y380247D02*
X439996Y374024D01*
X379996D02*
X386220Y380247D01*
D57*
X387500Y311811D02*
D03*
X399319D02*
D03*
Y300000D02*
D03*
Y288189D02*
D03*
X387500Y300000D02*
D03*
X387500Y288189D02*
D03*
X387500Y230189D02*
D03*
X387500Y242000D02*
D03*
X399319Y230189D02*
D03*
Y242000D02*
D03*
Y253811D02*
D03*
X387500Y253811D02*
D03*
X399319Y194905D02*
D03*
Y183095D02*
D03*
X387500Y194905D02*
D03*
X387500Y183095D02*
D03*
X560181Y338094D02*
D03*
Y349905D02*
D03*
X572000Y338094D02*
D03*
Y349905D02*
D03*
X560181Y290094D02*
D03*
Y301905D02*
D03*
X572000Y290094D02*
D03*
X572000Y301905D02*
D03*
X560181Y244094D02*
D03*
Y255906D02*
D03*
X572000Y244094D02*
D03*
Y255906D02*
D03*
X560181Y198094D02*
D03*
Y209906D02*
D03*
X572000Y198094D02*
D03*
Y209906D02*
D03*
D58*
X437500Y242000D02*
D03*
X432500D02*
D03*
Y247000D02*
D03*
X437500D02*
D03*
Y252000D02*
D03*
X432500D02*
D03*
Y237000D02*
D03*
X437500D02*
D03*
Y232000D02*
D03*
X432500D02*
D03*
D59*
X456000Y319500D02*
D03*
X476000D02*
D03*
X466000D02*
D03*
X474000Y333000D02*
D03*
X464000D02*
D03*
X485000D02*
D03*
X495000D02*
D03*
X544500Y350500D02*
D03*
Y340500D02*
D03*
D60*
X499000Y353500D02*
D03*
X530000Y358500D02*
D03*
X431500Y188000D02*
D03*
X460760Y188760D02*
D03*
X484000Y179500D02*
D03*
X400500Y332000D02*
D03*
X501000Y214000D02*
D03*
X472000Y370000D02*
D03*
X492000Y249000D02*
D03*
X499500Y231500D02*
D03*
X488500Y216500D02*
D03*
X479500Y225500D02*
D03*
X448000Y200500D02*
D03*
X424453Y194000D02*
D03*
X452000Y265000D02*
D03*
X464000D02*
D03*
X460000D02*
D03*
X456000D02*
D03*
X472500Y360500D02*
D03*
Y341500D02*
D03*
X468855Y242855D02*
D03*
X489582Y242026D02*
D03*
X481000Y263500D02*
D03*
X477000Y234490D02*
D03*
X476500Y263500D02*
D03*
X481000Y234500D02*
D03*
M02*
